%
M48
M72
T01C0.0120
T02C0.0236
T03C0.0315
T04C0.0320
T05C0.0354
T06C0.0360
T07C0.0394
T08C0.0400
T09C0.0512
T10C0.0520
T11C0.0591
T12C0.1100
T13C0.1102
T14C0.1260
%
T01
X27425Y20875
X28025Y21825
X30325Y23175
X28475Y24325
X27725Y24325
X28925Y25325
X28625Y25975
X28025Y25775
X27175Y25775
X26425Y25975
X24875Y26725
X26375Y27275
X27125Y27275
X28225Y27925
X28525Y28225
X29725Y27475
X29875Y28025
X30925Y27725
X32575Y27725
X30025Y26175
X28475Y27125
X29875Y29475
X29325Y30525
X32925Y32625
X33125Y32325
X33325Y32025
X35775Y32625
X36425Y32625
X36125Y33675
X36425Y34375
X37825Y35775
X39825Y34425
X39825Y33625
X39125Y33325
X41125Y33825
X38375Y31225
X38075Y29925
X38675Y29525
X38225Y28225
X41675Y29075
X41725Y30925
X44525Y28025
X43425Y25725
X40275Y23925
X34975Y20625
X26425Y23825
X24875Y22925
X22425Y26425
X25325Y28675
X25275Y30075
X25225Y30975
X25525Y31575
X23425Y33475
X22825Y32075
X22425Y30975
X17525Y33875
T02
X18625Y27775
X26125Y32775
X26625Y29275
X32125Y28775
X36125Y28275
X39625Y27275
X42125Y25275
X42625Y23775
X42925Y29175
X45825Y29475
X36325Y31475
X34325Y24275
X29625Y23275
X29625Y21275
X31625Y19275
X36125Y19775
T03
X23168Y15944
X22381Y15944
X21594Y15944
X20806Y15944
X20019Y15944
X19231Y15944
X18444Y15944
X17656Y15944
X16869Y15944
X16082Y15944
X16082Y24606
X16869Y24606
X17656Y24606
X18444Y24606
X19231Y24606
X20019Y24606
X20806Y24606
X21594Y24606
X22381Y24606
X23168Y24606
X39958Y39198
X43107Y39198
T04
X26625Y17275
X26625Y16275
T05
X42259Y38775
X43991Y38775
T06
X12125Y33775
T07
X17658Y20275
X40141Y21228
X41125Y21228
X42109Y21228
X42109Y15519
X40141Y15519
T08
X35625Y17775
X34625Y17775
X33625Y17775
X45625Y17275
X45625Y16275
X45625Y15275
X45625Y14275
X45625Y18275
X34625Y28775
X33625Y28775
X33625Y29775
X33625Y30775
X34625Y30775
X34625Y29775
X30027Y34627
X29027Y34627
X28027Y34627
X27027Y34627
X26027Y34627
X25027Y34627
X20027Y34627
X19027Y34627
X18027Y34627
X17027Y34627
X16027Y34627
X15027Y34627
X13125Y32775
X12125Y32775
X11125Y32775
X10625Y30275
X10625Y29275
X10625Y28275
X10625Y27275
X10625Y26275
X10625Y25275
X10625Y24275
X10625Y23275
X10625Y22275
X10625Y21275
X17125Y30275
X17125Y31275
X19125Y31275
X19125Y30275
X34125Y38275
X35125Y38275
X35125Y40275
X36125Y40275
X37125Y40275
T09
X20592Y20275
T10
X22125Y35525
X23125Y36525
X25125Y36525
X26125Y35525
X28125Y36525
X30125Y35525
X31125Y36525
X29125Y40525
X27125Y40525
X21125Y40525
X19125Y40525
X20125Y36525
X18125Y35525
X17125Y36525
X15125Y36525
X14125Y35525
X12125Y36525
X10125Y35525
X9125Y36525
X11125Y40525
X13125Y40525
T11
X10125Y18673
X10125Y15877
T12
X9125Y38525
X15125Y38525
X17125Y38525
X23125Y38525
X25125Y38525
X31125Y38525
T13
X38763Y18275
X43487Y18275
X28125Y11425
X28125Y5125
T14
X8875Y7625
X41125Y18275
X46375Y7625
X46375Y32625
X8875Y32625
M30
