G75*
%MOIN*%
%OFA0B0*%
%FSLAX24Y24*%
%IPPOS*%
%LPD*%
%AMOC8*
5,1,8,0,0,1.08239X$1,22.5*
%
%ADD10C,0.0000*%
%ADD11C,0.0050*%
%ADD12R,0.0180X0.0300*%
%ADD13C,0.0060*%
%ADD14C,0.0080*%
%ADD15C,0.0070*%
%ADD16C,0.0040*%
%ADD17C,0.0020*%
%ADD18C,0.0030*%
%ADD19C,0.0010*%
%ADD20C,0.0220*%
%ADD21C,0.0100*%
D10*
X008005Y006775D02*
X047375Y006775D01*
X047375Y041025D01*
X008005Y041025D01*
X008005Y006775D01*
X008245Y007625D02*
X008247Y007675D01*
X008253Y007725D01*
X008263Y007774D01*
X008277Y007822D01*
X008294Y007869D01*
X008315Y007914D01*
X008340Y007958D01*
X008368Y007999D01*
X008400Y008038D01*
X008434Y008075D01*
X008471Y008109D01*
X008511Y008139D01*
X008553Y008166D01*
X008597Y008190D01*
X008643Y008211D01*
X008690Y008227D01*
X008738Y008240D01*
X008788Y008249D01*
X008837Y008254D01*
X008888Y008255D01*
X008938Y008252D01*
X008987Y008245D01*
X009036Y008234D01*
X009084Y008219D01*
X009130Y008201D01*
X009175Y008179D01*
X009218Y008153D01*
X009259Y008124D01*
X009298Y008092D01*
X009334Y008057D01*
X009366Y008019D01*
X009396Y007979D01*
X009423Y007936D01*
X009446Y007892D01*
X009465Y007846D01*
X009481Y007798D01*
X009493Y007749D01*
X009501Y007700D01*
X009505Y007650D01*
X009505Y007600D01*
X009501Y007550D01*
X009493Y007501D01*
X009481Y007452D01*
X009465Y007404D01*
X009446Y007358D01*
X009423Y007314D01*
X009396Y007271D01*
X009366Y007231D01*
X009334Y007193D01*
X009298Y007158D01*
X009259Y007126D01*
X009218Y007097D01*
X009175Y007071D01*
X009130Y007049D01*
X009084Y007031D01*
X009036Y007016D01*
X008987Y007005D01*
X008938Y006998D01*
X008888Y006995D01*
X008837Y006996D01*
X008788Y007001D01*
X008738Y007010D01*
X008690Y007023D01*
X008643Y007039D01*
X008597Y007060D01*
X008553Y007084D01*
X008511Y007111D01*
X008471Y007141D01*
X008434Y007175D01*
X008400Y007212D01*
X008368Y007251D01*
X008340Y007292D01*
X008315Y007336D01*
X008294Y007381D01*
X008277Y007428D01*
X008263Y007476D01*
X008253Y007525D01*
X008247Y007575D01*
X008245Y007625D01*
X017461Y020275D02*
X017463Y020302D01*
X017469Y020329D01*
X017478Y020355D01*
X017491Y020379D01*
X017507Y020402D01*
X017526Y020421D01*
X017548Y020438D01*
X017572Y020452D01*
X017597Y020462D01*
X017624Y020469D01*
X017651Y020472D01*
X017679Y020471D01*
X017706Y020466D01*
X017732Y020458D01*
X017756Y020446D01*
X017779Y020430D01*
X017800Y020412D01*
X017817Y020391D01*
X017832Y020367D01*
X017843Y020342D01*
X017851Y020316D01*
X017855Y020289D01*
X017855Y020261D01*
X017851Y020234D01*
X017843Y020208D01*
X017832Y020183D01*
X017817Y020159D01*
X017800Y020138D01*
X017779Y020120D01*
X017757Y020104D01*
X017732Y020092D01*
X017706Y020084D01*
X017679Y020079D01*
X017651Y020078D01*
X017624Y020081D01*
X017597Y020088D01*
X017572Y020098D01*
X017548Y020112D01*
X017526Y020129D01*
X017507Y020148D01*
X017491Y020171D01*
X017478Y020195D01*
X017469Y020221D01*
X017463Y020248D01*
X017461Y020275D01*
X020336Y020275D02*
X020338Y020306D01*
X020344Y020337D01*
X020353Y020367D01*
X020366Y020396D01*
X020383Y020423D01*
X020403Y020447D01*
X020425Y020469D01*
X020451Y020488D01*
X020478Y020504D01*
X020507Y020516D01*
X020537Y020525D01*
X020568Y020530D01*
X020600Y020531D01*
X020631Y020528D01*
X020662Y020521D01*
X020692Y020511D01*
X020720Y020497D01*
X020746Y020479D01*
X020770Y020459D01*
X020791Y020435D01*
X020810Y020410D01*
X020825Y020382D01*
X020836Y020353D01*
X020844Y020322D01*
X020848Y020291D01*
X020848Y020259D01*
X020844Y020228D01*
X020836Y020197D01*
X020825Y020168D01*
X020810Y020140D01*
X020791Y020115D01*
X020770Y020091D01*
X020746Y020071D01*
X020720Y020053D01*
X020692Y020039D01*
X020662Y020029D01*
X020631Y020022D01*
X020600Y020019D01*
X020568Y020020D01*
X020537Y020025D01*
X020507Y020034D01*
X020478Y020046D01*
X020451Y020062D01*
X020425Y020081D01*
X020403Y020103D01*
X020383Y020127D01*
X020366Y020154D01*
X020353Y020183D01*
X020344Y020213D01*
X020338Y020244D01*
X020336Y020275D01*
X027574Y011425D02*
X027576Y011472D01*
X027582Y011518D01*
X027592Y011564D01*
X027605Y011609D01*
X027623Y011652D01*
X027644Y011694D01*
X027668Y011734D01*
X027696Y011771D01*
X027727Y011806D01*
X027761Y011839D01*
X027797Y011868D01*
X027836Y011894D01*
X027877Y011917D01*
X027920Y011936D01*
X027964Y011952D01*
X028009Y011964D01*
X028055Y011972D01*
X028102Y011976D01*
X028148Y011976D01*
X028195Y011972D01*
X028241Y011964D01*
X028286Y011952D01*
X028330Y011936D01*
X028373Y011917D01*
X028414Y011894D01*
X028453Y011868D01*
X028489Y011839D01*
X028523Y011806D01*
X028554Y011771D01*
X028582Y011734D01*
X028606Y011694D01*
X028627Y011652D01*
X028645Y011609D01*
X028658Y011564D01*
X028668Y011518D01*
X028674Y011472D01*
X028676Y011425D01*
X028674Y011378D01*
X028668Y011332D01*
X028658Y011286D01*
X028645Y011241D01*
X028627Y011198D01*
X028606Y011156D01*
X028582Y011116D01*
X028554Y011079D01*
X028523Y011044D01*
X028489Y011011D01*
X028453Y010982D01*
X028414Y010956D01*
X028373Y010933D01*
X028330Y010914D01*
X028286Y010898D01*
X028241Y010886D01*
X028195Y010878D01*
X028148Y010874D01*
X028102Y010874D01*
X028055Y010878D01*
X028009Y010886D01*
X027964Y010898D01*
X027920Y010914D01*
X027877Y010933D01*
X027836Y010956D01*
X027797Y010982D01*
X027761Y011011D01*
X027727Y011044D01*
X027696Y011079D01*
X027668Y011116D01*
X027644Y011156D01*
X027623Y011198D01*
X027605Y011241D01*
X027592Y011286D01*
X027582Y011332D01*
X027576Y011378D01*
X027574Y011425D01*
X027574Y005125D02*
X027576Y005172D01*
X027582Y005218D01*
X027592Y005264D01*
X027605Y005309D01*
X027623Y005352D01*
X027644Y005394D01*
X027668Y005434D01*
X027696Y005471D01*
X027727Y005506D01*
X027761Y005539D01*
X027797Y005568D01*
X027836Y005594D01*
X027877Y005617D01*
X027920Y005636D01*
X027964Y005652D01*
X028009Y005664D01*
X028055Y005672D01*
X028102Y005676D01*
X028148Y005676D01*
X028195Y005672D01*
X028241Y005664D01*
X028286Y005652D01*
X028330Y005636D01*
X028373Y005617D01*
X028414Y005594D01*
X028453Y005568D01*
X028489Y005539D01*
X028523Y005506D01*
X028554Y005471D01*
X028582Y005434D01*
X028606Y005394D01*
X028627Y005352D01*
X028645Y005309D01*
X028658Y005264D01*
X028668Y005218D01*
X028674Y005172D01*
X028676Y005125D01*
X028674Y005078D01*
X028668Y005032D01*
X028658Y004986D01*
X028645Y004941D01*
X028627Y004898D01*
X028606Y004856D01*
X028582Y004816D01*
X028554Y004779D01*
X028523Y004744D01*
X028489Y004711D01*
X028453Y004682D01*
X028414Y004656D01*
X028373Y004633D01*
X028330Y004614D01*
X028286Y004598D01*
X028241Y004586D01*
X028195Y004578D01*
X028148Y004574D01*
X028102Y004574D01*
X028055Y004578D01*
X028009Y004586D01*
X027964Y004598D01*
X027920Y004614D01*
X027877Y004633D01*
X027836Y004656D01*
X027797Y004682D01*
X027761Y004711D01*
X027727Y004744D01*
X027696Y004779D01*
X027668Y004816D01*
X027644Y004856D01*
X027623Y004898D01*
X027605Y004941D01*
X027592Y004986D01*
X027582Y005032D01*
X027576Y005078D01*
X027574Y005125D01*
X040495Y018275D02*
X040497Y018325D01*
X040503Y018375D01*
X040513Y018424D01*
X040527Y018472D01*
X040544Y018519D01*
X040565Y018564D01*
X040590Y018608D01*
X040618Y018649D01*
X040650Y018688D01*
X040684Y018725D01*
X040721Y018759D01*
X040761Y018789D01*
X040803Y018816D01*
X040847Y018840D01*
X040893Y018861D01*
X040940Y018877D01*
X040988Y018890D01*
X041038Y018899D01*
X041087Y018904D01*
X041138Y018905D01*
X041188Y018902D01*
X041237Y018895D01*
X041286Y018884D01*
X041334Y018869D01*
X041380Y018851D01*
X041425Y018829D01*
X041468Y018803D01*
X041509Y018774D01*
X041548Y018742D01*
X041584Y018707D01*
X041616Y018669D01*
X041646Y018629D01*
X041673Y018586D01*
X041696Y018542D01*
X041715Y018496D01*
X041731Y018448D01*
X041743Y018399D01*
X041751Y018350D01*
X041755Y018300D01*
X041755Y018250D01*
X041751Y018200D01*
X041743Y018151D01*
X041731Y018102D01*
X041715Y018054D01*
X041696Y018008D01*
X041673Y017964D01*
X041646Y017921D01*
X041616Y017881D01*
X041584Y017843D01*
X041548Y017808D01*
X041509Y017776D01*
X041468Y017747D01*
X041425Y017721D01*
X041380Y017699D01*
X041334Y017681D01*
X041286Y017666D01*
X041237Y017655D01*
X041188Y017648D01*
X041138Y017645D01*
X041087Y017646D01*
X041038Y017651D01*
X040988Y017660D01*
X040940Y017673D01*
X040893Y017689D01*
X040847Y017710D01*
X040803Y017734D01*
X040761Y017761D01*
X040721Y017791D01*
X040684Y017825D01*
X040650Y017862D01*
X040618Y017901D01*
X040590Y017942D01*
X040565Y017986D01*
X040544Y018031D01*
X040527Y018078D01*
X040513Y018126D01*
X040503Y018175D01*
X040497Y018225D01*
X040495Y018275D01*
X045745Y007625D02*
X045747Y007675D01*
X045753Y007725D01*
X045763Y007774D01*
X045777Y007822D01*
X045794Y007869D01*
X045815Y007914D01*
X045840Y007958D01*
X045868Y007999D01*
X045900Y008038D01*
X045934Y008075D01*
X045971Y008109D01*
X046011Y008139D01*
X046053Y008166D01*
X046097Y008190D01*
X046143Y008211D01*
X046190Y008227D01*
X046238Y008240D01*
X046288Y008249D01*
X046337Y008254D01*
X046388Y008255D01*
X046438Y008252D01*
X046487Y008245D01*
X046536Y008234D01*
X046584Y008219D01*
X046630Y008201D01*
X046675Y008179D01*
X046718Y008153D01*
X046759Y008124D01*
X046798Y008092D01*
X046834Y008057D01*
X046866Y008019D01*
X046896Y007979D01*
X046923Y007936D01*
X046946Y007892D01*
X046965Y007846D01*
X046981Y007798D01*
X046993Y007749D01*
X047001Y007700D01*
X047005Y007650D01*
X047005Y007600D01*
X047001Y007550D01*
X046993Y007501D01*
X046981Y007452D01*
X046965Y007404D01*
X046946Y007358D01*
X046923Y007314D01*
X046896Y007271D01*
X046866Y007231D01*
X046834Y007193D01*
X046798Y007158D01*
X046759Y007126D01*
X046718Y007097D01*
X046675Y007071D01*
X046630Y007049D01*
X046584Y007031D01*
X046536Y007016D01*
X046487Y007005D01*
X046438Y006998D01*
X046388Y006995D01*
X046337Y006996D01*
X046288Y007001D01*
X046238Y007010D01*
X046190Y007023D01*
X046143Y007039D01*
X046097Y007060D01*
X046053Y007084D01*
X046011Y007111D01*
X045971Y007141D01*
X045934Y007175D01*
X045900Y007212D01*
X045868Y007251D01*
X045840Y007292D01*
X045815Y007336D01*
X045794Y007381D01*
X045777Y007428D01*
X045763Y007476D01*
X045753Y007525D01*
X045747Y007575D01*
X045745Y007625D01*
X045745Y032625D02*
X045747Y032675D01*
X045753Y032725D01*
X045763Y032774D01*
X045777Y032822D01*
X045794Y032869D01*
X045815Y032914D01*
X045840Y032958D01*
X045868Y032999D01*
X045900Y033038D01*
X045934Y033075D01*
X045971Y033109D01*
X046011Y033139D01*
X046053Y033166D01*
X046097Y033190D01*
X046143Y033211D01*
X046190Y033227D01*
X046238Y033240D01*
X046288Y033249D01*
X046337Y033254D01*
X046388Y033255D01*
X046438Y033252D01*
X046487Y033245D01*
X046536Y033234D01*
X046584Y033219D01*
X046630Y033201D01*
X046675Y033179D01*
X046718Y033153D01*
X046759Y033124D01*
X046798Y033092D01*
X046834Y033057D01*
X046866Y033019D01*
X046896Y032979D01*
X046923Y032936D01*
X046946Y032892D01*
X046965Y032846D01*
X046981Y032798D01*
X046993Y032749D01*
X047001Y032700D01*
X047005Y032650D01*
X047005Y032600D01*
X047001Y032550D01*
X046993Y032501D01*
X046981Y032452D01*
X046965Y032404D01*
X046946Y032358D01*
X046923Y032314D01*
X046896Y032271D01*
X046866Y032231D01*
X046834Y032193D01*
X046798Y032158D01*
X046759Y032126D01*
X046718Y032097D01*
X046675Y032071D01*
X046630Y032049D01*
X046584Y032031D01*
X046536Y032016D01*
X046487Y032005D01*
X046438Y031998D01*
X046388Y031995D01*
X046337Y031996D01*
X046288Y032001D01*
X046238Y032010D01*
X046190Y032023D01*
X046143Y032039D01*
X046097Y032060D01*
X046053Y032084D01*
X046011Y032111D01*
X045971Y032141D01*
X045934Y032175D01*
X045900Y032212D01*
X045868Y032251D01*
X045840Y032292D01*
X045815Y032336D01*
X045794Y032381D01*
X045777Y032428D01*
X045763Y032476D01*
X045753Y032525D01*
X045747Y032575D01*
X045745Y032625D01*
X043814Y038775D02*
X043816Y038801D01*
X043822Y038827D01*
X043832Y038852D01*
X043845Y038875D01*
X043861Y038895D01*
X043881Y038913D01*
X043903Y038928D01*
X043926Y038940D01*
X043952Y038948D01*
X043978Y038952D01*
X044004Y038952D01*
X044030Y038948D01*
X044056Y038940D01*
X044080Y038928D01*
X044101Y038913D01*
X044121Y038895D01*
X044137Y038875D01*
X044150Y038852D01*
X044160Y038827D01*
X044166Y038801D01*
X044168Y038775D01*
X044166Y038749D01*
X044160Y038723D01*
X044150Y038698D01*
X044137Y038675D01*
X044121Y038655D01*
X044101Y038637D01*
X044079Y038622D01*
X044056Y038610D01*
X044030Y038602D01*
X044004Y038598D01*
X043978Y038598D01*
X043952Y038602D01*
X043926Y038610D01*
X043902Y038622D01*
X043881Y038637D01*
X043861Y038655D01*
X043845Y038675D01*
X043832Y038698D01*
X043822Y038723D01*
X043816Y038749D01*
X043814Y038775D01*
X042950Y039198D02*
X042952Y039223D01*
X042958Y039247D01*
X042967Y039269D01*
X042980Y039290D01*
X042996Y039309D01*
X043015Y039325D01*
X043036Y039338D01*
X043058Y039347D01*
X043082Y039353D01*
X043107Y039355D01*
X043132Y039353D01*
X043156Y039347D01*
X043178Y039338D01*
X043199Y039325D01*
X043218Y039309D01*
X043234Y039290D01*
X043247Y039269D01*
X043256Y039247D01*
X043262Y039223D01*
X043264Y039198D01*
X043262Y039173D01*
X043256Y039149D01*
X043247Y039127D01*
X043234Y039106D01*
X043218Y039087D01*
X043199Y039071D01*
X043178Y039058D01*
X043156Y039049D01*
X043132Y039043D01*
X043107Y039041D01*
X043082Y039043D01*
X043058Y039049D01*
X043036Y039058D01*
X043015Y039071D01*
X042996Y039087D01*
X042980Y039106D01*
X042967Y039127D01*
X042958Y039149D01*
X042952Y039173D01*
X042950Y039198D01*
X042082Y038775D02*
X042084Y038801D01*
X042090Y038827D01*
X042100Y038852D01*
X042113Y038875D01*
X042129Y038895D01*
X042149Y038913D01*
X042171Y038928D01*
X042194Y038940D01*
X042220Y038948D01*
X042246Y038952D01*
X042272Y038952D01*
X042298Y038948D01*
X042324Y038940D01*
X042348Y038928D01*
X042369Y038913D01*
X042389Y038895D01*
X042405Y038875D01*
X042418Y038852D01*
X042428Y038827D01*
X042434Y038801D01*
X042436Y038775D01*
X042434Y038749D01*
X042428Y038723D01*
X042418Y038698D01*
X042405Y038675D01*
X042389Y038655D01*
X042369Y038637D01*
X042347Y038622D01*
X042324Y038610D01*
X042298Y038602D01*
X042272Y038598D01*
X042246Y038598D01*
X042220Y038602D01*
X042194Y038610D01*
X042170Y038622D01*
X042149Y038637D01*
X042129Y038655D01*
X042113Y038675D01*
X042100Y038698D01*
X042090Y038723D01*
X042084Y038749D01*
X042082Y038775D01*
X039801Y039198D02*
X039803Y039223D01*
X039809Y039247D01*
X039818Y039269D01*
X039831Y039290D01*
X039847Y039309D01*
X039866Y039325D01*
X039887Y039338D01*
X039909Y039347D01*
X039933Y039353D01*
X039958Y039355D01*
X039983Y039353D01*
X040007Y039347D01*
X040029Y039338D01*
X040050Y039325D01*
X040069Y039309D01*
X040085Y039290D01*
X040098Y039269D01*
X040107Y039247D01*
X040113Y039223D01*
X040115Y039198D01*
X040113Y039173D01*
X040107Y039149D01*
X040098Y039127D01*
X040085Y039106D01*
X040069Y039087D01*
X040050Y039071D01*
X040029Y039058D01*
X040007Y039049D01*
X039983Y039043D01*
X039958Y039041D01*
X039933Y039043D01*
X039909Y039049D01*
X039887Y039058D01*
X039866Y039071D01*
X039847Y039087D01*
X039831Y039106D01*
X039818Y039127D01*
X039809Y039149D01*
X039803Y039173D01*
X039801Y039198D01*
X030575Y038525D02*
X030577Y038572D01*
X030583Y038618D01*
X030593Y038664D01*
X030606Y038708D01*
X030624Y038752D01*
X030645Y038793D01*
X030669Y038833D01*
X030697Y038871D01*
X030728Y038906D01*
X030762Y038938D01*
X030798Y038967D01*
X030837Y038993D01*
X030877Y039016D01*
X030920Y039035D01*
X030964Y039051D01*
X031009Y039063D01*
X031055Y039071D01*
X031102Y039075D01*
X031148Y039075D01*
X031195Y039071D01*
X031241Y039063D01*
X031286Y039051D01*
X031330Y039035D01*
X031373Y039016D01*
X031413Y038993D01*
X031452Y038967D01*
X031488Y038938D01*
X031522Y038906D01*
X031553Y038871D01*
X031581Y038833D01*
X031605Y038793D01*
X031626Y038752D01*
X031644Y038708D01*
X031657Y038664D01*
X031667Y038618D01*
X031673Y038572D01*
X031675Y038525D01*
X031673Y038478D01*
X031667Y038432D01*
X031657Y038386D01*
X031644Y038342D01*
X031626Y038298D01*
X031605Y038257D01*
X031581Y038217D01*
X031553Y038179D01*
X031522Y038144D01*
X031488Y038112D01*
X031452Y038083D01*
X031413Y038057D01*
X031373Y038034D01*
X031330Y038015D01*
X031286Y037999D01*
X031241Y037987D01*
X031195Y037979D01*
X031148Y037975D01*
X031102Y037975D01*
X031055Y037979D01*
X031009Y037987D01*
X030964Y037999D01*
X030920Y038015D01*
X030877Y038034D01*
X030837Y038057D01*
X030798Y038083D01*
X030762Y038112D01*
X030728Y038144D01*
X030697Y038179D01*
X030669Y038217D01*
X030645Y038257D01*
X030624Y038298D01*
X030606Y038342D01*
X030593Y038386D01*
X030583Y038432D01*
X030577Y038478D01*
X030575Y038525D01*
X024575Y038525D02*
X024577Y038572D01*
X024583Y038618D01*
X024593Y038664D01*
X024606Y038708D01*
X024624Y038752D01*
X024645Y038793D01*
X024669Y038833D01*
X024697Y038871D01*
X024728Y038906D01*
X024762Y038938D01*
X024798Y038967D01*
X024837Y038993D01*
X024877Y039016D01*
X024920Y039035D01*
X024964Y039051D01*
X025009Y039063D01*
X025055Y039071D01*
X025102Y039075D01*
X025148Y039075D01*
X025195Y039071D01*
X025241Y039063D01*
X025286Y039051D01*
X025330Y039035D01*
X025373Y039016D01*
X025413Y038993D01*
X025452Y038967D01*
X025488Y038938D01*
X025522Y038906D01*
X025553Y038871D01*
X025581Y038833D01*
X025605Y038793D01*
X025626Y038752D01*
X025644Y038708D01*
X025657Y038664D01*
X025667Y038618D01*
X025673Y038572D01*
X025675Y038525D01*
X025673Y038478D01*
X025667Y038432D01*
X025657Y038386D01*
X025644Y038342D01*
X025626Y038298D01*
X025605Y038257D01*
X025581Y038217D01*
X025553Y038179D01*
X025522Y038144D01*
X025488Y038112D01*
X025452Y038083D01*
X025413Y038057D01*
X025373Y038034D01*
X025330Y038015D01*
X025286Y037999D01*
X025241Y037987D01*
X025195Y037979D01*
X025148Y037975D01*
X025102Y037975D01*
X025055Y037979D01*
X025009Y037987D01*
X024964Y037999D01*
X024920Y038015D01*
X024877Y038034D01*
X024837Y038057D01*
X024798Y038083D01*
X024762Y038112D01*
X024728Y038144D01*
X024697Y038179D01*
X024669Y038217D01*
X024645Y038257D01*
X024624Y038298D01*
X024606Y038342D01*
X024593Y038386D01*
X024583Y038432D01*
X024577Y038478D01*
X024575Y038525D01*
X022575Y038525D02*
X022577Y038572D01*
X022583Y038618D01*
X022593Y038664D01*
X022606Y038708D01*
X022624Y038752D01*
X022645Y038793D01*
X022669Y038833D01*
X022697Y038871D01*
X022728Y038906D01*
X022762Y038938D01*
X022798Y038967D01*
X022837Y038993D01*
X022877Y039016D01*
X022920Y039035D01*
X022964Y039051D01*
X023009Y039063D01*
X023055Y039071D01*
X023102Y039075D01*
X023148Y039075D01*
X023195Y039071D01*
X023241Y039063D01*
X023286Y039051D01*
X023330Y039035D01*
X023373Y039016D01*
X023413Y038993D01*
X023452Y038967D01*
X023488Y038938D01*
X023522Y038906D01*
X023553Y038871D01*
X023581Y038833D01*
X023605Y038793D01*
X023626Y038752D01*
X023644Y038708D01*
X023657Y038664D01*
X023667Y038618D01*
X023673Y038572D01*
X023675Y038525D01*
X023673Y038478D01*
X023667Y038432D01*
X023657Y038386D01*
X023644Y038342D01*
X023626Y038298D01*
X023605Y038257D01*
X023581Y038217D01*
X023553Y038179D01*
X023522Y038144D01*
X023488Y038112D01*
X023452Y038083D01*
X023413Y038057D01*
X023373Y038034D01*
X023330Y038015D01*
X023286Y037999D01*
X023241Y037987D01*
X023195Y037979D01*
X023148Y037975D01*
X023102Y037975D01*
X023055Y037979D01*
X023009Y037987D01*
X022964Y037999D01*
X022920Y038015D01*
X022877Y038034D01*
X022837Y038057D01*
X022798Y038083D01*
X022762Y038112D01*
X022728Y038144D01*
X022697Y038179D01*
X022669Y038217D01*
X022645Y038257D01*
X022624Y038298D01*
X022606Y038342D01*
X022593Y038386D01*
X022583Y038432D01*
X022577Y038478D01*
X022575Y038525D01*
X016575Y038525D02*
X016577Y038572D01*
X016583Y038618D01*
X016593Y038664D01*
X016606Y038708D01*
X016624Y038752D01*
X016645Y038793D01*
X016669Y038833D01*
X016697Y038871D01*
X016728Y038906D01*
X016762Y038938D01*
X016798Y038967D01*
X016837Y038993D01*
X016877Y039016D01*
X016920Y039035D01*
X016964Y039051D01*
X017009Y039063D01*
X017055Y039071D01*
X017102Y039075D01*
X017148Y039075D01*
X017195Y039071D01*
X017241Y039063D01*
X017286Y039051D01*
X017330Y039035D01*
X017373Y039016D01*
X017413Y038993D01*
X017452Y038967D01*
X017488Y038938D01*
X017522Y038906D01*
X017553Y038871D01*
X017581Y038833D01*
X017605Y038793D01*
X017626Y038752D01*
X017644Y038708D01*
X017657Y038664D01*
X017667Y038618D01*
X017673Y038572D01*
X017675Y038525D01*
X017673Y038478D01*
X017667Y038432D01*
X017657Y038386D01*
X017644Y038342D01*
X017626Y038298D01*
X017605Y038257D01*
X017581Y038217D01*
X017553Y038179D01*
X017522Y038144D01*
X017488Y038112D01*
X017452Y038083D01*
X017413Y038057D01*
X017373Y038034D01*
X017330Y038015D01*
X017286Y037999D01*
X017241Y037987D01*
X017195Y037979D01*
X017148Y037975D01*
X017102Y037975D01*
X017055Y037979D01*
X017009Y037987D01*
X016964Y037999D01*
X016920Y038015D01*
X016877Y038034D01*
X016837Y038057D01*
X016798Y038083D01*
X016762Y038112D01*
X016728Y038144D01*
X016697Y038179D01*
X016669Y038217D01*
X016645Y038257D01*
X016624Y038298D01*
X016606Y038342D01*
X016593Y038386D01*
X016583Y038432D01*
X016577Y038478D01*
X016575Y038525D01*
X014575Y038525D02*
X014577Y038572D01*
X014583Y038618D01*
X014593Y038664D01*
X014606Y038708D01*
X014624Y038752D01*
X014645Y038793D01*
X014669Y038833D01*
X014697Y038871D01*
X014728Y038906D01*
X014762Y038938D01*
X014798Y038967D01*
X014837Y038993D01*
X014877Y039016D01*
X014920Y039035D01*
X014964Y039051D01*
X015009Y039063D01*
X015055Y039071D01*
X015102Y039075D01*
X015148Y039075D01*
X015195Y039071D01*
X015241Y039063D01*
X015286Y039051D01*
X015330Y039035D01*
X015373Y039016D01*
X015413Y038993D01*
X015452Y038967D01*
X015488Y038938D01*
X015522Y038906D01*
X015553Y038871D01*
X015581Y038833D01*
X015605Y038793D01*
X015626Y038752D01*
X015644Y038708D01*
X015657Y038664D01*
X015667Y038618D01*
X015673Y038572D01*
X015675Y038525D01*
X015673Y038478D01*
X015667Y038432D01*
X015657Y038386D01*
X015644Y038342D01*
X015626Y038298D01*
X015605Y038257D01*
X015581Y038217D01*
X015553Y038179D01*
X015522Y038144D01*
X015488Y038112D01*
X015452Y038083D01*
X015413Y038057D01*
X015373Y038034D01*
X015330Y038015D01*
X015286Y037999D01*
X015241Y037987D01*
X015195Y037979D01*
X015148Y037975D01*
X015102Y037975D01*
X015055Y037979D01*
X015009Y037987D01*
X014964Y037999D01*
X014920Y038015D01*
X014877Y038034D01*
X014837Y038057D01*
X014798Y038083D01*
X014762Y038112D01*
X014728Y038144D01*
X014697Y038179D01*
X014669Y038217D01*
X014645Y038257D01*
X014624Y038298D01*
X014606Y038342D01*
X014593Y038386D01*
X014583Y038432D01*
X014577Y038478D01*
X014575Y038525D01*
X008575Y038525D02*
X008577Y038572D01*
X008583Y038618D01*
X008593Y038664D01*
X008606Y038708D01*
X008624Y038752D01*
X008645Y038793D01*
X008669Y038833D01*
X008697Y038871D01*
X008728Y038906D01*
X008762Y038938D01*
X008798Y038967D01*
X008837Y038993D01*
X008877Y039016D01*
X008920Y039035D01*
X008964Y039051D01*
X009009Y039063D01*
X009055Y039071D01*
X009102Y039075D01*
X009148Y039075D01*
X009195Y039071D01*
X009241Y039063D01*
X009286Y039051D01*
X009330Y039035D01*
X009373Y039016D01*
X009413Y038993D01*
X009452Y038967D01*
X009488Y038938D01*
X009522Y038906D01*
X009553Y038871D01*
X009581Y038833D01*
X009605Y038793D01*
X009626Y038752D01*
X009644Y038708D01*
X009657Y038664D01*
X009667Y038618D01*
X009673Y038572D01*
X009675Y038525D01*
X009673Y038478D01*
X009667Y038432D01*
X009657Y038386D01*
X009644Y038342D01*
X009626Y038298D01*
X009605Y038257D01*
X009581Y038217D01*
X009553Y038179D01*
X009522Y038144D01*
X009488Y038112D01*
X009452Y038083D01*
X009413Y038057D01*
X009373Y038034D01*
X009330Y038015D01*
X009286Y037999D01*
X009241Y037987D01*
X009195Y037979D01*
X009148Y037975D01*
X009102Y037975D01*
X009055Y037979D01*
X009009Y037987D01*
X008964Y037999D01*
X008920Y038015D01*
X008877Y038034D01*
X008837Y038057D01*
X008798Y038083D01*
X008762Y038112D01*
X008728Y038144D01*
X008697Y038179D01*
X008669Y038217D01*
X008645Y038257D01*
X008624Y038298D01*
X008606Y038342D01*
X008593Y038386D01*
X008583Y038432D01*
X008577Y038478D01*
X008575Y038525D01*
X012128Y033535D02*
X012129Y033535D01*
X012133Y033532D01*
X012135Y033532D02*
X012142Y033532D01*
X012142Y033530D02*
X012142Y033534D01*
X012140Y033535D01*
X012137Y033535D01*
X012135Y033534D01*
X012135Y033532D01*
X012137Y033529D02*
X012140Y033529D01*
X012142Y033530D01*
X012144Y033530D02*
X012146Y033529D01*
X012151Y033529D01*
X012154Y033529D02*
X012157Y033529D01*
X012156Y033529D02*
X012156Y033535D01*
X012157Y033535D01*
X012160Y033535D02*
X012160Y033530D01*
X012161Y033529D01*
X012163Y033530D01*
X012165Y033529D01*
X012166Y033530D01*
X012166Y033535D01*
X012156Y033539D02*
X012156Y033540D01*
X012151Y033535D02*
X012146Y033535D01*
X012144Y033534D01*
X012144Y033530D01*
X012151Y033525D02*
X012151Y033535D01*
X012133Y033529D02*
X012133Y033535D01*
X008245Y032625D02*
X008247Y032675D01*
X008253Y032725D01*
X008263Y032774D01*
X008277Y032822D01*
X008294Y032869D01*
X008315Y032914D01*
X008340Y032958D01*
X008368Y032999D01*
X008400Y033038D01*
X008434Y033075D01*
X008471Y033109D01*
X008511Y033139D01*
X008553Y033166D01*
X008597Y033190D01*
X008643Y033211D01*
X008690Y033227D01*
X008738Y033240D01*
X008788Y033249D01*
X008837Y033254D01*
X008888Y033255D01*
X008938Y033252D01*
X008987Y033245D01*
X009036Y033234D01*
X009084Y033219D01*
X009130Y033201D01*
X009175Y033179D01*
X009218Y033153D01*
X009259Y033124D01*
X009298Y033092D01*
X009334Y033057D01*
X009366Y033019D01*
X009396Y032979D01*
X009423Y032936D01*
X009446Y032892D01*
X009465Y032846D01*
X009481Y032798D01*
X009493Y032749D01*
X009501Y032700D01*
X009505Y032650D01*
X009505Y032600D01*
X009501Y032550D01*
X009493Y032501D01*
X009481Y032452D01*
X009465Y032404D01*
X009446Y032358D01*
X009423Y032314D01*
X009396Y032271D01*
X009366Y032231D01*
X009334Y032193D01*
X009298Y032158D01*
X009259Y032126D01*
X009218Y032097D01*
X009175Y032071D01*
X009130Y032049D01*
X009084Y032031D01*
X009036Y032016D01*
X008987Y032005D01*
X008938Y031998D01*
X008888Y031995D01*
X008837Y031996D01*
X008788Y032001D01*
X008738Y032010D01*
X008690Y032023D01*
X008643Y032039D01*
X008597Y032060D01*
X008553Y032084D01*
X008511Y032111D01*
X008471Y032141D01*
X008434Y032175D01*
X008400Y032212D01*
X008368Y032251D01*
X008340Y032292D01*
X008315Y032336D01*
X008294Y032381D01*
X008277Y032428D01*
X008263Y032476D01*
X008253Y032525D01*
X008247Y032575D01*
X008245Y032625D01*
D11*
X010798Y033150D02*
X011098Y033150D01*
X010948Y033150D02*
X010948Y032700D01*
X011258Y032775D02*
X011258Y033075D01*
X011333Y033150D01*
X011483Y033150D01*
X011558Y033075D01*
X011558Y032775D01*
X011483Y032700D01*
X011333Y032700D01*
X011258Y032775D01*
X011719Y032925D02*
X011794Y032850D01*
X012019Y032850D01*
X012019Y032700D02*
X012019Y033150D01*
X011794Y033150D01*
X011719Y033075D01*
X011719Y032925D01*
X012179Y032700D02*
X012404Y032925D01*
X012479Y032850D02*
X012179Y033150D01*
X012479Y033150D02*
X012479Y032700D01*
X012639Y032775D02*
X012714Y032700D01*
X012865Y032700D01*
X012940Y032775D01*
X012639Y033075D01*
X012639Y032775D01*
X012639Y033075D02*
X012714Y033150D01*
X012865Y033150D01*
X012940Y033075D01*
X012940Y032775D01*
X013100Y032700D02*
X013400Y032700D01*
X013250Y032700D02*
X013250Y033150D01*
X013400Y033000D01*
X013625Y034175D02*
X013625Y031375D01*
X010625Y031375D01*
X010625Y034175D01*
X013625Y034175D01*
X013625Y034275D02*
X010625Y034275D01*
X022308Y033425D02*
X022534Y033275D01*
X022308Y033125D01*
X022534Y033125D02*
X022534Y033575D01*
X022694Y033500D02*
X022994Y033200D01*
X022919Y033125D01*
X022769Y033125D01*
X022694Y033200D01*
X022694Y033500D01*
X022769Y033575D01*
X022919Y033575D01*
X022994Y033500D01*
X022994Y033200D01*
X023154Y033125D02*
X023454Y033125D01*
X023304Y033125D02*
X023304Y033575D01*
X023454Y033425D01*
X023675Y033025D02*
X022575Y033025D01*
X022575Y032525D01*
X023675Y032525D01*
X023675Y033025D01*
X023675Y031025D02*
X022575Y031025D01*
X022575Y030525D01*
X023675Y030525D01*
X023675Y031025D01*
X023704Y030375D02*
X023704Y029925D01*
X023854Y029925D02*
X023554Y029925D01*
X023394Y030000D02*
X023094Y030300D01*
X023094Y030000D01*
X023169Y029925D01*
X023319Y029925D01*
X023394Y030000D01*
X023394Y030300D01*
X023319Y030375D01*
X023169Y030375D01*
X023094Y030300D01*
X022934Y030375D02*
X022934Y029925D01*
X022934Y030075D02*
X022708Y030225D01*
X022934Y030075D02*
X022708Y029925D01*
X023704Y030375D02*
X023854Y030225D01*
X023675Y026525D02*
X022575Y026525D01*
X022575Y026025D01*
X023675Y026025D01*
X023675Y026525D01*
X023804Y025875D02*
X023804Y025425D01*
X023954Y025425D02*
X023654Y025425D01*
X023494Y025500D02*
X023419Y025425D01*
X023269Y025425D01*
X023194Y025500D01*
X023194Y025800D01*
X023494Y025500D01*
X023494Y025800D01*
X023419Y025875D01*
X023269Y025875D01*
X023194Y025800D01*
X023034Y025875D02*
X023034Y025425D01*
X023034Y025575D02*
X022808Y025425D01*
X023034Y025575D02*
X022808Y025725D01*
X023804Y025875D02*
X023954Y025725D01*
X025285Y023375D02*
X025210Y023300D01*
X025510Y023000D01*
X025435Y022925D01*
X025285Y022925D01*
X025210Y023000D01*
X025210Y023300D01*
X025285Y023375D02*
X025435Y023375D01*
X025510Y023300D01*
X025510Y023000D01*
X025671Y023000D02*
X025746Y022925D01*
X025896Y022925D01*
X025971Y023000D01*
X026131Y023000D02*
X026206Y022925D01*
X026356Y022925D01*
X026431Y023000D01*
X026281Y023150D02*
X026206Y023150D01*
X026131Y023075D01*
X026131Y023000D01*
X026206Y023150D02*
X026131Y023225D01*
X026131Y023300D01*
X026206Y023375D01*
X026356Y023375D01*
X026431Y023300D01*
X025971Y023300D02*
X025896Y023375D01*
X025746Y023375D01*
X025671Y023300D01*
X025671Y023225D01*
X025746Y023150D01*
X025671Y023075D01*
X025671Y023000D01*
X025746Y023150D02*
X025821Y023150D01*
X025552Y022250D02*
X025402Y022250D01*
X025327Y022175D01*
X025167Y022175D02*
X025167Y021875D01*
X025092Y021800D01*
X024942Y021800D01*
X024867Y021875D01*
X024867Y022175D01*
X024942Y022250D01*
X025092Y022250D01*
X025167Y022175D01*
X025327Y021950D02*
X025327Y021875D01*
X025402Y021800D01*
X025552Y021800D01*
X025627Y021875D01*
X025552Y022025D02*
X025402Y022025D01*
X025327Y021950D01*
X025552Y022025D02*
X025627Y022100D01*
X025627Y022175D01*
X025552Y022250D01*
X025787Y021725D02*
X026088Y021725D01*
X026548Y021800D02*
X026548Y021875D01*
X026248Y022175D01*
X026248Y022250D01*
X026548Y022250D01*
X026708Y022175D02*
X027008Y021875D01*
X026933Y021800D01*
X026783Y021800D01*
X026708Y021875D01*
X026708Y022175D01*
X026783Y022250D01*
X026933Y022250D01*
X027008Y022175D01*
X027008Y021875D01*
X027169Y021875D02*
X027244Y021800D01*
X027394Y021800D01*
X027469Y021875D01*
X027629Y021800D02*
X027929Y021800D01*
X027779Y021800D02*
X027779Y022250D01*
X027929Y022100D01*
X028089Y022175D02*
X028164Y022250D01*
X028315Y022250D01*
X028390Y022175D01*
X028390Y022100D01*
X028315Y022025D01*
X028164Y022025D01*
X028089Y021950D01*
X028089Y021875D01*
X028164Y021800D01*
X028315Y021800D01*
X028390Y021875D01*
X028550Y021875D02*
X028550Y022175D01*
X028625Y022250D01*
X028850Y022250D01*
X028850Y021800D01*
X028625Y021800D01*
X028550Y021875D01*
X027469Y022175D02*
X027394Y022250D01*
X027244Y022250D01*
X027169Y022175D01*
X027169Y022100D01*
X027244Y022025D01*
X027169Y021950D01*
X027169Y021875D01*
X027244Y022025D02*
X027319Y022025D01*
X026575Y021025D02*
X026575Y019525D01*
X024675Y019525D01*
X024675Y021025D01*
X026575Y021025D01*
X026350Y020750D02*
X026350Y020375D01*
X026275Y020300D01*
X026125Y020300D01*
X026050Y020375D01*
X026050Y020750D01*
X025890Y020675D02*
X025815Y020750D01*
X025664Y020750D01*
X025589Y020675D01*
X025589Y020600D01*
X025890Y020300D01*
X025589Y020300D01*
X026695Y019525D02*
X026697Y019551D01*
X026703Y019577D01*
X026712Y019601D01*
X026725Y019624D01*
X026741Y019645D01*
X026760Y019663D01*
X026781Y019679D01*
X026805Y019691D01*
X026829Y019699D01*
X026855Y019704D01*
X026882Y019705D01*
X026908Y019702D01*
X026933Y019695D01*
X026957Y019685D01*
X026980Y019671D01*
X027000Y019655D01*
X027017Y019635D01*
X027032Y019613D01*
X027043Y019589D01*
X027051Y019564D01*
X027055Y019538D01*
X027055Y019512D01*
X027051Y019486D01*
X027043Y019461D01*
X027032Y019437D01*
X027017Y019415D01*
X027000Y019395D01*
X026980Y019379D01*
X026957Y019365D01*
X026933Y019355D01*
X026908Y019348D01*
X026882Y019345D01*
X026855Y019346D01*
X026829Y019351D01*
X026805Y019359D01*
X026781Y019371D01*
X026760Y019387D01*
X026741Y019405D01*
X026725Y019426D01*
X026712Y019449D01*
X026703Y019473D01*
X026697Y019499D01*
X026695Y019525D01*
X024706Y021800D02*
X024706Y022250D01*
X024481Y022250D01*
X024406Y022175D01*
X024406Y022025D01*
X024481Y021950D01*
X024706Y021950D01*
X024246Y021875D02*
X023946Y022175D01*
X023946Y021875D01*
X024021Y021800D01*
X024171Y021800D01*
X024246Y021875D01*
X024246Y022175D01*
X024171Y022250D01*
X024021Y022250D01*
X023946Y022175D01*
X023786Y022175D02*
X023786Y022100D01*
X023711Y022025D01*
X023560Y022025D01*
X023485Y021950D01*
X023485Y021875D01*
X023560Y021800D01*
X023711Y021800D01*
X023786Y021875D01*
X023786Y021950D01*
X023711Y022025D01*
X023560Y022025D02*
X023485Y022100D01*
X023485Y022175D01*
X023560Y022250D01*
X023711Y022250D01*
X023786Y022175D01*
X022275Y022637D02*
X022275Y021062D01*
X021487Y021062D01*
X021487Y021850D02*
X021487Y022637D01*
X022275Y022637D01*
X021487Y019488D02*
X021454Y019395D01*
X021417Y019303D01*
X021377Y019213D01*
X021333Y019124D01*
X021286Y019038D01*
X021235Y018953D01*
X021181Y018870D01*
X021124Y018790D01*
X021063Y018712D01*
X021000Y018636D01*
X020933Y018563D01*
X020864Y018493D01*
X020792Y018425D01*
X020717Y018361D01*
X020640Y018299D01*
X020561Y018241D01*
X020479Y018185D01*
X020395Y018133D01*
X020309Y018085D01*
X020221Y018039D01*
X020132Y017998D01*
X020041Y017960D01*
X019948Y017925D01*
X019855Y017894D01*
X019760Y017867D01*
X019664Y017844D01*
X019567Y017825D01*
X019469Y017809D01*
X019371Y017797D01*
X019273Y017789D01*
X019174Y017785D01*
X019076Y017785D01*
X018977Y017789D01*
X018879Y017797D01*
X018781Y017809D01*
X018683Y017825D01*
X018586Y017844D01*
X018490Y017867D01*
X018395Y017894D01*
X018302Y017925D01*
X018209Y017960D01*
X018118Y017998D01*
X018029Y018039D01*
X017941Y018085D01*
X017855Y018133D01*
X017771Y018185D01*
X017689Y018241D01*
X017610Y018299D01*
X017533Y018361D01*
X017458Y018425D01*
X017386Y018493D01*
X017317Y018563D01*
X017250Y018636D01*
X017187Y018712D01*
X017126Y018790D01*
X017069Y018870D01*
X017015Y018953D01*
X016964Y019038D01*
X016917Y019124D01*
X016873Y019213D01*
X016833Y019303D01*
X016796Y019395D01*
X016763Y019488D01*
X016369Y019488D01*
X016369Y021062D02*
X016763Y021062D01*
X016369Y019487D02*
X016400Y019385D01*
X016435Y019285D01*
X016474Y019186D01*
X016516Y019088D01*
X016562Y018993D01*
X016612Y018898D01*
X016665Y018806D01*
X016722Y018716D01*
X016782Y018628D01*
X016845Y018542D01*
X016911Y018459D01*
X016980Y018378D01*
X017053Y018300D01*
X017128Y018225D01*
X017206Y018153D01*
X017286Y018083D01*
X017369Y018017D01*
X017455Y017953D01*
X017543Y017893D01*
X017633Y017836D01*
X017725Y017783D01*
X017819Y017733D01*
X017914Y017687D01*
X018012Y017644D01*
X018111Y017605D01*
X018211Y017569D01*
X018313Y017538D01*
X018415Y017510D01*
X018519Y017486D01*
X018624Y017466D01*
X018729Y017450D01*
X018835Y017437D01*
X018941Y017429D01*
X019047Y017425D01*
X019153Y017424D01*
X019260Y017428D01*
X019366Y017435D01*
X019472Y017447D01*
X019577Y017462D01*
X019682Y017482D01*
X019785Y017505D01*
X019888Y017532D01*
X019990Y017563D01*
X020091Y017598D01*
X020190Y017636D01*
X020288Y017678D01*
X020384Y017724D01*
X020478Y017773D01*
X020570Y017826D01*
X020661Y017882D01*
X020749Y017942D01*
X020835Y018005D01*
X020919Y018070D01*
X021000Y018139D01*
X021078Y018211D01*
X021154Y018286D01*
X021226Y018364D01*
X021296Y018444D01*
X021363Y018527D01*
X021427Y018612D01*
X021487Y018700D01*
X021487Y017913D01*
X022275Y017913D01*
X022275Y019488D01*
X021487Y019488D01*
X021487Y021062D02*
X021454Y021155D01*
X021417Y021247D01*
X021377Y021337D01*
X021333Y021426D01*
X021286Y021512D01*
X021235Y021597D01*
X021181Y021680D01*
X021124Y021760D01*
X021063Y021838D01*
X021000Y021914D01*
X020933Y021987D01*
X020864Y022057D01*
X020792Y022125D01*
X020717Y022189D01*
X020640Y022251D01*
X020561Y022309D01*
X020479Y022365D01*
X020395Y022417D01*
X020309Y022465D01*
X020221Y022511D01*
X020132Y022552D01*
X020041Y022590D01*
X019948Y022625D01*
X019855Y022656D01*
X019760Y022683D01*
X019664Y022706D01*
X019567Y022725D01*
X019469Y022741D01*
X019371Y022753D01*
X019273Y022761D01*
X019174Y022765D01*
X019076Y022765D01*
X018977Y022761D01*
X018879Y022753D01*
X018781Y022741D01*
X018683Y022725D01*
X018586Y022706D01*
X018490Y022683D01*
X018395Y022656D01*
X018302Y022625D01*
X018209Y022590D01*
X018118Y022552D01*
X018029Y022511D01*
X017941Y022465D01*
X017855Y022417D01*
X017771Y022365D01*
X017689Y022309D01*
X017610Y022251D01*
X017533Y022189D01*
X017458Y022125D01*
X017386Y022057D01*
X017317Y021987D01*
X017250Y021914D01*
X017187Y021838D01*
X017126Y021760D01*
X017069Y021680D01*
X017015Y021597D01*
X016964Y021512D01*
X016917Y021426D01*
X016873Y021337D01*
X016833Y021247D01*
X016796Y021155D01*
X016763Y021062D01*
X016369Y021063D02*
X016400Y021165D01*
X016435Y021265D01*
X016474Y021364D01*
X016516Y021462D01*
X016562Y021557D01*
X016612Y021652D01*
X016665Y021744D01*
X016722Y021834D01*
X016782Y021922D01*
X016845Y022008D01*
X016911Y022091D01*
X016980Y022172D01*
X017053Y022250D01*
X017128Y022325D01*
X017206Y022397D01*
X017286Y022467D01*
X017369Y022533D01*
X017455Y022597D01*
X017543Y022657D01*
X017633Y022714D01*
X017725Y022767D01*
X017819Y022817D01*
X017914Y022863D01*
X018012Y022906D01*
X018111Y022945D01*
X018211Y022981D01*
X018313Y023012D01*
X018415Y023040D01*
X018519Y023064D01*
X018624Y023084D01*
X018729Y023100D01*
X018835Y023113D01*
X018941Y023121D01*
X019047Y023125D01*
X019153Y023126D01*
X019260Y023122D01*
X019366Y023115D01*
X019472Y023103D01*
X019577Y023088D01*
X019682Y023068D01*
X019785Y023045D01*
X019888Y023018D01*
X019990Y022987D01*
X020091Y022952D01*
X020190Y022914D01*
X020288Y022872D01*
X020384Y022826D01*
X020478Y022777D01*
X020570Y022724D01*
X020661Y022668D01*
X020749Y022608D01*
X020835Y022545D01*
X020919Y022480D01*
X021000Y022411D01*
X021078Y022339D01*
X021154Y022264D01*
X021226Y022186D01*
X021296Y022106D01*
X021363Y022023D01*
X021427Y021938D01*
X021487Y021850D01*
X027710Y023000D02*
X027785Y022925D01*
X027935Y022925D01*
X028010Y023000D01*
X027710Y023300D01*
X027710Y023000D01*
X027710Y023300D02*
X027785Y023375D01*
X027935Y023375D01*
X028010Y023300D01*
X028010Y023000D01*
X028171Y023000D02*
X028246Y022925D01*
X028396Y022925D01*
X028471Y023000D01*
X028631Y023000D02*
X028706Y022925D01*
X028856Y022925D01*
X028931Y023000D01*
X028781Y023150D02*
X028706Y023150D01*
X028631Y023075D01*
X028631Y023000D01*
X028706Y023150D02*
X028631Y023225D01*
X028631Y023300D01*
X028706Y023375D01*
X028856Y023375D01*
X028931Y023300D01*
X028471Y023300D02*
X028396Y023375D01*
X028246Y023375D01*
X028171Y023300D01*
X028171Y023225D01*
X028246Y023150D01*
X028171Y023075D01*
X028171Y023000D01*
X028246Y023150D02*
X028321Y023150D01*
X032010Y024200D02*
X032310Y024200D01*
X032160Y024200D02*
X032160Y024650D01*
X032310Y024500D01*
X032471Y024575D02*
X032471Y024275D01*
X032546Y024200D01*
X032696Y024200D01*
X032771Y024275D01*
X032771Y024575D01*
X032696Y024650D01*
X032546Y024650D01*
X032471Y024575D01*
X032621Y024350D02*
X032471Y024200D01*
X038160Y027150D02*
X038460Y027150D01*
X038160Y027450D01*
X038160Y027525D01*
X038235Y027600D01*
X038385Y027600D01*
X038460Y027525D01*
X038621Y027525D02*
X038696Y027600D01*
X038846Y027600D01*
X038921Y027525D01*
X038921Y027225D01*
X038846Y027150D01*
X038696Y027150D01*
X038621Y027225D01*
X039078Y027150D02*
X039228Y027150D01*
X039153Y027150D02*
X039153Y027600D01*
X039228Y027600D02*
X039078Y027600D01*
X040419Y027175D02*
X040719Y027175D01*
X040719Y026725D01*
X040879Y026725D02*
X040879Y027025D01*
X040719Y026950D02*
X040569Y026950D01*
X040879Y026725D02*
X041104Y026725D01*
X041179Y026800D01*
X041179Y027025D01*
X041339Y027100D02*
X041640Y026800D01*
X041565Y026725D01*
X041414Y026725D01*
X041339Y026800D01*
X041339Y027100D01*
X041414Y027175D01*
X041565Y027175D01*
X041640Y027100D01*
X041640Y026800D01*
X041800Y026725D02*
X042100Y026725D01*
X041950Y026725D02*
X041950Y027175D01*
X042100Y027025D01*
X042291Y023825D02*
X042291Y023375D01*
X042141Y023375D02*
X042442Y023375D01*
X042442Y023675D02*
X042291Y023825D01*
X041981Y023750D02*
X041906Y023825D01*
X041756Y023825D01*
X041681Y023750D01*
X041981Y023450D01*
X041906Y023375D01*
X041756Y023375D01*
X041681Y023450D01*
X041681Y023750D01*
X041521Y023675D02*
X041521Y023450D01*
X041446Y023375D01*
X041221Y023375D01*
X041221Y023675D01*
X041060Y023600D02*
X040910Y023600D01*
X041060Y023375D02*
X041060Y023825D01*
X040760Y023825D01*
X041981Y023750D02*
X041981Y023450D01*
D12*
X036125Y033275D03*
X028125Y023775D03*
X025625Y023775D03*
D13*
X025572Y024255D02*
X025719Y024402D01*
X025646Y024402D02*
X025866Y024402D01*
X025866Y024255D02*
X025866Y024695D01*
X025646Y024695D01*
X025572Y024622D01*
X025572Y024475D01*
X025646Y024402D01*
X025405Y024475D02*
X025405Y024695D01*
X025112Y024695D01*
X025185Y024549D02*
X025112Y024475D01*
X025112Y024328D01*
X025185Y024255D01*
X025332Y024255D01*
X025405Y024328D01*
X025405Y024475D02*
X025259Y024549D01*
X025185Y024549D01*
X024495Y026105D02*
X024495Y026545D01*
X024275Y026545D01*
X024201Y026472D01*
X024201Y026325D01*
X024275Y026252D01*
X024495Y026252D01*
X024348Y026252D02*
X024201Y026105D01*
X024035Y026178D02*
X023961Y026105D01*
X023814Y026105D01*
X023741Y026178D01*
X023741Y026252D01*
X023814Y026325D01*
X023888Y026325D01*
X023814Y026325D02*
X023741Y026399D01*
X023741Y026472D01*
X023814Y026545D01*
X023961Y026545D01*
X024035Y026472D01*
X027612Y024775D02*
X027905Y024775D01*
X027685Y024995D01*
X027685Y024555D01*
X028072Y024555D02*
X028219Y024702D01*
X028146Y024702D02*
X028366Y024702D01*
X028366Y024555D02*
X028366Y024995D01*
X028146Y024995D01*
X028072Y024922D01*
X028072Y024775D01*
X028146Y024702D01*
X031875Y024925D02*
X031875Y025325D01*
X031875Y024925D02*
X031877Y024908D01*
X031881Y024891D01*
X031888Y024875D01*
X031898Y024861D01*
X031911Y024848D01*
X031925Y024838D01*
X031941Y024831D01*
X031958Y024827D01*
X031975Y024825D01*
X036275Y024825D01*
X036292Y024827D01*
X036309Y024831D01*
X036325Y024838D01*
X036339Y024848D01*
X036352Y024861D01*
X036362Y024875D01*
X036369Y024891D01*
X036373Y024908D01*
X036375Y024925D01*
X036375Y025325D01*
X036375Y026225D02*
X036375Y026625D01*
X036373Y026642D01*
X036369Y026659D01*
X036362Y026675D01*
X036352Y026689D01*
X036339Y026702D01*
X036325Y026712D01*
X036309Y026719D01*
X036292Y026723D01*
X036275Y026725D01*
X031975Y026725D01*
X031958Y026723D01*
X031941Y026719D01*
X031925Y026712D01*
X031911Y026702D01*
X031898Y026689D01*
X031888Y026675D01*
X031881Y026659D01*
X031877Y026642D01*
X031875Y026625D01*
X031875Y026225D01*
X033875Y026025D02*
X033875Y025775D01*
X033875Y025525D01*
X034025Y025525D02*
X034225Y025525D01*
X034225Y026025D01*
X034025Y026025D01*
X034025Y025525D01*
X034375Y025525D02*
X034375Y025775D01*
X034375Y026025D01*
X037855Y027925D02*
X037855Y031625D01*
X037857Y031648D01*
X037862Y031671D01*
X037871Y031693D01*
X037884Y031713D01*
X037899Y031731D01*
X037917Y031746D01*
X037937Y031759D01*
X037959Y031768D01*
X037982Y031773D01*
X038005Y031775D01*
X039245Y031775D01*
X039268Y031773D01*
X039291Y031768D01*
X039313Y031759D01*
X039333Y031746D01*
X039351Y031731D01*
X039366Y031713D01*
X039379Y031693D01*
X039388Y031671D01*
X039393Y031648D01*
X039395Y031625D01*
X039395Y027925D01*
X039393Y027902D01*
X039388Y027879D01*
X039379Y027857D01*
X039366Y027837D01*
X039351Y027819D01*
X039333Y027804D01*
X039313Y027791D01*
X039291Y027782D01*
X039268Y027777D01*
X039245Y027775D01*
X038825Y027775D01*
X038425Y027775D01*
X038005Y027775D01*
X037982Y027777D01*
X037959Y027782D01*
X037937Y027791D01*
X037917Y027804D01*
X037899Y027819D01*
X037884Y027837D01*
X037871Y027857D01*
X037862Y027879D01*
X037857Y027902D01*
X037855Y027925D01*
X038425Y027775D02*
X038427Y027802D01*
X038432Y027829D01*
X038442Y027855D01*
X038454Y027879D01*
X038470Y027901D01*
X038488Y027921D01*
X038510Y027938D01*
X038533Y027953D01*
X038558Y027963D01*
X038584Y027971D01*
X038611Y027975D01*
X038639Y027975D01*
X038666Y027971D01*
X038692Y027963D01*
X038717Y027953D01*
X038740Y027938D01*
X038762Y027921D01*
X038780Y027901D01*
X038796Y027879D01*
X038808Y027855D01*
X038818Y027829D01*
X038823Y027802D01*
X038825Y027775D01*
X041438Y025895D02*
X041438Y025455D01*
X041585Y025455D02*
X041291Y025455D01*
X041385Y025195D02*
X041312Y025122D01*
X041312Y025049D01*
X041385Y024975D01*
X041312Y024902D01*
X041312Y024828D01*
X041385Y024755D01*
X041532Y024755D01*
X041605Y024828D01*
X041772Y024828D02*
X041846Y024755D01*
X041992Y024755D01*
X042066Y024828D01*
X042066Y025122D01*
X041992Y025195D01*
X041846Y025195D01*
X041772Y025122D01*
X041605Y025122D02*
X041532Y025195D01*
X041385Y025195D01*
X041385Y024975D02*
X041459Y024975D01*
X041825Y025455D02*
X041751Y025528D01*
X041825Y025455D02*
X041972Y025455D01*
X042045Y025528D01*
X042045Y025822D01*
X041972Y025895D01*
X041825Y025895D01*
X041751Y025822D01*
X041585Y025749D02*
X041438Y025895D01*
X024816Y030505D02*
X024816Y030945D01*
X024596Y030945D01*
X024522Y030872D01*
X024522Y030725D01*
X024596Y030652D01*
X024816Y030652D01*
X024669Y030652D02*
X024522Y030505D01*
X024355Y030505D02*
X024062Y030505D01*
X024209Y030505D02*
X024209Y030945D01*
X024355Y030799D01*
X024322Y032505D02*
X024469Y032652D01*
X024396Y032652D02*
X024616Y032652D01*
X024616Y032505D02*
X024616Y032945D01*
X024396Y032945D01*
X024322Y032872D01*
X024322Y032725D01*
X024396Y032652D01*
X024155Y032505D02*
X023862Y032799D01*
X023862Y032872D01*
X023935Y032945D01*
X024082Y032945D01*
X024155Y032872D01*
X024155Y032505D02*
X023862Y032505D01*
X012425Y033475D02*
X012325Y033475D01*
X012425Y033475D02*
X012425Y033575D01*
X012425Y033975D02*
X012425Y034075D01*
X012325Y034075D01*
X011925Y034075D02*
X011825Y034075D01*
X011825Y033975D01*
X011825Y033575D02*
X011825Y033475D01*
X011925Y033475D01*
D14*
X026235Y030507D02*
X026235Y027043D01*
X026393Y026885D01*
X029857Y026885D01*
X030015Y027043D01*
X030015Y030507D01*
X029857Y030665D01*
X026393Y030665D01*
X026235Y030507D01*
X033836Y039419D02*
X033836Y041131D01*
X038414Y041131D01*
X038414Y039419D01*
X033836Y039419D01*
X043925Y026565D02*
X043925Y023985D01*
X045325Y023985D01*
X045325Y026565D01*
X043925Y026565D01*
D15*
X037524Y038610D02*
X037524Y039241D01*
X037208Y039241D01*
X037103Y039135D01*
X037103Y038925D01*
X037208Y038820D01*
X037524Y038820D01*
X036879Y038610D02*
X036879Y039241D01*
X036459Y039241D02*
X036459Y038610D01*
X036669Y038820D01*
X036879Y038610D01*
X036235Y038610D02*
X036235Y039241D01*
X035919Y039241D01*
X035814Y039135D01*
X035814Y038925D01*
X035919Y038820D01*
X036235Y038820D01*
X036024Y038820D02*
X035814Y038610D01*
D16*
X037812Y038069D02*
X037889Y038146D01*
X038196Y038146D01*
X038273Y038069D01*
X038273Y037839D01*
X037812Y037839D01*
X037812Y038069D01*
X037889Y037685D02*
X037812Y037608D01*
X037812Y037455D01*
X037889Y037378D01*
X038043Y037455D02*
X038043Y037608D01*
X037966Y037685D01*
X037889Y037685D01*
X038043Y037455D02*
X038119Y037378D01*
X038196Y037378D01*
X038273Y037455D01*
X038273Y037608D01*
X038196Y037685D01*
X037736Y037225D02*
X037736Y036918D01*
X037889Y036764D02*
X038196Y036764D01*
X038273Y036688D01*
X038273Y036534D01*
X038196Y036458D01*
X037889Y036458D01*
X037812Y036534D01*
X037812Y036688D01*
X037889Y036764D01*
X037812Y036304D02*
X037966Y036151D01*
X037966Y036227D02*
X037966Y035997D01*
X037812Y035997D02*
X038273Y035997D01*
X038273Y036227D01*
X038196Y036304D01*
X038043Y036304D01*
X037966Y036227D01*
X037889Y035844D02*
X037812Y035767D01*
X037812Y035613D01*
X037889Y035537D01*
X038196Y035537D01*
X038273Y035613D01*
X038273Y035767D01*
X038196Y035844D01*
X038273Y035383D02*
X038273Y035230D01*
X038273Y035307D02*
X037812Y035307D01*
X037812Y035383D02*
X037812Y035230D01*
X037812Y035076D02*
X038273Y035076D01*
X038119Y034923D01*
X038273Y034769D01*
X037812Y034769D01*
X037505Y034922D02*
X037198Y035229D01*
X037198Y034922D01*
X037275Y034845D01*
X037428Y034845D01*
X037505Y034922D01*
X037505Y035229D01*
X037428Y035305D01*
X037275Y035305D01*
X037198Y035229D01*
X037045Y034922D02*
X036968Y034922D01*
X036968Y034845D01*
X037045Y034845D01*
X037045Y034922D01*
X036814Y034845D02*
X036507Y034845D01*
X036661Y034845D02*
X036661Y035305D01*
X036814Y035152D01*
X036354Y035152D02*
X036354Y034922D01*
X036277Y034845D01*
X036047Y034845D01*
X036047Y035152D01*
X035894Y035075D02*
X035740Y035075D01*
X035894Y034845D02*
X035894Y035305D01*
X035587Y035305D01*
X036264Y036095D02*
X036188Y036172D01*
X036188Y036248D01*
X036264Y036325D01*
X036495Y036325D01*
X036495Y036172D01*
X036418Y036095D01*
X036264Y036095D01*
X036495Y036325D02*
X036341Y036479D01*
X036188Y036555D01*
X036648Y036479D02*
X036725Y036555D01*
X036878Y036555D01*
X036955Y036479D01*
X036955Y036172D01*
X036878Y036095D01*
X036725Y036095D01*
X036648Y036172D01*
X036908Y033455D02*
X037062Y033379D01*
X037215Y033225D01*
X036985Y033225D01*
X036908Y033148D01*
X036908Y033072D01*
X036985Y032995D01*
X037139Y032995D01*
X037215Y033072D01*
X037215Y033225D01*
X037369Y033225D02*
X037446Y033148D01*
X037676Y033148D01*
X037676Y032995D02*
X037676Y033455D01*
X037446Y033455D01*
X037369Y033379D01*
X037369Y033225D01*
X037522Y033148D02*
X037369Y032995D01*
X035286Y033045D02*
X034979Y033045D01*
X035133Y033045D02*
X035133Y033505D01*
X035286Y033352D01*
X034826Y033429D02*
X034749Y033505D01*
X034596Y033505D01*
X034519Y033429D01*
X034826Y033122D01*
X034749Y033045D01*
X034596Y033045D01*
X034519Y033122D01*
X034519Y033429D01*
X034365Y033505D02*
X034365Y033045D01*
X034365Y033198D02*
X034058Y033505D01*
X034289Y033275D02*
X034058Y033045D01*
X034826Y033122D02*
X034826Y033429D01*
X028605Y032505D02*
X028452Y032505D01*
X028528Y032505D02*
X028528Y032045D01*
X028452Y032045D02*
X028605Y032045D01*
X028298Y032122D02*
X028221Y032045D01*
X028068Y032045D01*
X027991Y032122D01*
X027838Y032122D02*
X027761Y032045D01*
X027607Y032045D01*
X027531Y032122D01*
X027531Y032198D01*
X027607Y032275D01*
X027684Y032275D01*
X027607Y032275D02*
X027531Y032352D01*
X027531Y032429D01*
X027607Y032505D01*
X027761Y032505D01*
X027838Y032429D01*
X027991Y032429D02*
X028068Y032505D01*
X028221Y032505D01*
X028298Y032429D01*
X028298Y032122D01*
X023877Y028229D02*
X023800Y028305D01*
X023647Y028305D01*
X023570Y028229D01*
X023877Y027922D01*
X023800Y027845D01*
X023647Y027845D01*
X023570Y027922D01*
X023570Y028229D01*
X023877Y028229D02*
X023877Y027922D01*
X023416Y027922D02*
X023340Y027922D01*
X023340Y027845D01*
X023416Y027845D01*
X023416Y027922D01*
X023186Y027845D02*
X022879Y027845D01*
X023033Y027845D02*
X023033Y028305D01*
X023186Y028152D01*
X022726Y028152D02*
X022726Y027922D01*
X022649Y027845D01*
X022419Y027845D01*
X022419Y028152D01*
X022265Y028075D02*
X022112Y028075D01*
X022265Y027845D02*
X022265Y028305D01*
X021958Y028305D01*
X022025Y028495D02*
X021948Y028572D01*
X022025Y028495D02*
X022178Y028495D01*
X022255Y028572D01*
X022255Y028879D01*
X022178Y028955D01*
X022025Y028955D01*
X021948Y028879D01*
X021795Y028879D02*
X021795Y028802D01*
X021718Y028725D01*
X021488Y028725D01*
X021488Y028572D02*
X021488Y028879D01*
X021564Y028955D01*
X021718Y028955D01*
X021795Y028879D01*
X021795Y028572D02*
X021718Y028495D01*
X021564Y028495D01*
X021488Y028572D01*
X029387Y023005D02*
X029694Y023005D01*
X029694Y022545D01*
X029847Y022545D02*
X029847Y022852D01*
X029694Y022775D02*
X029540Y022775D01*
X029847Y022545D02*
X030077Y022545D01*
X030154Y022622D01*
X030154Y022852D01*
X030461Y023005D02*
X030461Y022545D01*
X030614Y022545D02*
X030307Y022545D01*
X030614Y022852D02*
X030461Y023005D01*
X030768Y022622D02*
X030768Y022545D01*
X030845Y022545D01*
X030845Y022622D01*
X030768Y022622D01*
X030998Y022622D02*
X030998Y022929D01*
X031305Y022622D01*
X031228Y022545D01*
X031075Y022545D01*
X030998Y022622D01*
X030998Y022929D02*
X031075Y023005D01*
X031228Y023005D01*
X031305Y022929D01*
X031305Y022622D01*
X032358Y023305D02*
X032665Y023305D01*
X032665Y022845D01*
X032819Y022922D02*
X032896Y022845D01*
X033126Y022845D01*
X033279Y022845D02*
X033586Y022845D01*
X033279Y023152D01*
X033279Y023229D01*
X033356Y023305D01*
X033509Y023305D01*
X033586Y023229D01*
X033740Y023229D02*
X033816Y023305D01*
X033970Y023305D01*
X034047Y023229D01*
X033740Y023229D02*
X033740Y023152D01*
X034047Y022845D01*
X033740Y022845D01*
X034758Y023305D02*
X035065Y023305D01*
X035065Y022845D01*
X035219Y022922D02*
X035296Y022845D01*
X035526Y022845D01*
X035679Y022845D02*
X035986Y022845D01*
X035679Y023152D01*
X035679Y023229D01*
X035756Y023305D01*
X035909Y023305D01*
X035986Y023229D01*
X036140Y023229D02*
X036216Y023305D01*
X036370Y023305D01*
X036447Y023229D01*
X036140Y023229D02*
X036140Y023152D01*
X036447Y022845D01*
X036140Y022845D01*
X035526Y022692D02*
X035526Y023152D01*
X035296Y023152D01*
X035219Y023075D01*
X035219Y022922D01*
X035065Y023075D02*
X034912Y023075D01*
X035515Y024195D02*
X035515Y024272D01*
X035208Y024579D01*
X035208Y024655D01*
X035515Y024655D01*
X035669Y024579D02*
X035746Y024655D01*
X035899Y024655D01*
X035976Y024579D01*
X035976Y024272D01*
X035899Y024195D01*
X035746Y024195D01*
X035669Y024272D01*
X033976Y024272D02*
X033899Y024195D01*
X033746Y024195D01*
X033669Y024272D01*
X033515Y024272D02*
X033515Y024348D01*
X033439Y024425D01*
X033285Y024425D01*
X033208Y024348D01*
X033208Y024272D01*
X033285Y024195D01*
X033439Y024195D01*
X033515Y024272D01*
X033439Y024425D02*
X033515Y024502D01*
X033515Y024579D01*
X033439Y024655D01*
X033285Y024655D01*
X033208Y024579D01*
X033208Y024502D01*
X033285Y024425D01*
X033669Y024579D02*
X033746Y024655D01*
X033899Y024655D01*
X033976Y024579D01*
X033976Y024272D01*
X033126Y023152D02*
X032896Y023152D01*
X032819Y023075D01*
X032819Y022922D01*
X032665Y023075D02*
X032512Y023075D01*
X033126Y023152D02*
X033126Y022692D01*
X030976Y024372D02*
X030899Y024295D01*
X030746Y024295D01*
X030669Y024372D01*
X030515Y024295D02*
X030208Y024602D01*
X030208Y024679D01*
X030285Y024755D01*
X030439Y024755D01*
X030515Y024679D01*
X030669Y024679D02*
X030746Y024755D01*
X030899Y024755D01*
X030976Y024679D01*
X030976Y024372D01*
X030515Y024295D02*
X030208Y024295D01*
X023989Y020185D02*
X023682Y020185D01*
X023836Y020031D02*
X023836Y020338D01*
X014348Y020260D02*
X014348Y019953D01*
X042845Y028841D02*
X042845Y028994D01*
X042922Y029071D01*
X042845Y029224D02*
X042845Y029531D01*
X042845Y029378D02*
X043305Y029378D01*
X043152Y029224D01*
X043229Y029071D02*
X043305Y028994D01*
X043305Y028841D01*
X043229Y028764D01*
X042922Y028764D01*
X042845Y028841D01*
X043075Y029685D02*
X043075Y029992D01*
X042845Y029915D02*
X043305Y029915D01*
X043075Y029685D01*
X044095Y029621D02*
X044095Y029314D01*
X044095Y029467D02*
X044555Y029467D01*
X044402Y029314D01*
X044172Y029160D02*
X044095Y029160D01*
X044095Y029084D01*
X044172Y029084D01*
X044172Y029160D01*
X044172Y028930D02*
X044095Y028853D01*
X044095Y028700D01*
X044172Y028623D01*
X044479Y028930D01*
X044172Y028930D01*
X044479Y028930D02*
X044555Y028853D01*
X044555Y028700D01*
X044479Y028623D01*
X044172Y028623D01*
X044172Y029774D02*
X044095Y029851D01*
X044095Y030081D01*
X044402Y030081D01*
X044325Y030235D02*
X044325Y030388D01*
X044095Y030235D02*
X044555Y030235D01*
X044555Y030542D01*
X044402Y029774D02*
X044172Y029774D01*
X044178Y035730D02*
X044102Y035807D01*
X044102Y035960D01*
X044025Y036037D01*
X043948Y036037D01*
X043871Y035960D01*
X043871Y035807D01*
X043948Y035730D01*
X044178Y035730D02*
X044255Y035730D01*
X044332Y035807D01*
X044332Y035960D01*
X044255Y036037D01*
X044332Y036190D02*
X043871Y036190D01*
X043871Y036421D01*
X043948Y036497D01*
X044255Y036497D01*
X044332Y036421D01*
X044332Y036190D01*
X044255Y036651D02*
X043948Y036651D01*
X043871Y036728D01*
X043871Y036881D01*
X043948Y036958D01*
X043871Y037111D02*
X044178Y037111D01*
X044332Y037265D01*
X044178Y037418D01*
X043871Y037418D01*
X043871Y037572D02*
X044332Y037572D01*
X044332Y037802D01*
X044255Y037879D01*
X044102Y037879D01*
X044025Y037802D01*
X044025Y037572D01*
X044025Y037725D02*
X043871Y037879D01*
X043871Y038032D02*
X043871Y038262D01*
X043948Y038339D01*
X044255Y038339D01*
X044332Y038262D01*
X044332Y038032D01*
X043871Y038032D01*
X044102Y037418D02*
X044102Y037111D01*
X044255Y036958D02*
X044332Y036881D01*
X044332Y036728D01*
X044255Y036651D01*
D17*
X037995Y031775D02*
X037995Y027775D01*
X035475Y026575D02*
X032775Y026575D01*
X032775Y026275D02*
X035475Y026275D01*
X035513Y026274D01*
X035550Y026269D01*
X035587Y026262D01*
X035623Y026253D01*
X035659Y026240D01*
X035693Y026225D01*
X036136Y025325D02*
X036104Y025280D01*
X036068Y025238D01*
X036029Y025198D01*
X035987Y025161D01*
X035944Y025127D01*
X035897Y025096D01*
X035849Y025068D01*
X035799Y025044D01*
X035748Y025023D01*
X035695Y025006D01*
X035641Y024992D01*
X035586Y024983D01*
X035531Y024977D01*
X035475Y024975D01*
X032775Y024975D01*
X032775Y025275D02*
X035475Y025275D01*
X036136Y026225D02*
X036104Y026270D01*
X036068Y026312D01*
X036029Y026352D01*
X035988Y026389D01*
X035944Y026423D01*
X035897Y026454D01*
X035849Y026482D01*
X035799Y026506D01*
X035748Y026527D01*
X035695Y026544D01*
X035641Y026558D01*
X035586Y026567D01*
X035531Y026573D01*
X035475Y026575D01*
X035693Y025325D02*
X035659Y025310D01*
X035623Y025297D01*
X035587Y025288D01*
X035550Y025281D01*
X035513Y025276D01*
X035475Y025275D01*
X034525Y025775D02*
X034375Y025775D01*
X033875Y025775D02*
X033725Y025775D01*
X032775Y024975D02*
X032719Y024977D01*
X032664Y024983D01*
X032609Y024992D01*
X032555Y025006D01*
X032502Y025023D01*
X032451Y025044D01*
X032401Y025068D01*
X032353Y025096D01*
X032306Y025127D01*
X032262Y025161D01*
X032221Y025198D01*
X032182Y025238D01*
X032146Y025280D01*
X032114Y025325D01*
X032114Y026225D02*
X032146Y026270D01*
X032182Y026312D01*
X032221Y026352D01*
X032263Y026389D01*
X032306Y026423D01*
X032353Y026454D01*
X032401Y026482D01*
X032451Y026506D01*
X032502Y026527D01*
X032555Y026544D01*
X032609Y026558D01*
X032664Y026567D01*
X032719Y026573D01*
X032775Y026575D01*
X032775Y026275D02*
X032737Y026274D01*
X032700Y026269D01*
X032663Y026262D01*
X032627Y026253D01*
X032591Y026240D01*
X032557Y026225D01*
X032557Y025325D02*
X032591Y025310D01*
X032627Y025297D01*
X032663Y025288D01*
X032700Y025281D01*
X032737Y025276D01*
X032775Y025275D01*
D18*
X029562Y027436D02*
X029562Y027573D01*
X029425Y027573D01*
X029288Y027436D01*
X029391Y027539D02*
X029528Y027402D01*
X029562Y027436D02*
X029425Y027299D01*
X029148Y027576D02*
X029353Y027781D01*
X029422Y027713D02*
X029285Y027850D01*
X029214Y027921D02*
X029077Y027921D01*
X029077Y028058D01*
X028871Y027853D01*
X028800Y027924D02*
X028663Y028061D01*
X028626Y028167D02*
X028557Y028167D01*
X028489Y028235D01*
X028489Y028304D01*
X028557Y028372D01*
X028626Y028304D01*
X028626Y028441D02*
X028694Y028441D01*
X028763Y028372D01*
X028763Y028304D01*
X028626Y028167D01*
X028834Y028095D02*
X028903Y028027D01*
X029005Y028130D02*
X028800Y027924D01*
X029005Y028130D02*
X028868Y028266D01*
X028520Y028478D02*
X028520Y028615D01*
X028383Y028615D01*
X028246Y028478D01*
X028175Y028549D02*
X028038Y028686D01*
X028106Y028618D02*
X028312Y028823D01*
X028312Y028686D01*
X028349Y028581D02*
X028486Y028444D01*
X028520Y028478D02*
X028383Y028341D01*
X027967Y028758D02*
X027967Y029031D01*
X028001Y029066D01*
X028069Y029066D01*
X028138Y028997D01*
X028138Y028929D01*
X027967Y028758D02*
X027830Y028895D01*
X027792Y029000D02*
X027827Y029035D01*
X027827Y029103D01*
X027758Y029171D01*
X027690Y029171D01*
X027656Y029137D01*
X027656Y029069D01*
X027724Y029000D01*
X027792Y029000D01*
X027827Y029103D02*
X027895Y029103D01*
X027929Y029137D01*
X027929Y029206D01*
X027861Y029274D01*
X027792Y029274D01*
X027758Y029240D01*
X027758Y029171D01*
X027652Y029277D02*
X027516Y029414D01*
X027410Y029451D02*
X027307Y029554D01*
X027307Y029622D01*
X027376Y029691D01*
X027444Y029691D01*
X027547Y029588D01*
X027341Y029383D01*
X027447Y029277D02*
X027652Y029482D01*
X027652Y029277D01*
X027236Y029694D02*
X027099Y029831D01*
X027027Y029902D02*
X026891Y030039D01*
X026925Y030073D02*
X026788Y029936D01*
X026751Y030042D02*
X026682Y030042D01*
X026614Y030110D01*
X026614Y030179D01*
X026785Y030350D01*
X026922Y030213D02*
X026751Y030042D01*
X026925Y030073D02*
X027062Y030073D01*
X027062Y029936D01*
X026925Y029800D01*
X029008Y027716D02*
X029214Y027921D01*
X038390Y028190D02*
X038438Y028190D01*
X038632Y028383D01*
X038680Y028383D01*
X038680Y028190D01*
X038535Y028485D02*
X038535Y028678D01*
X038535Y028779D02*
X038535Y028973D01*
X038438Y029074D02*
X038390Y029122D01*
X038390Y029219D01*
X038438Y029267D01*
X038535Y029369D02*
X038535Y029562D01*
X038438Y029663D02*
X038632Y029857D01*
X038438Y029857D01*
X038390Y029808D01*
X038390Y029712D01*
X038438Y029663D01*
X038632Y029663D01*
X038680Y029712D01*
X038680Y029808D01*
X038632Y029857D01*
X038680Y029958D02*
X038535Y029958D01*
X038583Y030055D01*
X038583Y030103D01*
X038535Y030151D01*
X038438Y030151D01*
X038390Y030103D01*
X038390Y030006D01*
X038438Y029958D01*
X038680Y029958D02*
X038680Y030151D01*
X038632Y030253D02*
X038680Y030301D01*
X038680Y030398D01*
X038632Y030446D01*
X038438Y030253D01*
X038390Y030301D01*
X038390Y030398D01*
X038438Y030446D01*
X038632Y030446D01*
X038680Y030547D02*
X038390Y030547D01*
X038390Y030692D01*
X038438Y030741D01*
X038632Y030741D01*
X038680Y030692D01*
X038680Y030547D01*
X038632Y030253D02*
X038438Y030253D01*
X038390Y029514D02*
X038680Y029514D01*
X038535Y029369D01*
X038632Y029267D02*
X038680Y029219D01*
X038680Y029122D01*
X038632Y029074D01*
X038438Y029074D01*
X038390Y028973D02*
X038680Y028973D01*
X038680Y028779D02*
X038390Y028779D01*
X038390Y028630D02*
X038680Y028630D01*
X038535Y028485D01*
D19*
X044555Y026330D02*
X044555Y026280D01*
X044580Y026255D01*
X044580Y026206D02*
X044555Y026206D01*
X044555Y026181D01*
X044580Y026181D01*
X044580Y026206D01*
X044580Y026134D02*
X044555Y026109D01*
X044555Y026059D01*
X044580Y026034D01*
X044630Y025986D02*
X044630Y025886D01*
X044680Y025839D02*
X044580Y025739D01*
X044555Y025739D01*
X044555Y025692D02*
X044555Y025592D01*
X044555Y025544D02*
X044555Y025444D01*
X044555Y025397D02*
X044555Y025297D01*
X044555Y025250D02*
X044705Y025250D01*
X044655Y025200D01*
X044705Y025150D01*
X044555Y025150D01*
X044580Y025102D02*
X044555Y025077D01*
X044555Y025027D01*
X044580Y025002D01*
X044555Y024955D02*
X044655Y024955D01*
X044705Y024905D01*
X044655Y024855D01*
X044555Y024855D01*
X044630Y024855D02*
X044630Y024955D01*
X044655Y025002D02*
X044630Y025027D01*
X044630Y025077D01*
X044605Y025102D01*
X044580Y025102D01*
X044680Y025102D02*
X044705Y025077D01*
X044705Y025027D01*
X044680Y025002D01*
X044655Y025002D01*
X044655Y025297D02*
X044705Y025347D01*
X044555Y025347D01*
X044655Y025444D02*
X044705Y025494D01*
X044555Y025494D01*
X044655Y025592D02*
X044705Y025642D01*
X044555Y025642D01*
X044705Y025739D02*
X044705Y025839D01*
X044680Y025839D01*
X044680Y026034D02*
X044705Y026059D01*
X044705Y026109D01*
X044680Y026134D01*
X044655Y026134D01*
X044630Y026109D01*
X044605Y026134D01*
X044580Y026134D01*
X044630Y026109D02*
X044630Y026084D01*
X044680Y026255D02*
X044705Y026280D01*
X044705Y026330D01*
X044680Y026355D01*
X044655Y026355D01*
X044630Y026330D01*
X044605Y026355D01*
X044580Y026355D01*
X044555Y026330D01*
X044630Y026330D02*
X044630Y026305D01*
X046405Y025202D02*
X046405Y025102D01*
X046405Y025152D02*
X046555Y025152D01*
X046505Y025102D01*
X046555Y025055D02*
X046430Y025055D01*
X046405Y025030D01*
X046405Y024980D01*
X046430Y024955D01*
X046555Y024955D01*
X028383Y021695D02*
X028383Y021595D01*
X028283Y021695D01*
X028283Y021595D01*
X028308Y021570D01*
X028358Y021570D01*
X028383Y021595D01*
X028383Y021695D02*
X028358Y021720D01*
X028308Y021720D01*
X028283Y021695D01*
X028236Y021595D02*
X028211Y021595D01*
X028211Y021570D01*
X028236Y021570D01*
X028236Y021595D01*
X028162Y021570D02*
X028062Y021570D01*
X028112Y021570D02*
X028112Y021720D01*
X028162Y021670D01*
X028015Y021670D02*
X028015Y021595D01*
X027990Y021570D01*
X027915Y021570D01*
X027915Y021670D01*
X027867Y021645D02*
X027817Y021645D01*
X027867Y021720D02*
X027767Y021720D01*
X027867Y021720D02*
X027867Y021570D01*
X027842Y020970D02*
X027817Y020945D01*
X027917Y020845D01*
X027892Y020820D01*
X027842Y020820D01*
X027817Y020845D01*
X027817Y020945D01*
X027842Y020970D02*
X027892Y020970D01*
X027917Y020945D01*
X027917Y020845D01*
X027965Y020820D02*
X028065Y020820D01*
X028015Y020820D02*
X028015Y020970D01*
X028065Y020920D01*
X028112Y020945D02*
X028137Y020970D01*
X028187Y020970D01*
X028212Y020945D01*
X028212Y020845D01*
X028187Y020820D01*
X028137Y020820D01*
X028112Y020845D01*
D20*
X028125Y021263D02*
X028125Y021287D01*
X030625Y023763D02*
X030625Y023787D01*
X033125Y023763D02*
X033125Y023787D01*
X035625Y023787D02*
X035625Y023763D01*
X041625Y024263D02*
X041625Y024287D01*
X041625Y026263D02*
X041625Y026287D01*
X043613Y029275D02*
X043637Y029275D01*
X036625Y035763D02*
X036625Y035787D01*
X023125Y028787D02*
X023125Y028763D01*
D21*
X029589Y030350D02*
X029591Y030370D01*
X029596Y030390D01*
X029606Y030408D01*
X029618Y030425D01*
X029633Y030439D01*
X029651Y030449D01*
X029670Y030457D01*
X029690Y030461D01*
X029710Y030461D01*
X029730Y030457D01*
X029749Y030449D01*
X029767Y030439D01*
X029782Y030425D01*
X029794Y030408D01*
X029804Y030390D01*
X029809Y030370D01*
X029811Y030350D01*
X029809Y030330D01*
X029804Y030310D01*
X029794Y030292D01*
X029782Y030275D01*
X029767Y030261D01*
X029749Y030251D01*
X029730Y030243D01*
X029710Y030239D01*
X029690Y030239D01*
X029670Y030243D01*
X029651Y030251D01*
X029633Y030261D01*
X029618Y030275D01*
X029606Y030292D01*
X029596Y030310D01*
X029591Y030330D01*
X029589Y030350D01*
M02*
