G75*
%MOIN*%
%OFA0B0*%
%FSLAX24Y24*%
%IPPOS*%
%LPD*%
%AMOC8*
5,1,8,0,0,1.08239X$1,22.5*
%
%ADD10C,0.0000*%
%ADD11C,0.0040*%
%ADD12C,0.0060*%
%ADD13C,0.0200*%
%ADD14C,0.0120*%
%ADD15C,0.0050*%
%ADD16C,0.0070*%
%ADD17C,0.0080*%
%ADD18C,0.0020*%
%ADD19C,0.0030*%
%ADD20C,0.0220*%
%ADD21C,0.0160*%
%ADD22R,0.0230X0.0160*%
%ADD23C,0.0028*%
%ADD24R,0.0118X0.0276*%
%ADD25R,0.0300X0.0180*%
%ADD26C,0.0010*%
D10*
X008005Y006775D02*
X047375Y006775D01*
X047375Y041025D01*
X008005Y041025D01*
X008005Y006775D01*
X008245Y007625D02*
X008247Y007675D01*
X008253Y007725D01*
X008263Y007774D01*
X008277Y007822D01*
X008294Y007869D01*
X008315Y007914D01*
X008340Y007958D01*
X008368Y007999D01*
X008400Y008038D01*
X008434Y008075D01*
X008471Y008109D01*
X008511Y008139D01*
X008553Y008166D01*
X008597Y008190D01*
X008643Y008211D01*
X008690Y008227D01*
X008738Y008240D01*
X008788Y008249D01*
X008837Y008254D01*
X008888Y008255D01*
X008938Y008252D01*
X008987Y008245D01*
X009036Y008234D01*
X009084Y008219D01*
X009130Y008201D01*
X009175Y008179D01*
X009218Y008153D01*
X009259Y008124D01*
X009298Y008092D01*
X009334Y008057D01*
X009366Y008019D01*
X009396Y007979D01*
X009423Y007936D01*
X009446Y007892D01*
X009465Y007846D01*
X009481Y007798D01*
X009493Y007749D01*
X009501Y007700D01*
X009505Y007650D01*
X009505Y007600D01*
X009501Y007550D01*
X009493Y007501D01*
X009481Y007452D01*
X009465Y007404D01*
X009446Y007358D01*
X009423Y007314D01*
X009396Y007271D01*
X009366Y007231D01*
X009334Y007193D01*
X009298Y007158D01*
X009259Y007126D01*
X009218Y007097D01*
X009175Y007071D01*
X009130Y007049D01*
X009084Y007031D01*
X009036Y007016D01*
X008987Y007005D01*
X008938Y006998D01*
X008888Y006995D01*
X008837Y006996D01*
X008788Y007001D01*
X008738Y007010D01*
X008690Y007023D01*
X008643Y007039D01*
X008597Y007060D01*
X008553Y007084D01*
X008511Y007111D01*
X008471Y007141D01*
X008434Y007175D01*
X008400Y007212D01*
X008368Y007251D01*
X008340Y007292D01*
X008315Y007336D01*
X008294Y007381D01*
X008277Y007428D01*
X008263Y007476D01*
X008253Y007525D01*
X008247Y007575D01*
X008245Y007625D01*
X017461Y020275D02*
X017463Y020302D01*
X017469Y020329D01*
X017478Y020355D01*
X017491Y020379D01*
X017507Y020402D01*
X017526Y020421D01*
X017548Y020438D01*
X017572Y020452D01*
X017597Y020462D01*
X017624Y020469D01*
X017651Y020472D01*
X017679Y020471D01*
X017706Y020466D01*
X017732Y020458D01*
X017756Y020446D01*
X017779Y020430D01*
X017800Y020412D01*
X017817Y020391D01*
X017832Y020367D01*
X017843Y020342D01*
X017851Y020316D01*
X017855Y020289D01*
X017855Y020261D01*
X017851Y020234D01*
X017843Y020208D01*
X017832Y020183D01*
X017817Y020159D01*
X017800Y020138D01*
X017779Y020120D01*
X017757Y020104D01*
X017732Y020092D01*
X017706Y020084D01*
X017679Y020079D01*
X017651Y020078D01*
X017624Y020081D01*
X017597Y020088D01*
X017572Y020098D01*
X017548Y020112D01*
X017526Y020129D01*
X017507Y020148D01*
X017491Y020171D01*
X017478Y020195D01*
X017469Y020221D01*
X017463Y020248D01*
X017461Y020275D01*
X020336Y020275D02*
X020338Y020306D01*
X020344Y020337D01*
X020353Y020367D01*
X020366Y020396D01*
X020383Y020423D01*
X020403Y020447D01*
X020425Y020469D01*
X020451Y020488D01*
X020478Y020504D01*
X020507Y020516D01*
X020537Y020525D01*
X020568Y020530D01*
X020600Y020531D01*
X020631Y020528D01*
X020662Y020521D01*
X020692Y020511D01*
X020720Y020497D01*
X020746Y020479D01*
X020770Y020459D01*
X020791Y020435D01*
X020810Y020410D01*
X020825Y020382D01*
X020836Y020353D01*
X020844Y020322D01*
X020848Y020291D01*
X020848Y020259D01*
X020844Y020228D01*
X020836Y020197D01*
X020825Y020168D01*
X020810Y020140D01*
X020791Y020115D01*
X020770Y020091D01*
X020746Y020071D01*
X020720Y020053D01*
X020692Y020039D01*
X020662Y020029D01*
X020631Y020022D01*
X020600Y020019D01*
X020568Y020020D01*
X020537Y020025D01*
X020507Y020034D01*
X020478Y020046D01*
X020451Y020062D01*
X020425Y020081D01*
X020403Y020103D01*
X020383Y020127D01*
X020366Y020154D01*
X020353Y020183D01*
X020344Y020213D01*
X020338Y020244D01*
X020336Y020275D01*
X027574Y011425D02*
X027576Y011472D01*
X027582Y011518D01*
X027592Y011564D01*
X027605Y011609D01*
X027623Y011652D01*
X027644Y011694D01*
X027668Y011734D01*
X027696Y011771D01*
X027727Y011806D01*
X027761Y011839D01*
X027797Y011868D01*
X027836Y011894D01*
X027877Y011917D01*
X027920Y011936D01*
X027964Y011952D01*
X028009Y011964D01*
X028055Y011972D01*
X028102Y011976D01*
X028148Y011976D01*
X028195Y011972D01*
X028241Y011964D01*
X028286Y011952D01*
X028330Y011936D01*
X028373Y011917D01*
X028414Y011894D01*
X028453Y011868D01*
X028489Y011839D01*
X028523Y011806D01*
X028554Y011771D01*
X028582Y011734D01*
X028606Y011694D01*
X028627Y011652D01*
X028645Y011609D01*
X028658Y011564D01*
X028668Y011518D01*
X028674Y011472D01*
X028676Y011425D01*
X028674Y011378D01*
X028668Y011332D01*
X028658Y011286D01*
X028645Y011241D01*
X028627Y011198D01*
X028606Y011156D01*
X028582Y011116D01*
X028554Y011079D01*
X028523Y011044D01*
X028489Y011011D01*
X028453Y010982D01*
X028414Y010956D01*
X028373Y010933D01*
X028330Y010914D01*
X028286Y010898D01*
X028241Y010886D01*
X028195Y010878D01*
X028148Y010874D01*
X028102Y010874D01*
X028055Y010878D01*
X028009Y010886D01*
X027964Y010898D01*
X027920Y010914D01*
X027877Y010933D01*
X027836Y010956D01*
X027797Y010982D01*
X027761Y011011D01*
X027727Y011044D01*
X027696Y011079D01*
X027668Y011116D01*
X027644Y011156D01*
X027623Y011198D01*
X027605Y011241D01*
X027592Y011286D01*
X027582Y011332D01*
X027576Y011378D01*
X027574Y011425D01*
X027574Y005125D02*
X027576Y005172D01*
X027582Y005218D01*
X027592Y005264D01*
X027605Y005309D01*
X027623Y005352D01*
X027644Y005394D01*
X027668Y005434D01*
X027696Y005471D01*
X027727Y005506D01*
X027761Y005539D01*
X027797Y005568D01*
X027836Y005594D01*
X027877Y005617D01*
X027920Y005636D01*
X027964Y005652D01*
X028009Y005664D01*
X028055Y005672D01*
X028102Y005676D01*
X028148Y005676D01*
X028195Y005672D01*
X028241Y005664D01*
X028286Y005652D01*
X028330Y005636D01*
X028373Y005617D01*
X028414Y005594D01*
X028453Y005568D01*
X028489Y005539D01*
X028523Y005506D01*
X028554Y005471D01*
X028582Y005434D01*
X028606Y005394D01*
X028627Y005352D01*
X028645Y005309D01*
X028658Y005264D01*
X028668Y005218D01*
X028674Y005172D01*
X028676Y005125D01*
X028674Y005078D01*
X028668Y005032D01*
X028658Y004986D01*
X028645Y004941D01*
X028627Y004898D01*
X028606Y004856D01*
X028582Y004816D01*
X028554Y004779D01*
X028523Y004744D01*
X028489Y004711D01*
X028453Y004682D01*
X028414Y004656D01*
X028373Y004633D01*
X028330Y004614D01*
X028286Y004598D01*
X028241Y004586D01*
X028195Y004578D01*
X028148Y004574D01*
X028102Y004574D01*
X028055Y004578D01*
X028009Y004586D01*
X027964Y004598D01*
X027920Y004614D01*
X027877Y004633D01*
X027836Y004656D01*
X027797Y004682D01*
X027761Y004711D01*
X027727Y004744D01*
X027696Y004779D01*
X027668Y004816D01*
X027644Y004856D01*
X027623Y004898D01*
X027605Y004941D01*
X027592Y004986D01*
X027582Y005032D01*
X027576Y005078D01*
X027574Y005125D01*
X040495Y018275D02*
X040497Y018325D01*
X040503Y018375D01*
X040513Y018424D01*
X040527Y018472D01*
X040544Y018519D01*
X040565Y018564D01*
X040590Y018608D01*
X040618Y018649D01*
X040650Y018688D01*
X040684Y018725D01*
X040721Y018759D01*
X040761Y018789D01*
X040803Y018816D01*
X040847Y018840D01*
X040893Y018861D01*
X040940Y018877D01*
X040988Y018890D01*
X041038Y018899D01*
X041087Y018904D01*
X041138Y018905D01*
X041188Y018902D01*
X041237Y018895D01*
X041286Y018884D01*
X041334Y018869D01*
X041380Y018851D01*
X041425Y018829D01*
X041468Y018803D01*
X041509Y018774D01*
X041548Y018742D01*
X041584Y018707D01*
X041616Y018669D01*
X041646Y018629D01*
X041673Y018586D01*
X041696Y018542D01*
X041715Y018496D01*
X041731Y018448D01*
X041743Y018399D01*
X041751Y018350D01*
X041755Y018300D01*
X041755Y018250D01*
X041751Y018200D01*
X041743Y018151D01*
X041731Y018102D01*
X041715Y018054D01*
X041696Y018008D01*
X041673Y017964D01*
X041646Y017921D01*
X041616Y017881D01*
X041584Y017843D01*
X041548Y017808D01*
X041509Y017776D01*
X041468Y017747D01*
X041425Y017721D01*
X041380Y017699D01*
X041334Y017681D01*
X041286Y017666D01*
X041237Y017655D01*
X041188Y017648D01*
X041138Y017645D01*
X041087Y017646D01*
X041038Y017651D01*
X040988Y017660D01*
X040940Y017673D01*
X040893Y017689D01*
X040847Y017710D01*
X040803Y017734D01*
X040761Y017761D01*
X040721Y017791D01*
X040684Y017825D01*
X040650Y017862D01*
X040618Y017901D01*
X040590Y017942D01*
X040565Y017986D01*
X040544Y018031D01*
X040527Y018078D01*
X040513Y018126D01*
X040503Y018175D01*
X040497Y018225D01*
X040495Y018275D01*
X045745Y007625D02*
X045747Y007675D01*
X045753Y007725D01*
X045763Y007774D01*
X045777Y007822D01*
X045794Y007869D01*
X045815Y007914D01*
X045840Y007958D01*
X045868Y007999D01*
X045900Y008038D01*
X045934Y008075D01*
X045971Y008109D01*
X046011Y008139D01*
X046053Y008166D01*
X046097Y008190D01*
X046143Y008211D01*
X046190Y008227D01*
X046238Y008240D01*
X046288Y008249D01*
X046337Y008254D01*
X046388Y008255D01*
X046438Y008252D01*
X046487Y008245D01*
X046536Y008234D01*
X046584Y008219D01*
X046630Y008201D01*
X046675Y008179D01*
X046718Y008153D01*
X046759Y008124D01*
X046798Y008092D01*
X046834Y008057D01*
X046866Y008019D01*
X046896Y007979D01*
X046923Y007936D01*
X046946Y007892D01*
X046965Y007846D01*
X046981Y007798D01*
X046993Y007749D01*
X047001Y007700D01*
X047005Y007650D01*
X047005Y007600D01*
X047001Y007550D01*
X046993Y007501D01*
X046981Y007452D01*
X046965Y007404D01*
X046946Y007358D01*
X046923Y007314D01*
X046896Y007271D01*
X046866Y007231D01*
X046834Y007193D01*
X046798Y007158D01*
X046759Y007126D01*
X046718Y007097D01*
X046675Y007071D01*
X046630Y007049D01*
X046584Y007031D01*
X046536Y007016D01*
X046487Y007005D01*
X046438Y006998D01*
X046388Y006995D01*
X046337Y006996D01*
X046288Y007001D01*
X046238Y007010D01*
X046190Y007023D01*
X046143Y007039D01*
X046097Y007060D01*
X046053Y007084D01*
X046011Y007111D01*
X045971Y007141D01*
X045934Y007175D01*
X045900Y007212D01*
X045868Y007251D01*
X045840Y007292D01*
X045815Y007336D01*
X045794Y007381D01*
X045777Y007428D01*
X045763Y007476D01*
X045753Y007525D01*
X045747Y007575D01*
X045745Y007625D01*
X045745Y032625D02*
X045747Y032675D01*
X045753Y032725D01*
X045763Y032774D01*
X045777Y032822D01*
X045794Y032869D01*
X045815Y032914D01*
X045840Y032958D01*
X045868Y032999D01*
X045900Y033038D01*
X045934Y033075D01*
X045971Y033109D01*
X046011Y033139D01*
X046053Y033166D01*
X046097Y033190D01*
X046143Y033211D01*
X046190Y033227D01*
X046238Y033240D01*
X046288Y033249D01*
X046337Y033254D01*
X046388Y033255D01*
X046438Y033252D01*
X046487Y033245D01*
X046536Y033234D01*
X046584Y033219D01*
X046630Y033201D01*
X046675Y033179D01*
X046718Y033153D01*
X046759Y033124D01*
X046798Y033092D01*
X046834Y033057D01*
X046866Y033019D01*
X046896Y032979D01*
X046923Y032936D01*
X046946Y032892D01*
X046965Y032846D01*
X046981Y032798D01*
X046993Y032749D01*
X047001Y032700D01*
X047005Y032650D01*
X047005Y032600D01*
X047001Y032550D01*
X046993Y032501D01*
X046981Y032452D01*
X046965Y032404D01*
X046946Y032358D01*
X046923Y032314D01*
X046896Y032271D01*
X046866Y032231D01*
X046834Y032193D01*
X046798Y032158D01*
X046759Y032126D01*
X046718Y032097D01*
X046675Y032071D01*
X046630Y032049D01*
X046584Y032031D01*
X046536Y032016D01*
X046487Y032005D01*
X046438Y031998D01*
X046388Y031995D01*
X046337Y031996D01*
X046288Y032001D01*
X046238Y032010D01*
X046190Y032023D01*
X046143Y032039D01*
X046097Y032060D01*
X046053Y032084D01*
X046011Y032111D01*
X045971Y032141D01*
X045934Y032175D01*
X045900Y032212D01*
X045868Y032251D01*
X045840Y032292D01*
X045815Y032336D01*
X045794Y032381D01*
X045777Y032428D01*
X045763Y032476D01*
X045753Y032525D01*
X045747Y032575D01*
X045745Y032625D01*
X043814Y038775D02*
X043816Y038801D01*
X043822Y038827D01*
X043832Y038852D01*
X043845Y038875D01*
X043861Y038895D01*
X043881Y038913D01*
X043903Y038928D01*
X043926Y038940D01*
X043952Y038948D01*
X043978Y038952D01*
X044004Y038952D01*
X044030Y038948D01*
X044056Y038940D01*
X044080Y038928D01*
X044101Y038913D01*
X044121Y038895D01*
X044137Y038875D01*
X044150Y038852D01*
X044160Y038827D01*
X044166Y038801D01*
X044168Y038775D01*
X044166Y038749D01*
X044160Y038723D01*
X044150Y038698D01*
X044137Y038675D01*
X044121Y038655D01*
X044101Y038637D01*
X044079Y038622D01*
X044056Y038610D01*
X044030Y038602D01*
X044004Y038598D01*
X043978Y038598D01*
X043952Y038602D01*
X043926Y038610D01*
X043902Y038622D01*
X043881Y038637D01*
X043861Y038655D01*
X043845Y038675D01*
X043832Y038698D01*
X043822Y038723D01*
X043816Y038749D01*
X043814Y038775D01*
X042950Y039198D02*
X042952Y039223D01*
X042958Y039247D01*
X042967Y039269D01*
X042980Y039290D01*
X042996Y039309D01*
X043015Y039325D01*
X043036Y039338D01*
X043058Y039347D01*
X043082Y039353D01*
X043107Y039355D01*
X043132Y039353D01*
X043156Y039347D01*
X043178Y039338D01*
X043199Y039325D01*
X043218Y039309D01*
X043234Y039290D01*
X043247Y039269D01*
X043256Y039247D01*
X043262Y039223D01*
X043264Y039198D01*
X043262Y039173D01*
X043256Y039149D01*
X043247Y039127D01*
X043234Y039106D01*
X043218Y039087D01*
X043199Y039071D01*
X043178Y039058D01*
X043156Y039049D01*
X043132Y039043D01*
X043107Y039041D01*
X043082Y039043D01*
X043058Y039049D01*
X043036Y039058D01*
X043015Y039071D01*
X042996Y039087D01*
X042980Y039106D01*
X042967Y039127D01*
X042958Y039149D01*
X042952Y039173D01*
X042950Y039198D01*
X042082Y038775D02*
X042084Y038801D01*
X042090Y038827D01*
X042100Y038852D01*
X042113Y038875D01*
X042129Y038895D01*
X042149Y038913D01*
X042171Y038928D01*
X042194Y038940D01*
X042220Y038948D01*
X042246Y038952D01*
X042272Y038952D01*
X042298Y038948D01*
X042324Y038940D01*
X042348Y038928D01*
X042369Y038913D01*
X042389Y038895D01*
X042405Y038875D01*
X042418Y038852D01*
X042428Y038827D01*
X042434Y038801D01*
X042436Y038775D01*
X042434Y038749D01*
X042428Y038723D01*
X042418Y038698D01*
X042405Y038675D01*
X042389Y038655D01*
X042369Y038637D01*
X042347Y038622D01*
X042324Y038610D01*
X042298Y038602D01*
X042272Y038598D01*
X042246Y038598D01*
X042220Y038602D01*
X042194Y038610D01*
X042170Y038622D01*
X042149Y038637D01*
X042129Y038655D01*
X042113Y038675D01*
X042100Y038698D01*
X042090Y038723D01*
X042084Y038749D01*
X042082Y038775D01*
X039801Y039198D02*
X039803Y039223D01*
X039809Y039247D01*
X039818Y039269D01*
X039831Y039290D01*
X039847Y039309D01*
X039866Y039325D01*
X039887Y039338D01*
X039909Y039347D01*
X039933Y039353D01*
X039958Y039355D01*
X039983Y039353D01*
X040007Y039347D01*
X040029Y039338D01*
X040050Y039325D01*
X040069Y039309D01*
X040085Y039290D01*
X040098Y039269D01*
X040107Y039247D01*
X040113Y039223D01*
X040115Y039198D01*
X040113Y039173D01*
X040107Y039149D01*
X040098Y039127D01*
X040085Y039106D01*
X040069Y039087D01*
X040050Y039071D01*
X040029Y039058D01*
X040007Y039049D01*
X039983Y039043D01*
X039958Y039041D01*
X039933Y039043D01*
X039909Y039049D01*
X039887Y039058D01*
X039866Y039071D01*
X039847Y039087D01*
X039831Y039106D01*
X039818Y039127D01*
X039809Y039149D01*
X039803Y039173D01*
X039801Y039198D01*
X030575Y038525D02*
X030577Y038572D01*
X030583Y038618D01*
X030593Y038664D01*
X030606Y038708D01*
X030624Y038752D01*
X030645Y038793D01*
X030669Y038833D01*
X030697Y038871D01*
X030728Y038906D01*
X030762Y038938D01*
X030798Y038967D01*
X030837Y038993D01*
X030877Y039016D01*
X030920Y039035D01*
X030964Y039051D01*
X031009Y039063D01*
X031055Y039071D01*
X031102Y039075D01*
X031148Y039075D01*
X031195Y039071D01*
X031241Y039063D01*
X031286Y039051D01*
X031330Y039035D01*
X031373Y039016D01*
X031413Y038993D01*
X031452Y038967D01*
X031488Y038938D01*
X031522Y038906D01*
X031553Y038871D01*
X031581Y038833D01*
X031605Y038793D01*
X031626Y038752D01*
X031644Y038708D01*
X031657Y038664D01*
X031667Y038618D01*
X031673Y038572D01*
X031675Y038525D01*
X031673Y038478D01*
X031667Y038432D01*
X031657Y038386D01*
X031644Y038342D01*
X031626Y038298D01*
X031605Y038257D01*
X031581Y038217D01*
X031553Y038179D01*
X031522Y038144D01*
X031488Y038112D01*
X031452Y038083D01*
X031413Y038057D01*
X031373Y038034D01*
X031330Y038015D01*
X031286Y037999D01*
X031241Y037987D01*
X031195Y037979D01*
X031148Y037975D01*
X031102Y037975D01*
X031055Y037979D01*
X031009Y037987D01*
X030964Y037999D01*
X030920Y038015D01*
X030877Y038034D01*
X030837Y038057D01*
X030798Y038083D01*
X030762Y038112D01*
X030728Y038144D01*
X030697Y038179D01*
X030669Y038217D01*
X030645Y038257D01*
X030624Y038298D01*
X030606Y038342D01*
X030593Y038386D01*
X030583Y038432D01*
X030577Y038478D01*
X030575Y038525D01*
X024575Y038525D02*
X024577Y038572D01*
X024583Y038618D01*
X024593Y038664D01*
X024606Y038708D01*
X024624Y038752D01*
X024645Y038793D01*
X024669Y038833D01*
X024697Y038871D01*
X024728Y038906D01*
X024762Y038938D01*
X024798Y038967D01*
X024837Y038993D01*
X024877Y039016D01*
X024920Y039035D01*
X024964Y039051D01*
X025009Y039063D01*
X025055Y039071D01*
X025102Y039075D01*
X025148Y039075D01*
X025195Y039071D01*
X025241Y039063D01*
X025286Y039051D01*
X025330Y039035D01*
X025373Y039016D01*
X025413Y038993D01*
X025452Y038967D01*
X025488Y038938D01*
X025522Y038906D01*
X025553Y038871D01*
X025581Y038833D01*
X025605Y038793D01*
X025626Y038752D01*
X025644Y038708D01*
X025657Y038664D01*
X025667Y038618D01*
X025673Y038572D01*
X025675Y038525D01*
X025673Y038478D01*
X025667Y038432D01*
X025657Y038386D01*
X025644Y038342D01*
X025626Y038298D01*
X025605Y038257D01*
X025581Y038217D01*
X025553Y038179D01*
X025522Y038144D01*
X025488Y038112D01*
X025452Y038083D01*
X025413Y038057D01*
X025373Y038034D01*
X025330Y038015D01*
X025286Y037999D01*
X025241Y037987D01*
X025195Y037979D01*
X025148Y037975D01*
X025102Y037975D01*
X025055Y037979D01*
X025009Y037987D01*
X024964Y037999D01*
X024920Y038015D01*
X024877Y038034D01*
X024837Y038057D01*
X024798Y038083D01*
X024762Y038112D01*
X024728Y038144D01*
X024697Y038179D01*
X024669Y038217D01*
X024645Y038257D01*
X024624Y038298D01*
X024606Y038342D01*
X024593Y038386D01*
X024583Y038432D01*
X024577Y038478D01*
X024575Y038525D01*
X022575Y038525D02*
X022577Y038572D01*
X022583Y038618D01*
X022593Y038664D01*
X022606Y038708D01*
X022624Y038752D01*
X022645Y038793D01*
X022669Y038833D01*
X022697Y038871D01*
X022728Y038906D01*
X022762Y038938D01*
X022798Y038967D01*
X022837Y038993D01*
X022877Y039016D01*
X022920Y039035D01*
X022964Y039051D01*
X023009Y039063D01*
X023055Y039071D01*
X023102Y039075D01*
X023148Y039075D01*
X023195Y039071D01*
X023241Y039063D01*
X023286Y039051D01*
X023330Y039035D01*
X023373Y039016D01*
X023413Y038993D01*
X023452Y038967D01*
X023488Y038938D01*
X023522Y038906D01*
X023553Y038871D01*
X023581Y038833D01*
X023605Y038793D01*
X023626Y038752D01*
X023644Y038708D01*
X023657Y038664D01*
X023667Y038618D01*
X023673Y038572D01*
X023675Y038525D01*
X023673Y038478D01*
X023667Y038432D01*
X023657Y038386D01*
X023644Y038342D01*
X023626Y038298D01*
X023605Y038257D01*
X023581Y038217D01*
X023553Y038179D01*
X023522Y038144D01*
X023488Y038112D01*
X023452Y038083D01*
X023413Y038057D01*
X023373Y038034D01*
X023330Y038015D01*
X023286Y037999D01*
X023241Y037987D01*
X023195Y037979D01*
X023148Y037975D01*
X023102Y037975D01*
X023055Y037979D01*
X023009Y037987D01*
X022964Y037999D01*
X022920Y038015D01*
X022877Y038034D01*
X022837Y038057D01*
X022798Y038083D01*
X022762Y038112D01*
X022728Y038144D01*
X022697Y038179D01*
X022669Y038217D01*
X022645Y038257D01*
X022624Y038298D01*
X022606Y038342D01*
X022593Y038386D01*
X022583Y038432D01*
X022577Y038478D01*
X022575Y038525D01*
X016575Y038525D02*
X016577Y038572D01*
X016583Y038618D01*
X016593Y038664D01*
X016606Y038708D01*
X016624Y038752D01*
X016645Y038793D01*
X016669Y038833D01*
X016697Y038871D01*
X016728Y038906D01*
X016762Y038938D01*
X016798Y038967D01*
X016837Y038993D01*
X016877Y039016D01*
X016920Y039035D01*
X016964Y039051D01*
X017009Y039063D01*
X017055Y039071D01*
X017102Y039075D01*
X017148Y039075D01*
X017195Y039071D01*
X017241Y039063D01*
X017286Y039051D01*
X017330Y039035D01*
X017373Y039016D01*
X017413Y038993D01*
X017452Y038967D01*
X017488Y038938D01*
X017522Y038906D01*
X017553Y038871D01*
X017581Y038833D01*
X017605Y038793D01*
X017626Y038752D01*
X017644Y038708D01*
X017657Y038664D01*
X017667Y038618D01*
X017673Y038572D01*
X017675Y038525D01*
X017673Y038478D01*
X017667Y038432D01*
X017657Y038386D01*
X017644Y038342D01*
X017626Y038298D01*
X017605Y038257D01*
X017581Y038217D01*
X017553Y038179D01*
X017522Y038144D01*
X017488Y038112D01*
X017452Y038083D01*
X017413Y038057D01*
X017373Y038034D01*
X017330Y038015D01*
X017286Y037999D01*
X017241Y037987D01*
X017195Y037979D01*
X017148Y037975D01*
X017102Y037975D01*
X017055Y037979D01*
X017009Y037987D01*
X016964Y037999D01*
X016920Y038015D01*
X016877Y038034D01*
X016837Y038057D01*
X016798Y038083D01*
X016762Y038112D01*
X016728Y038144D01*
X016697Y038179D01*
X016669Y038217D01*
X016645Y038257D01*
X016624Y038298D01*
X016606Y038342D01*
X016593Y038386D01*
X016583Y038432D01*
X016577Y038478D01*
X016575Y038525D01*
X014575Y038525D02*
X014577Y038572D01*
X014583Y038618D01*
X014593Y038664D01*
X014606Y038708D01*
X014624Y038752D01*
X014645Y038793D01*
X014669Y038833D01*
X014697Y038871D01*
X014728Y038906D01*
X014762Y038938D01*
X014798Y038967D01*
X014837Y038993D01*
X014877Y039016D01*
X014920Y039035D01*
X014964Y039051D01*
X015009Y039063D01*
X015055Y039071D01*
X015102Y039075D01*
X015148Y039075D01*
X015195Y039071D01*
X015241Y039063D01*
X015286Y039051D01*
X015330Y039035D01*
X015373Y039016D01*
X015413Y038993D01*
X015452Y038967D01*
X015488Y038938D01*
X015522Y038906D01*
X015553Y038871D01*
X015581Y038833D01*
X015605Y038793D01*
X015626Y038752D01*
X015644Y038708D01*
X015657Y038664D01*
X015667Y038618D01*
X015673Y038572D01*
X015675Y038525D01*
X015673Y038478D01*
X015667Y038432D01*
X015657Y038386D01*
X015644Y038342D01*
X015626Y038298D01*
X015605Y038257D01*
X015581Y038217D01*
X015553Y038179D01*
X015522Y038144D01*
X015488Y038112D01*
X015452Y038083D01*
X015413Y038057D01*
X015373Y038034D01*
X015330Y038015D01*
X015286Y037999D01*
X015241Y037987D01*
X015195Y037979D01*
X015148Y037975D01*
X015102Y037975D01*
X015055Y037979D01*
X015009Y037987D01*
X014964Y037999D01*
X014920Y038015D01*
X014877Y038034D01*
X014837Y038057D01*
X014798Y038083D01*
X014762Y038112D01*
X014728Y038144D01*
X014697Y038179D01*
X014669Y038217D01*
X014645Y038257D01*
X014624Y038298D01*
X014606Y038342D01*
X014593Y038386D01*
X014583Y038432D01*
X014577Y038478D01*
X014575Y038525D01*
X008575Y038525D02*
X008577Y038572D01*
X008583Y038618D01*
X008593Y038664D01*
X008606Y038708D01*
X008624Y038752D01*
X008645Y038793D01*
X008669Y038833D01*
X008697Y038871D01*
X008728Y038906D01*
X008762Y038938D01*
X008798Y038967D01*
X008837Y038993D01*
X008877Y039016D01*
X008920Y039035D01*
X008964Y039051D01*
X009009Y039063D01*
X009055Y039071D01*
X009102Y039075D01*
X009148Y039075D01*
X009195Y039071D01*
X009241Y039063D01*
X009286Y039051D01*
X009330Y039035D01*
X009373Y039016D01*
X009413Y038993D01*
X009452Y038967D01*
X009488Y038938D01*
X009522Y038906D01*
X009553Y038871D01*
X009581Y038833D01*
X009605Y038793D01*
X009626Y038752D01*
X009644Y038708D01*
X009657Y038664D01*
X009667Y038618D01*
X009673Y038572D01*
X009675Y038525D01*
X009673Y038478D01*
X009667Y038432D01*
X009657Y038386D01*
X009644Y038342D01*
X009626Y038298D01*
X009605Y038257D01*
X009581Y038217D01*
X009553Y038179D01*
X009522Y038144D01*
X009488Y038112D01*
X009452Y038083D01*
X009413Y038057D01*
X009373Y038034D01*
X009330Y038015D01*
X009286Y037999D01*
X009241Y037987D01*
X009195Y037979D01*
X009148Y037975D01*
X009102Y037975D01*
X009055Y037979D01*
X009009Y037987D01*
X008964Y037999D01*
X008920Y038015D01*
X008877Y038034D01*
X008837Y038057D01*
X008798Y038083D01*
X008762Y038112D01*
X008728Y038144D01*
X008697Y038179D01*
X008669Y038217D01*
X008645Y038257D01*
X008624Y038298D01*
X008606Y038342D01*
X008593Y038386D01*
X008583Y038432D01*
X008577Y038478D01*
X008575Y038525D01*
X008245Y032625D02*
X008247Y032675D01*
X008253Y032725D01*
X008263Y032774D01*
X008277Y032822D01*
X008294Y032869D01*
X008315Y032914D01*
X008340Y032958D01*
X008368Y032999D01*
X008400Y033038D01*
X008434Y033075D01*
X008471Y033109D01*
X008511Y033139D01*
X008553Y033166D01*
X008597Y033190D01*
X008643Y033211D01*
X008690Y033227D01*
X008738Y033240D01*
X008788Y033249D01*
X008837Y033254D01*
X008888Y033255D01*
X008938Y033252D01*
X008987Y033245D01*
X009036Y033234D01*
X009084Y033219D01*
X009130Y033201D01*
X009175Y033179D01*
X009218Y033153D01*
X009259Y033124D01*
X009298Y033092D01*
X009334Y033057D01*
X009366Y033019D01*
X009396Y032979D01*
X009423Y032936D01*
X009446Y032892D01*
X009465Y032846D01*
X009481Y032798D01*
X009493Y032749D01*
X009501Y032700D01*
X009505Y032650D01*
X009505Y032600D01*
X009501Y032550D01*
X009493Y032501D01*
X009481Y032452D01*
X009465Y032404D01*
X009446Y032358D01*
X009423Y032314D01*
X009396Y032271D01*
X009366Y032231D01*
X009334Y032193D01*
X009298Y032158D01*
X009259Y032126D01*
X009218Y032097D01*
X009175Y032071D01*
X009130Y032049D01*
X009084Y032031D01*
X009036Y032016D01*
X008987Y032005D01*
X008938Y031998D01*
X008888Y031995D01*
X008837Y031996D01*
X008788Y032001D01*
X008738Y032010D01*
X008690Y032023D01*
X008643Y032039D01*
X008597Y032060D01*
X008553Y032084D01*
X008511Y032111D01*
X008471Y032141D01*
X008434Y032175D01*
X008400Y032212D01*
X008368Y032251D01*
X008340Y032292D01*
X008315Y032336D01*
X008294Y032381D01*
X008277Y032428D01*
X008263Y032476D01*
X008253Y032525D01*
X008247Y032575D01*
X008245Y032625D01*
D11*
X009128Y030505D02*
X009281Y030352D01*
X009281Y030045D01*
X009435Y030122D02*
X009511Y030045D01*
X009665Y030045D01*
X009742Y030122D01*
X009742Y030198D01*
X009665Y030275D01*
X009588Y030275D01*
X009665Y030275D02*
X009742Y030352D01*
X009742Y030429D01*
X009665Y030505D01*
X009511Y030505D01*
X009435Y030429D01*
X009281Y030275D02*
X008974Y030275D01*
X008974Y030352D02*
X009128Y030505D01*
X008974Y030352D02*
X008974Y030045D01*
X009128Y029505D02*
X009281Y029352D01*
X009281Y029045D01*
X009435Y029045D02*
X009742Y029352D01*
X009742Y029429D01*
X009665Y029505D01*
X009511Y029505D01*
X009435Y029429D01*
X009281Y029275D02*
X008974Y029275D01*
X008974Y029352D02*
X009128Y029505D01*
X008974Y029352D02*
X008974Y029045D01*
X009435Y029045D02*
X009742Y029045D01*
X009588Y028505D02*
X009588Y028045D01*
X009435Y028045D02*
X009742Y028045D01*
X009435Y028352D02*
X009588Y028505D01*
X009281Y028352D02*
X009281Y028045D01*
X009281Y028275D02*
X008974Y028275D01*
X008974Y028352D02*
X009128Y028505D01*
X009281Y028352D01*
X008974Y028352D02*
X008974Y028045D01*
X009128Y027505D02*
X009281Y027352D01*
X009281Y027045D01*
X009435Y027122D02*
X009742Y027429D01*
X009742Y027122D01*
X009665Y027045D01*
X009511Y027045D01*
X009435Y027122D01*
X009435Y027429D01*
X009511Y027505D01*
X009665Y027505D01*
X009742Y027429D01*
X009281Y027275D02*
X008974Y027275D01*
X008974Y027352D02*
X009128Y027505D01*
X008974Y027352D02*
X008974Y027045D01*
X008974Y026505D02*
X009204Y026505D01*
X009281Y026429D01*
X009281Y026275D01*
X009204Y026198D01*
X008974Y026198D01*
X008974Y026045D02*
X008974Y026505D01*
X009128Y026198D02*
X009281Y026045D01*
X009588Y026045D02*
X009588Y026505D01*
X009435Y026505D02*
X009742Y026505D01*
X009665Y025505D02*
X009742Y025429D01*
X009742Y025275D01*
X009665Y025198D01*
X009435Y025198D01*
X009435Y025045D02*
X009435Y025505D01*
X009665Y025505D01*
X009588Y025198D02*
X009742Y025045D01*
X009281Y025122D02*
X009281Y025429D01*
X009204Y025505D01*
X008974Y025505D01*
X008974Y025045D01*
X009204Y025045D01*
X009281Y025122D01*
X008821Y025122D02*
X008821Y025429D01*
X008744Y025505D01*
X008514Y025505D01*
X008514Y025045D01*
X008744Y025045D01*
X008821Y025122D01*
X008360Y025045D02*
X008360Y025352D01*
X008207Y025505D01*
X008053Y025352D01*
X008053Y025045D01*
X008053Y025275D02*
X008360Y025275D01*
X008360Y026045D02*
X008360Y026352D01*
X008207Y026505D01*
X008053Y026352D01*
X008053Y026045D01*
X008053Y026275D02*
X008360Y026275D01*
X008514Y026045D02*
X008821Y026045D01*
X008514Y026045D02*
X008514Y026505D01*
X008591Y024505D02*
X008514Y024429D01*
X008514Y024352D01*
X008591Y024275D01*
X008744Y024275D01*
X008821Y024198D01*
X008821Y024122D01*
X008744Y024045D01*
X008591Y024045D01*
X008514Y024122D01*
X008591Y024505D02*
X008744Y024505D01*
X008821Y024429D01*
X008974Y024505D02*
X008974Y024045D01*
X009204Y024045D01*
X009281Y024122D01*
X009281Y024429D01*
X009204Y024505D01*
X008974Y024505D01*
X009435Y024352D02*
X009435Y024045D01*
X009435Y024275D02*
X009742Y024275D01*
X009742Y024352D02*
X009742Y024045D01*
X009742Y024352D02*
X009588Y024505D01*
X009435Y024352D01*
X009435Y023505D02*
X009435Y023045D01*
X009742Y023045D01*
X009281Y023122D02*
X009204Y023045D01*
X009051Y023045D01*
X008974Y023122D01*
X008974Y023429D01*
X009051Y023505D01*
X009204Y023505D01*
X009281Y023429D01*
X008821Y023429D02*
X008744Y023505D01*
X008591Y023505D01*
X008514Y023429D01*
X008514Y023352D01*
X008591Y023275D01*
X008744Y023275D01*
X008821Y023198D01*
X008821Y023122D01*
X008744Y023045D01*
X008591Y023045D01*
X008514Y023122D01*
X008591Y022505D02*
X008514Y022429D01*
X008514Y022122D01*
X008591Y022045D01*
X008744Y022045D01*
X008821Y022122D01*
X008821Y022275D01*
X008667Y022275D01*
X008821Y022429D02*
X008744Y022505D01*
X008591Y022505D01*
X008974Y022505D02*
X009281Y022045D01*
X009281Y022505D01*
X009435Y022505D02*
X009665Y022505D01*
X009742Y022429D01*
X009742Y022122D01*
X009665Y022045D01*
X009435Y022045D01*
X009435Y022505D01*
X008974Y022505D02*
X008974Y022045D01*
X008974Y021505D02*
X009204Y021505D01*
X009281Y021429D01*
X009281Y021122D01*
X009204Y021045D01*
X008974Y021045D01*
X008974Y021505D01*
X008821Y021505D02*
X008821Y021198D01*
X008667Y021045D01*
X008514Y021198D01*
X008514Y021505D01*
X009435Y021505D02*
X009435Y021045D01*
X009665Y021045D01*
X009742Y021122D01*
X009742Y021429D01*
X009665Y021505D01*
X009435Y021505D01*
X010102Y018033D02*
X010102Y017726D01*
X009948Y017880D02*
X010255Y017880D01*
X017536Y018164D02*
X017536Y018290D01*
X017597Y018384D01*
X017701Y018438D01*
X017810Y018433D01*
X017942Y018406D01*
X017986Y018389D01*
X018134Y018241D01*
X018309Y018033D01*
X018370Y017918D01*
X018370Y017912D02*
X018348Y017857D01*
X018304Y017819D01*
X018276Y017814D01*
X018254Y017737D01*
X018178Y017627D01*
X018101Y017534D01*
X017997Y017506D01*
X017925Y017517D01*
X017816Y017578D01*
X017734Y017682D01*
X017657Y017759D01*
X017624Y017901D01*
X017558Y018005D01*
X017536Y018164D01*
X017668Y018142D02*
X017662Y018274D01*
X017690Y018323D01*
X017745Y018318D01*
X017904Y018269D01*
X018030Y018175D01*
X018139Y018033D01*
X018183Y017972D01*
X018183Y017835D01*
X018161Y017770D01*
X018035Y017649D01*
X017904Y017649D01*
X017827Y017759D01*
X017761Y017874D01*
X017717Y018011D01*
X017668Y018142D01*
X017569Y018652D02*
X017536Y018647D01*
X017503Y018663D01*
X017498Y018680D01*
X017531Y018724D01*
X017701Y018937D01*
X017838Y019140D01*
X017838Y019179D01*
X017799Y019190D01*
X017690Y019228D01*
X017591Y019261D01*
X017536Y019283D01*
X017503Y019283D01*
X017558Y019343D01*
X017640Y019349D01*
X017695Y019338D01*
X017871Y019288D01*
X017969Y019261D01*
X018106Y019201D01*
X018178Y019162D01*
X018216Y019146D01*
X018222Y019184D01*
X018189Y019228D01*
X018194Y019228D01*
X018216Y019244D01*
X018232Y019272D01*
X018254Y019283D01*
X018287Y019277D01*
X018320Y019244D01*
X018342Y019184D01*
X018370Y019113D01*
X018370Y018795D01*
X018353Y018729D01*
X018326Y018652D01*
X018298Y018608D01*
X018254Y018570D01*
X018227Y018559D01*
X018178Y018586D01*
X018134Y018586D01*
X018090Y018630D01*
X018052Y018691D01*
X017997Y018811D01*
X017925Y018926D01*
X017893Y018981D01*
X017810Y018899D01*
X017739Y018795D01*
X017679Y018718D01*
X017624Y018674D01*
X017569Y018652D01*
X018046Y018954D02*
X018030Y019036D01*
X017997Y019102D01*
X018183Y018998D01*
X018238Y018992D01*
X018238Y018795D01*
X018227Y018729D01*
X018194Y018713D01*
X018183Y018751D01*
X018128Y018806D01*
X018084Y018883D01*
X018046Y018954D01*
X018178Y019480D02*
X018128Y019502D01*
X018090Y019535D01*
X018046Y019601D01*
X017925Y019842D01*
X017876Y019968D01*
X017854Y020067D01*
X017849Y020100D01*
X017849Y020138D01*
X017799Y020154D01*
X017701Y020187D01*
X017613Y020215D01*
X017575Y020237D01*
X017553Y020248D01*
X017542Y020270D01*
X017558Y020297D01*
X017591Y020319D01*
X017629Y020319D01*
X017673Y020308D01*
X017777Y020259D01*
X017854Y020226D01*
X017925Y020215D01*
X017991Y020198D01*
X018079Y020171D01*
X018145Y020143D01*
X018189Y020116D01*
X018189Y020160D01*
X018282Y020160D01*
X018282Y020111D01*
X018315Y020067D01*
X018359Y020023D01*
X018331Y019974D01*
X018331Y019776D01*
X018315Y019617D01*
X018249Y019508D01*
X018200Y019480D01*
X018178Y019480D01*
X018183Y019606D02*
X018167Y019612D01*
X018145Y019639D01*
X018101Y019727D01*
X018052Y019798D01*
X018024Y019897D01*
X017997Y019968D01*
X017991Y020012D01*
X017991Y020078D01*
X018194Y019979D01*
X018222Y019968D01*
X018222Y019688D01*
X018194Y019623D01*
X018183Y019606D01*
X018962Y020116D02*
X018962Y019031D01*
X019148Y018954D01*
X019137Y019025D01*
X019137Y019815D01*
X019154Y019836D01*
X019192Y019842D01*
X019225Y019831D01*
X019411Y019787D01*
X019411Y018888D01*
X019789Y018795D01*
X019981Y018795D01*
X020003Y018817D01*
X020058Y018888D01*
X020080Y018948D01*
X020080Y019809D01*
X020075Y019842D01*
X020053Y019908D01*
X019998Y019995D01*
X019926Y020045D01*
X019795Y020111D01*
X019735Y020127D01*
X019247Y020237D01*
X019159Y020248D01*
X019104Y020248D01*
X019044Y020231D01*
X019005Y020204D01*
X018973Y020160D01*
X018962Y020116D01*
X019121Y020467D02*
X019027Y020549D01*
X018995Y020615D01*
X018962Y020719D01*
X018962Y022621D01*
X019022Y022589D01*
X019060Y022589D01*
X019493Y022764D01*
X019049Y023219D01*
X018962Y023268D01*
X018962Y023592D01*
X019060Y023455D01*
X019658Y022819D01*
X020420Y023131D01*
X020480Y023192D01*
X020480Y022589D01*
X020447Y022589D01*
X020414Y022605D01*
X020387Y022589D01*
X020360Y022589D01*
X020014Y022451D01*
X020398Y022062D01*
X020425Y022040D01*
X020458Y022024D01*
X020480Y022018D01*
X020480Y021673D01*
X020431Y021744D01*
X020393Y021799D01*
X020327Y021876D01*
X019844Y022391D01*
X019088Y022084D01*
X018967Y021996D01*
X018967Y021980D01*
X019000Y021947D01*
X019132Y021903D01*
X019378Y021837D01*
X019691Y021761D01*
X020272Y021618D01*
X020371Y021596D01*
X020480Y021596D01*
X020480Y020352D01*
X020464Y020286D01*
X020436Y020242D01*
X020376Y020209D01*
X020321Y020187D01*
X020228Y020187D01*
X020184Y020204D01*
X019910Y020270D01*
X019855Y020291D01*
X019773Y020374D01*
X019746Y020439D01*
X019724Y020527D01*
X019724Y020637D01*
X019702Y020478D01*
X019647Y020363D01*
X019636Y020357D01*
X019488Y020357D01*
X019247Y020418D01*
X019186Y020456D01*
X019121Y020467D01*
X019236Y020845D02*
X019203Y020867D01*
X019159Y020906D01*
X019148Y020927D01*
X019148Y021459D01*
X019630Y021333D01*
X019630Y020834D01*
X019614Y020790D01*
X019576Y020763D01*
X019559Y020763D01*
X019236Y020845D01*
X019828Y020746D02*
X019828Y021295D01*
X020294Y021180D01*
X020294Y020675D01*
X020266Y020626D01*
X020179Y020620D01*
X019888Y020697D01*
X019850Y020714D01*
X019828Y020746D01*
X019587Y019738D02*
X019581Y019732D01*
X019581Y019261D01*
X019817Y019201D01*
X019888Y019201D01*
X019905Y019217D01*
X019910Y019239D01*
X019910Y019628D01*
X019894Y019661D01*
X019855Y019683D01*
X019811Y019699D01*
X019587Y019738D01*
X019247Y018778D02*
X019735Y018669D01*
X019795Y018652D01*
X019926Y018586D01*
X019998Y018537D01*
X020053Y018449D01*
X020075Y018384D01*
X020080Y018351D01*
X020080Y017490D01*
X020058Y017430D01*
X020003Y017358D01*
X019981Y017337D01*
X019789Y017337D01*
X019411Y017430D01*
X019411Y018329D01*
X019225Y018373D01*
X019192Y018384D01*
X019154Y018378D01*
X019137Y018356D01*
X019137Y017567D01*
X019148Y017496D01*
X018962Y017572D01*
X018962Y018658D01*
X018973Y018702D01*
X019005Y018746D01*
X019044Y018773D01*
X019104Y018789D01*
X019159Y018789D01*
X019247Y018778D01*
X019587Y018279D02*
X019581Y018274D01*
X019581Y017803D01*
X019817Y017742D01*
X019888Y017742D01*
X019905Y017759D01*
X019910Y017781D01*
X019910Y018170D01*
X019894Y018203D01*
X019855Y018225D01*
X019811Y018241D01*
X019587Y018279D01*
X022145Y017157D02*
X022452Y016697D01*
X022605Y016697D02*
X022836Y016697D01*
X022912Y016773D01*
X022912Y016850D01*
X022836Y016927D01*
X022605Y016927D01*
X022605Y016697D02*
X022605Y017157D01*
X022836Y017157D01*
X022912Y017080D01*
X022912Y017004D01*
X022836Y016927D01*
X023066Y016927D02*
X023219Y016927D01*
X023066Y017157D02*
X023066Y016697D01*
X023373Y016697D01*
X023526Y016697D02*
X023833Y016697D01*
X023987Y016773D02*
X024293Y017080D01*
X024293Y016773D01*
X024217Y016697D01*
X024063Y016697D01*
X023987Y016773D01*
X023987Y017080D01*
X024063Y017157D01*
X024217Y017157D01*
X024293Y017080D01*
X023833Y017157D02*
X023526Y017157D01*
X023526Y016697D01*
X023526Y016927D02*
X023680Y016927D01*
X023373Y017157D02*
X023066Y017157D01*
X022452Y017157D02*
X022145Y016697D01*
X022322Y020245D02*
X022245Y020322D01*
X022552Y020629D01*
X022552Y020322D01*
X022475Y020245D01*
X022322Y020245D01*
X022245Y020322D02*
X022245Y020629D01*
X022322Y020705D01*
X022475Y020705D01*
X022552Y020629D01*
X022705Y020322D02*
X022782Y020322D01*
X022782Y020245D01*
X022705Y020245D01*
X022705Y020322D01*
X022936Y020245D02*
X023243Y020245D01*
X023089Y020245D02*
X023089Y020705D01*
X022936Y020552D01*
X023396Y020552D02*
X023396Y020322D01*
X023473Y020245D01*
X023703Y020245D01*
X023703Y020552D01*
X023856Y020475D02*
X024010Y020475D01*
X023856Y020245D02*
X023856Y020705D01*
X024163Y020705D01*
X023646Y021795D02*
X023493Y021795D01*
X023416Y021872D01*
X023262Y021795D02*
X022955Y021795D01*
X023109Y021795D02*
X023109Y022255D01*
X022955Y022102D01*
X022802Y022179D02*
X022725Y022255D01*
X022572Y022255D01*
X022495Y022179D01*
X022495Y021872D01*
X022572Y021795D01*
X022725Y021795D01*
X022802Y021872D01*
X023416Y022179D02*
X023493Y022255D01*
X023646Y022255D01*
X023723Y022179D01*
X023723Y022102D01*
X023646Y022025D01*
X023723Y021948D01*
X023723Y021872D01*
X023646Y021795D01*
X023646Y022025D02*
X023569Y022025D01*
X023526Y023295D02*
X023833Y023295D01*
X023987Y023295D02*
X024293Y023295D01*
X024140Y023295D02*
X024140Y023755D01*
X023987Y023602D01*
X023833Y023755D02*
X023526Y023755D01*
X023526Y023295D01*
X023373Y023295D02*
X023066Y023295D01*
X023066Y023755D01*
X023373Y023755D01*
X023526Y023525D02*
X023680Y023525D01*
X023219Y023525D02*
X023066Y023525D01*
X022912Y023448D02*
X022912Y023372D01*
X022836Y023295D01*
X022605Y023295D01*
X022605Y023755D01*
X022836Y023755D01*
X022912Y023679D01*
X022912Y023602D01*
X022836Y023525D01*
X022605Y023525D01*
X022836Y023525D02*
X022912Y023448D01*
X022452Y023295D02*
X022145Y023755D01*
X022452Y023755D02*
X022145Y023295D01*
X020278Y029795D02*
X020355Y029872D01*
X020355Y030025D01*
X020278Y030102D01*
X020202Y030102D01*
X020125Y030025D01*
X020125Y029872D01*
X020048Y029795D01*
X019971Y029795D01*
X019895Y029872D01*
X019895Y030025D01*
X019971Y030102D01*
X019971Y030255D02*
X020278Y030255D01*
X020355Y030332D01*
X020355Y030486D01*
X020278Y030562D01*
X020355Y030716D02*
X020355Y031023D01*
X020125Y031176D02*
X020125Y031483D01*
X020125Y031637D02*
X020125Y031943D01*
X020048Y031943D02*
X020355Y031943D01*
X020278Y032097D02*
X020355Y032174D01*
X020355Y032327D01*
X020278Y032404D01*
X020125Y032404D01*
X020048Y032327D01*
X020048Y032250D01*
X020125Y032097D01*
X019895Y032097D01*
X019895Y032404D01*
X019841Y032545D02*
X019994Y032545D01*
X020071Y032622D01*
X020071Y032698D01*
X019994Y032775D01*
X019841Y032775D01*
X019764Y032852D01*
X019764Y032929D01*
X019841Y033005D01*
X019994Y033005D01*
X020071Y032929D01*
X020224Y033005D02*
X020378Y032852D01*
X020531Y033005D01*
X020531Y032545D01*
X020685Y032545D02*
X020915Y032545D01*
X020992Y032622D01*
X020992Y032929D01*
X020915Y033005D01*
X020685Y033005D01*
X020685Y032545D01*
X020224Y032545D02*
X020224Y033005D01*
X019841Y032545D02*
X019764Y032622D01*
X019610Y032622D02*
X019534Y032545D01*
X019380Y032545D01*
X019303Y032622D01*
X019303Y032929D01*
X019380Y033005D01*
X019534Y033005D01*
X019610Y032929D01*
X019150Y033005D02*
X018843Y033005D01*
X018996Y033005D02*
X018996Y032545D01*
X018690Y032775D02*
X018613Y032698D01*
X018383Y032698D01*
X018383Y032545D02*
X018383Y033005D01*
X018613Y033005D01*
X018690Y032929D01*
X018690Y032775D01*
X019895Y031790D02*
X020048Y031943D01*
X019895Y031790D02*
X020048Y031637D01*
X020355Y031637D01*
X020355Y030716D02*
X019895Y030716D01*
X019971Y030562D02*
X019895Y030486D01*
X019895Y030332D01*
X019971Y030255D01*
X016355Y030255D02*
X016355Y030486D01*
X016278Y030562D01*
X015971Y030562D01*
X015895Y030486D01*
X015895Y030255D01*
X016355Y030255D01*
X016278Y030102D02*
X016355Y030025D01*
X016355Y029872D01*
X016278Y029795D01*
X016125Y029872D02*
X016125Y030025D01*
X016202Y030102D01*
X016278Y030102D01*
X016125Y029872D02*
X016048Y029795D01*
X015971Y029795D01*
X015895Y029872D01*
X015895Y030025D01*
X015971Y030102D01*
X016048Y030716D02*
X015895Y030869D01*
X016048Y031023D01*
X016355Y031023D01*
X016125Y031023D02*
X016125Y030716D01*
X016048Y030716D02*
X016355Y030716D01*
X016125Y031176D02*
X016125Y031483D01*
X016125Y031637D02*
X016125Y031943D01*
X016048Y031943D02*
X016355Y031943D01*
X016125Y032097D02*
X016125Y032404D01*
X016355Y032327D02*
X015895Y032327D01*
X016125Y032097D01*
X016048Y031943D02*
X015895Y031790D01*
X016048Y031637D01*
X016355Y031637D01*
X015692Y032495D02*
X015385Y032495D01*
X015692Y032802D01*
X015692Y032879D01*
X015615Y032955D01*
X015461Y032955D01*
X015385Y032879D01*
X015231Y032955D02*
X014924Y032955D01*
X014924Y032495D01*
X014924Y032725D02*
X015078Y032725D01*
X033145Y022929D02*
X033145Y022852D01*
X033222Y022775D01*
X033375Y022775D01*
X033452Y022698D01*
X033452Y022622D01*
X033375Y022545D01*
X033222Y022545D01*
X033145Y022622D01*
X033145Y022929D02*
X033222Y023005D01*
X033375Y023005D01*
X033452Y022929D01*
X033605Y023005D02*
X033836Y023005D01*
X033912Y022929D01*
X033912Y022775D01*
X033836Y022698D01*
X033605Y022698D01*
X033605Y022545D02*
X033605Y023005D01*
X034066Y023005D02*
X034066Y022545D01*
X034373Y022545D01*
X034219Y022775D02*
X034066Y022775D01*
X034066Y023005D02*
X034373Y023005D01*
X034373Y022255D02*
X034066Y022255D01*
X034219Y022255D02*
X034219Y021795D01*
X033912Y021795D02*
X033759Y021948D01*
X033836Y021948D02*
X033605Y021948D01*
X033605Y021795D02*
X033605Y022255D01*
X033836Y022255D01*
X033912Y022179D01*
X033912Y022025D01*
X033836Y021948D01*
X033452Y022025D02*
X033452Y022179D01*
X033375Y022255D01*
X033145Y022255D01*
X033145Y021795D01*
X033145Y021948D02*
X033375Y021948D01*
X033452Y022025D01*
X034526Y022025D02*
X034833Y022025D01*
X034987Y022102D02*
X035140Y022255D01*
X035140Y021795D01*
X034987Y021795D02*
X035293Y021795D01*
X035447Y021872D02*
X035754Y022179D01*
X035754Y021872D01*
X035677Y021795D01*
X035524Y021795D01*
X035447Y021872D01*
X035447Y022179D01*
X035524Y022255D01*
X035677Y022255D01*
X035754Y022179D01*
X035907Y022179D02*
X035907Y022102D01*
X035984Y022025D01*
X036214Y022025D01*
X036214Y021872D02*
X036214Y022179D01*
X036138Y022255D01*
X035984Y022255D01*
X035907Y022179D01*
X035907Y021872D02*
X035984Y021795D01*
X036138Y021795D01*
X036214Y021872D01*
X036368Y021872D02*
X036444Y021795D01*
X036598Y021795D01*
X036675Y021872D01*
X036675Y021948D01*
X036598Y022025D01*
X036368Y022025D01*
X036368Y021872D01*
X036368Y022025D02*
X036521Y022179D01*
X036675Y022255D01*
X036828Y022179D02*
X036828Y022102D01*
X036905Y022025D01*
X037058Y022025D01*
X037135Y021948D01*
X037135Y021872D01*
X037058Y021795D01*
X036905Y021795D01*
X036828Y021872D01*
X036828Y021948D01*
X036905Y022025D01*
X037058Y022025D02*
X037135Y022102D01*
X037135Y022179D01*
X037058Y022255D01*
X036905Y022255D01*
X036828Y022179D01*
X035855Y019619D02*
X035395Y019619D01*
X035395Y019312D02*
X035855Y019619D01*
X035855Y019312D02*
X035395Y019312D01*
X035395Y019159D02*
X035395Y019005D01*
X035395Y019082D02*
X035855Y019082D01*
X035855Y019005D02*
X035855Y019159D01*
X035702Y018852D02*
X035395Y018852D01*
X035702Y018852D02*
X035855Y018698D01*
X035702Y018545D01*
X035395Y018545D01*
X034855Y018622D02*
X034855Y018775D01*
X034778Y018852D01*
X034625Y018852D01*
X034548Y018775D01*
X034548Y018698D01*
X034625Y018545D01*
X034395Y018545D01*
X034395Y018852D01*
X034395Y019005D02*
X034702Y019005D01*
X034855Y019159D01*
X034702Y019312D01*
X034395Y019312D01*
X033855Y019312D02*
X033395Y019312D01*
X033395Y019466D02*
X033395Y019696D01*
X033471Y019773D01*
X033778Y019773D01*
X033855Y019696D01*
X033855Y019466D01*
X033395Y019466D01*
X033395Y019005D02*
X033855Y019312D01*
X033855Y019005D02*
X033395Y019005D01*
X033471Y018852D02*
X033395Y018775D01*
X033395Y018622D01*
X033471Y018545D01*
X033778Y018545D01*
X033855Y018622D01*
X033855Y018775D01*
X033778Y018852D01*
X033625Y018852D01*
X033625Y018698D01*
X034778Y018545D02*
X034855Y018622D01*
X040748Y016832D02*
X040748Y016755D01*
X040825Y016679D01*
X040978Y016679D01*
X041055Y016602D01*
X041055Y016525D01*
X040978Y016449D01*
X040825Y016449D01*
X040748Y016525D01*
X040748Y016832D02*
X040825Y016909D01*
X040978Y016909D01*
X041055Y016832D01*
X041208Y016909D02*
X041208Y016449D01*
X041362Y016602D01*
X041515Y016449D01*
X041515Y016909D01*
X041669Y016755D02*
X041822Y016909D01*
X041822Y016449D01*
X041669Y016449D02*
X041976Y016449D01*
X044395Y016142D02*
X044395Y015835D01*
X044855Y015835D01*
X044778Y015681D02*
X044471Y015681D01*
X044395Y015604D01*
X044395Y015451D01*
X044471Y015374D01*
X044778Y015374D01*
X044855Y015451D01*
X044855Y015604D01*
X044778Y015681D01*
X044625Y015835D02*
X044625Y015988D01*
X044778Y015221D02*
X044471Y015221D01*
X044395Y015144D01*
X044395Y014914D01*
X044855Y014914D01*
X044855Y015144D01*
X044778Y015221D01*
X044855Y014760D02*
X044855Y014453D01*
X044855Y014300D02*
X044855Y013993D01*
X044855Y014146D02*
X044395Y014146D01*
X044548Y013993D01*
X044548Y014453D02*
X044395Y014607D01*
X044855Y014607D01*
X046475Y014326D02*
X046662Y014326D01*
X046755Y014233D01*
X046662Y014140D01*
X046475Y014140D01*
X046475Y014032D02*
X046475Y013845D01*
X046615Y013845D01*
X046568Y013938D01*
X046568Y013985D01*
X046615Y014032D01*
X046708Y014032D01*
X046755Y013985D01*
X046755Y013892D01*
X046708Y013845D01*
X046708Y015908D02*
X046755Y015954D01*
X046755Y016048D01*
X046708Y016094D01*
X046615Y016094D01*
X046615Y016001D01*
X046708Y015908D02*
X046521Y015908D01*
X046475Y015954D01*
X046475Y016048D01*
X046521Y016094D01*
X046475Y016202D02*
X046755Y016389D01*
X046475Y016389D01*
X046475Y016497D02*
X046475Y016637D01*
X046521Y016684D01*
X046708Y016684D01*
X046755Y016637D01*
X046755Y016497D01*
X046475Y016497D01*
X046475Y016202D02*
X046755Y016202D01*
X046748Y019895D02*
X046595Y020048D01*
X047055Y020048D01*
X047055Y019895D02*
X047055Y020202D01*
X046978Y020355D02*
X046671Y020662D01*
X046978Y020662D01*
X047055Y020586D01*
X047055Y020432D01*
X046978Y020355D01*
X046671Y020355D01*
X046595Y020432D01*
X046595Y020586D01*
X046671Y020662D01*
X046595Y020816D02*
X047055Y020816D01*
X046902Y020816D02*
X047055Y021046D01*
X046902Y020816D02*
X046748Y021046D01*
X046671Y021895D02*
X046595Y021972D01*
X046595Y022125D01*
X046671Y022202D01*
X046978Y021895D01*
X047055Y021972D01*
X047055Y022125D01*
X046978Y022202D01*
X046671Y022202D01*
X046671Y021895D02*
X046978Y021895D01*
X046978Y022355D02*
X046978Y022432D01*
X047055Y022432D01*
X047055Y022355D01*
X046978Y022355D01*
X047055Y022586D02*
X047055Y022893D01*
X047055Y022739D02*
X046595Y022739D01*
X046748Y022586D01*
X046748Y023046D02*
X046978Y023046D01*
X047055Y023123D01*
X047055Y023353D01*
X046748Y023353D01*
X046825Y023506D02*
X046825Y023660D01*
X047055Y023506D02*
X046595Y023506D01*
X046595Y023813D01*
X046305Y023905D02*
X046305Y024212D01*
X046305Y024059D02*
X045845Y024059D01*
X045998Y023905D01*
X045921Y023752D02*
X045845Y023675D01*
X045845Y023522D01*
X045921Y023445D01*
X046228Y023445D01*
X046305Y023522D01*
X046305Y023675D01*
X046228Y023752D01*
X045355Y023656D02*
X045355Y023503D01*
X045278Y023426D01*
X045202Y023426D01*
X045125Y023503D01*
X045125Y023656D01*
X045202Y023733D01*
X045278Y023733D01*
X045355Y023656D01*
X045125Y023656D02*
X045048Y023733D01*
X044971Y023733D01*
X044895Y023656D01*
X044895Y023503D01*
X044971Y023426D01*
X045048Y023426D01*
X045125Y023503D01*
X045202Y023273D02*
X045278Y023273D01*
X045355Y023196D01*
X045355Y023043D01*
X045278Y022966D01*
X045278Y022812D02*
X045355Y022736D01*
X045355Y022582D01*
X045278Y022505D01*
X045278Y022352D02*
X045355Y022275D01*
X045355Y022045D01*
X044895Y022045D01*
X044895Y022275D01*
X044971Y022352D01*
X045048Y022352D01*
X045125Y022275D01*
X045125Y022045D01*
X045125Y022275D02*
X045202Y022352D01*
X045278Y022352D01*
X045048Y022505D02*
X045125Y022582D01*
X045125Y022736D01*
X045202Y022812D01*
X045278Y022812D01*
X045048Y022966D02*
X045125Y023043D01*
X045125Y023196D01*
X045202Y023273D01*
X044971Y023273D02*
X044895Y023196D01*
X044895Y023043D01*
X044971Y022966D01*
X045048Y022966D01*
X044971Y022812D02*
X044895Y022736D01*
X044895Y022582D01*
X044971Y022505D01*
X045048Y022505D01*
X045125Y023887D02*
X045125Y024193D01*
X045355Y024117D02*
X044895Y024117D01*
X045125Y023887D01*
X045845Y024366D02*
X046075Y024366D01*
X045998Y024519D01*
X045998Y024596D01*
X046075Y024673D01*
X046228Y024673D01*
X046305Y024596D01*
X046305Y024443D01*
X046228Y024366D01*
X045845Y024366D02*
X045845Y024673D01*
X046421Y026745D02*
X046345Y026822D01*
X046345Y026975D01*
X046421Y027052D01*
X046575Y027205D02*
X046345Y027436D01*
X046805Y027436D01*
X046575Y027512D02*
X046575Y027205D01*
X046728Y027052D02*
X046805Y026975D01*
X046805Y026822D01*
X046728Y026745D01*
X046421Y026745D01*
X046055Y027425D02*
X045595Y027425D01*
X045825Y027195D01*
X045825Y027502D01*
X045978Y027655D02*
X045978Y027732D01*
X046055Y027732D01*
X046055Y027655D01*
X045978Y027655D01*
X045978Y027886D02*
X046055Y027886D01*
X045978Y027886D02*
X045671Y028193D01*
X045595Y028193D01*
X045595Y027886D01*
X045748Y028346D02*
X045978Y028346D01*
X046055Y028423D01*
X046055Y028653D01*
X045748Y028653D01*
X045825Y028806D02*
X045825Y028960D01*
X046055Y028806D02*
X045595Y028806D01*
X045595Y029113D01*
X045671Y029795D02*
X045595Y029872D01*
X045595Y030025D01*
X045671Y030102D01*
X045978Y029795D01*
X046055Y029872D01*
X046055Y030025D01*
X045978Y030102D01*
X045671Y030102D01*
X045671Y029795D02*
X045978Y029795D01*
X045978Y030255D02*
X045978Y030332D01*
X046055Y030332D01*
X046055Y030255D01*
X045978Y030255D01*
X046055Y030486D02*
X046055Y030793D01*
X046055Y030639D02*
X045595Y030639D01*
X045748Y030486D01*
X045748Y030946D02*
X045978Y030946D01*
X046055Y031023D01*
X046055Y031253D01*
X045748Y031253D01*
X045825Y031406D02*
X045825Y031560D01*
X046055Y031406D02*
X045595Y031406D01*
X045595Y031713D01*
X045430Y032445D02*
X044970Y032445D01*
X045430Y032445D02*
X045430Y032752D01*
X045430Y032905D02*
X045430Y033212D01*
X045430Y033059D02*
X044970Y033059D01*
X045123Y032905D01*
X044230Y033043D02*
X044230Y033196D01*
X044153Y033273D01*
X044000Y033273D01*
X043923Y033196D01*
X043923Y033043D01*
X044000Y032966D01*
X044153Y032966D01*
X044230Y033043D01*
X044153Y032812D02*
X044230Y032736D01*
X044230Y032582D01*
X044153Y032505D01*
X043846Y032812D01*
X044153Y032812D01*
X044153Y032505D02*
X043846Y032505D01*
X043770Y032582D01*
X043770Y032736D01*
X043846Y032812D01*
X043846Y032352D02*
X043923Y032352D01*
X044000Y032275D01*
X044077Y032352D01*
X044153Y032352D01*
X044230Y032275D01*
X044230Y032122D01*
X044153Y032045D01*
X044000Y032198D02*
X044000Y032275D01*
X043846Y032352D02*
X043770Y032275D01*
X043770Y032122D01*
X043846Y032045D01*
X043654Y031455D02*
X043501Y031455D01*
X043424Y031379D01*
X043424Y031072D01*
X043501Y030995D01*
X043654Y030995D01*
X043731Y031072D01*
X043885Y030995D02*
X044192Y030995D01*
X044038Y030995D02*
X044038Y031455D01*
X043885Y031302D01*
X043731Y031379D02*
X043654Y031455D01*
X043271Y031455D02*
X043117Y031455D01*
X043194Y031455D02*
X043194Y030995D01*
X043117Y030995D02*
X043271Y030995D01*
X041555Y030806D02*
X041095Y030806D01*
X041095Y031113D01*
X041325Y030960D02*
X041325Y030806D01*
X041248Y030653D02*
X041555Y030653D01*
X041555Y030423D01*
X041478Y030346D01*
X041248Y030346D01*
X041095Y030039D02*
X041555Y030039D01*
X041555Y029886D02*
X041555Y030193D01*
X041248Y029886D02*
X041095Y030039D01*
X041478Y029732D02*
X041478Y029655D01*
X041555Y029655D01*
X041555Y029732D01*
X041478Y029732D01*
X041478Y029502D02*
X041171Y029502D01*
X041478Y029195D01*
X041555Y029272D01*
X041555Y029425D01*
X041478Y029502D01*
X041171Y029502D02*
X041095Y029425D01*
X041095Y029272D01*
X041171Y029195D01*
X041478Y029195D01*
X040005Y029722D02*
X039928Y029645D01*
X039621Y029645D01*
X039545Y029722D01*
X039545Y029875D01*
X039621Y029952D01*
X039698Y030105D02*
X039545Y030259D01*
X040005Y030259D01*
X040005Y030412D02*
X040005Y030105D01*
X039928Y029952D02*
X040005Y029875D01*
X040005Y029722D01*
X040005Y030566D02*
X039698Y030873D01*
X039621Y030873D01*
X039545Y030796D01*
X039545Y030643D01*
X039621Y030566D01*
X040005Y030566D02*
X040005Y030873D01*
X039928Y031745D02*
X039621Y031745D01*
X039545Y031822D01*
X039545Y031975D01*
X039621Y032052D01*
X039698Y032205D02*
X039545Y032359D01*
X040005Y032359D01*
X040005Y032512D02*
X040005Y032205D01*
X039928Y032052D02*
X040005Y031975D01*
X040005Y031822D01*
X039928Y031745D01*
X040005Y032666D02*
X040005Y032973D01*
X040005Y032819D02*
X039545Y032819D01*
X039698Y032666D01*
X041095Y032339D02*
X041248Y032186D01*
X041095Y032339D02*
X041555Y032339D01*
X041555Y032186D02*
X041555Y032493D01*
X041478Y032646D02*
X041555Y032723D01*
X041555Y032953D01*
X041248Y032953D01*
X041325Y033106D02*
X041325Y033260D01*
X041555Y033106D02*
X041095Y033106D01*
X041095Y033413D01*
X041248Y032646D02*
X041478Y032646D01*
X041478Y032032D02*
X041555Y032032D01*
X041555Y031955D01*
X041478Y031955D01*
X041478Y032032D01*
X041478Y031802D02*
X041171Y031802D01*
X041478Y031495D01*
X041555Y031572D01*
X041555Y031725D01*
X041478Y031802D01*
X041171Y031802D02*
X041095Y031725D01*
X041095Y031572D01*
X041171Y031495D01*
X041478Y031495D01*
X043770Y033426D02*
X044230Y033426D01*
X044000Y033426D02*
X043923Y033503D01*
X043923Y033656D01*
X044000Y033733D01*
X044230Y033733D01*
X044230Y033887D02*
X043923Y033887D01*
X043923Y033963D01*
X044000Y034040D01*
X043923Y034117D01*
X044000Y034193D01*
X044230Y034193D01*
X044230Y034040D02*
X044000Y034040D01*
X044105Y034695D02*
X043645Y034695D01*
X043645Y035002D01*
X043798Y035155D02*
X043645Y035309D01*
X044105Y035309D01*
X044105Y035462D02*
X044105Y035155D01*
X043875Y034848D02*
X043875Y034695D01*
X045295Y034693D02*
X045371Y034616D01*
X045678Y034616D01*
X045755Y034693D01*
X045755Y034846D01*
X045678Y034923D01*
X045678Y035076D02*
X045755Y035153D01*
X045755Y035306D01*
X045678Y035383D01*
X045602Y035383D01*
X045525Y035306D01*
X045525Y035153D01*
X045448Y035076D01*
X045371Y035076D01*
X045295Y035153D01*
X045295Y035306D01*
X045371Y035383D01*
X045295Y035537D02*
X045755Y035537D01*
X045755Y035843D02*
X045295Y035843D01*
X045448Y035690D01*
X045295Y035537D01*
X045295Y035997D02*
X045295Y036227D01*
X045371Y036304D01*
X045678Y036304D01*
X045755Y036227D01*
X045755Y035997D01*
X045295Y035997D01*
X045371Y034923D02*
X045295Y034846D01*
X045295Y034693D01*
X045295Y034462D02*
X045295Y034155D01*
X045295Y034309D02*
X045755Y034309D01*
X045525Y034002D02*
X045602Y033925D01*
X045602Y033695D01*
X045755Y033695D02*
X045295Y033695D01*
X045295Y033925D01*
X045371Y034002D01*
X045525Y034002D01*
X046745Y031892D02*
X046745Y031585D01*
X046975Y031585D01*
X046898Y031738D01*
X046898Y031815D01*
X046975Y031892D01*
X047128Y031892D01*
X047205Y031815D01*
X047205Y031661D01*
X047128Y031585D01*
X047128Y031431D02*
X047205Y031354D01*
X047205Y031201D01*
X047128Y031124D01*
X046821Y031124D01*
X046745Y031201D01*
X046745Y031354D01*
X046821Y031431D01*
X040855Y036669D02*
X040395Y036669D01*
X040548Y036822D01*
X040395Y036976D01*
X040855Y036976D01*
X040855Y037129D02*
X040855Y037283D01*
X040855Y037206D02*
X040395Y037206D01*
X040395Y037129D02*
X040395Y037283D01*
X040395Y037436D02*
X040855Y037743D01*
X040395Y037743D01*
X040395Y037896D02*
X040395Y038050D01*
X040395Y037973D02*
X040855Y037973D01*
X040855Y037896D02*
X040855Y038050D01*
X040625Y038203D02*
X040625Y038510D01*
X040778Y038664D02*
X040855Y038741D01*
X040855Y038894D01*
X040778Y038971D01*
X040395Y038971D01*
X040471Y039124D02*
X040548Y039124D01*
X040625Y039201D01*
X040625Y039354D01*
X040702Y039431D01*
X040778Y039431D01*
X040855Y039354D01*
X040855Y039201D01*
X040778Y039124D01*
X040471Y039124D02*
X040395Y039201D01*
X040395Y039354D01*
X040471Y039431D01*
X040395Y039585D02*
X040395Y039815D01*
X040471Y039892D01*
X040548Y039892D01*
X040625Y039815D01*
X040625Y039585D01*
X040625Y039815D02*
X040702Y039892D01*
X040778Y039892D01*
X040855Y039815D01*
X040855Y039585D01*
X040395Y039585D01*
X040395Y038664D02*
X040778Y038664D01*
X041610Y038348D02*
X041610Y039406D01*
X041960Y039490D02*
X042042Y039490D01*
X042144Y040431D01*
X042348Y040431D01*
X042451Y039490D01*
X042532Y039490D01*
X042430Y040574D01*
X042426Y040593D01*
X042420Y040612D01*
X042410Y040629D01*
X042398Y040645D01*
X042383Y040658D01*
X042366Y040669D01*
X042348Y040676D01*
X042124Y040676D02*
X042106Y040669D01*
X042089Y040658D01*
X042074Y040645D01*
X042062Y040629D01*
X042052Y040612D01*
X042046Y040593D01*
X042042Y040574D01*
X041960Y039490D01*
X042124Y040675D02*
X042161Y040684D01*
X042198Y040690D01*
X042236Y040692D01*
X042274Y040690D01*
X042311Y040684D01*
X042348Y040675D01*
X042635Y040574D02*
X042716Y038979D01*
X042719Y038961D01*
X042726Y038944D01*
X042735Y038929D01*
X042748Y038916D01*
X042763Y038907D01*
X042780Y038900D01*
X042798Y038897D01*
X042798Y038898D02*
X043452Y038898D01*
X043452Y038897D02*
X043470Y038900D01*
X043487Y038907D01*
X043502Y038916D01*
X043515Y038929D01*
X043524Y038944D01*
X043531Y038961D01*
X043534Y038979D01*
X043616Y040574D01*
X043614Y040590D01*
X043610Y040605D01*
X043602Y040620D01*
X043592Y040632D01*
X043580Y040642D01*
X043565Y040650D01*
X043550Y040654D01*
X043534Y040656D01*
X043534Y040655D02*
X043534Y040655D01*
X043534Y040656D02*
X043518Y040654D01*
X043503Y040650D01*
X043488Y040642D01*
X043476Y040632D01*
X043466Y040620D01*
X043458Y040605D01*
X043454Y040590D01*
X043452Y040574D01*
X043370Y039225D01*
X042880Y039225D01*
X042798Y040574D01*
X042796Y040590D01*
X042792Y040605D01*
X042784Y040620D01*
X042774Y040632D01*
X042762Y040642D01*
X042747Y040650D01*
X042732Y040654D01*
X042716Y040656D01*
X042700Y040654D01*
X042685Y040650D01*
X042670Y040642D01*
X042658Y040632D01*
X042648Y040620D01*
X042640Y040605D01*
X042636Y040590D01*
X042634Y040574D01*
X041613Y040513D02*
X041613Y041105D01*
X044637Y041105D01*
X044637Y040513D01*
X044208Y040574D02*
X044290Y039490D01*
X044208Y039490D01*
X044106Y040431D01*
X043902Y040431D01*
X043799Y039490D01*
X043718Y039490D01*
X043820Y040574D01*
X043824Y040593D01*
X043830Y040612D01*
X043840Y040629D01*
X043852Y040645D01*
X043867Y040658D01*
X043884Y040669D01*
X043902Y040676D01*
X044127Y040676D02*
X044145Y040669D01*
X044162Y040658D01*
X044177Y040645D01*
X044189Y040629D01*
X044199Y040612D01*
X044205Y040593D01*
X044209Y040574D01*
X044126Y040675D02*
X044089Y040684D01*
X044052Y040690D01*
X044014Y040692D01*
X043976Y040690D01*
X043939Y040684D01*
X043902Y040675D01*
X044640Y041107D02*
X041610Y041107D01*
X041613Y041105D02*
X041613Y041105D01*
X044640Y039386D02*
X044640Y038388D01*
X044434Y038062D02*
X044148Y038062D01*
X044148Y037617D01*
X044434Y037617D01*
X042062Y037611D02*
X041813Y037611D01*
X042062Y037611D02*
X042062Y038062D01*
X041816Y038062D01*
X040855Y037436D02*
X040395Y037436D01*
X035847Y037345D02*
X035801Y037392D01*
X035801Y037579D01*
X035847Y037532D02*
X035754Y037532D01*
X035651Y037532D02*
X035558Y037532D01*
X035604Y037579D02*
X035604Y037392D01*
X035651Y037345D01*
X035450Y037345D02*
X035310Y037345D01*
X035263Y037392D01*
X035310Y037438D01*
X035450Y037438D01*
X035450Y037485D02*
X035450Y037345D01*
X035450Y037485D02*
X035403Y037532D01*
X035310Y037532D01*
X035155Y037485D02*
X035108Y037532D01*
X034968Y037532D01*
X034968Y037625D02*
X034968Y037345D01*
X035108Y037345D01*
X035155Y037392D01*
X035155Y037485D01*
X034860Y037438D02*
X034860Y037625D01*
X034674Y037625D02*
X034674Y037438D01*
X034767Y037345D01*
X034860Y037438D01*
X034271Y037345D02*
X034131Y037345D01*
X034084Y037392D01*
X034084Y037485D01*
X034131Y037532D01*
X034271Y037532D01*
X034271Y037625D02*
X034271Y037345D01*
X033976Y037345D02*
X033976Y037485D01*
X033930Y037532D01*
X033790Y037532D01*
X033790Y037345D01*
X033682Y037392D02*
X033682Y037485D01*
X033588Y037485D01*
X033495Y037392D02*
X033542Y037345D01*
X033635Y037345D01*
X033682Y037392D01*
X033682Y037579D02*
X033635Y037625D01*
X033542Y037625D01*
X033495Y037579D01*
X033495Y037392D01*
X045395Y039624D02*
X045855Y039931D01*
X045855Y040085D02*
X045855Y040392D01*
X045855Y040238D02*
X045395Y040238D01*
X045548Y040085D01*
X045395Y039931D02*
X045855Y039624D01*
X034903Y027855D02*
X034673Y027855D01*
X034673Y027395D01*
X034673Y027548D02*
X034903Y027548D01*
X034980Y027625D01*
X034980Y027779D01*
X034903Y027855D01*
X034519Y027779D02*
X034443Y027855D01*
X034289Y027855D01*
X034212Y027779D01*
X034212Y027702D01*
X034289Y027625D01*
X034443Y027625D01*
X034519Y027548D01*
X034519Y027472D01*
X034443Y027395D01*
X034289Y027395D01*
X034212Y027472D01*
X034059Y027472D02*
X033982Y027395D01*
X033829Y027395D01*
X033752Y027472D01*
X033752Y027779D01*
X033829Y027855D01*
X033982Y027855D01*
X034059Y027779D01*
X033598Y027855D02*
X033445Y027855D01*
X033522Y027855D02*
X033522Y027395D01*
X033598Y027395D02*
X033445Y027395D01*
X042895Y022736D02*
X042971Y022812D01*
X043048Y022812D01*
X043125Y022736D01*
X043202Y022812D01*
X043278Y022812D01*
X043355Y022736D01*
X043355Y022582D01*
X043278Y022505D01*
X043278Y022352D02*
X042971Y022352D01*
X042895Y022275D01*
X042895Y022122D01*
X042971Y022045D01*
X043278Y022045D01*
X043355Y022122D01*
X043355Y022275D01*
X043278Y022352D01*
X043355Y022352D02*
X043202Y022198D01*
X042971Y022505D02*
X042895Y022582D01*
X042895Y022736D01*
X043125Y022736D02*
X043125Y022659D01*
X045145Y020712D02*
X045221Y020712D01*
X045528Y020405D01*
X045605Y020405D01*
X045605Y020252D02*
X045452Y020098D01*
X045452Y020175D02*
X045452Y019945D01*
X045605Y019945D02*
X045145Y019945D01*
X045145Y020175D01*
X045221Y020252D01*
X045375Y020252D01*
X045452Y020175D01*
X045145Y020405D02*
X045145Y020712D01*
D12*
X045375Y018775D02*
X045125Y018525D01*
X045125Y018025D01*
X045375Y017775D01*
X045125Y017525D01*
X045125Y017025D01*
X045375Y016775D01*
X045875Y016775D01*
X046125Y017025D01*
X046125Y017525D01*
X045875Y017775D01*
X045375Y017775D01*
X045875Y017775D02*
X046125Y018025D01*
X046125Y018525D01*
X045875Y018775D01*
X045375Y018775D01*
X045375Y016775D02*
X045125Y016525D01*
X045125Y016025D01*
X045375Y015775D01*
X045125Y015525D01*
X045125Y015025D01*
X045375Y014775D01*
X045125Y014525D01*
X045125Y014025D01*
X045375Y013775D01*
X045875Y013775D01*
X046125Y014025D01*
X046125Y014525D01*
X045875Y014775D01*
X045375Y014775D01*
X045875Y014775D02*
X046125Y015025D01*
X046125Y015525D01*
X045875Y015775D01*
X045375Y015775D01*
X045875Y015775D02*
X046125Y016025D01*
X046125Y016525D01*
X045875Y016775D01*
X045013Y011745D02*
X044719Y011745D01*
X045013Y011745D02*
X045013Y011672D01*
X044719Y011378D01*
X044719Y011305D01*
X044553Y011305D02*
X044259Y011305D01*
X044406Y011305D02*
X044406Y011745D01*
X044259Y011599D01*
X044102Y011378D02*
X044102Y011305D01*
X044029Y011305D01*
X044029Y011378D01*
X044102Y011378D01*
X043862Y011525D02*
X043568Y011525D01*
X043789Y011745D01*
X043789Y011305D01*
X043799Y010995D02*
X044092Y010995D01*
X044092Y010922D01*
X043799Y010628D01*
X043799Y010555D01*
X043632Y010555D02*
X043338Y010555D01*
X043632Y010849D01*
X043632Y010922D01*
X043558Y010995D01*
X043412Y010995D01*
X043338Y010922D01*
X043171Y010775D02*
X042878Y010775D01*
X042711Y010849D02*
X042711Y010922D01*
X042638Y010995D01*
X042491Y010995D01*
X042417Y010922D01*
X042251Y010922D02*
X041957Y010628D01*
X042030Y010555D01*
X042177Y010555D01*
X042251Y010628D01*
X042251Y010922D01*
X042177Y010995D01*
X042030Y010995D01*
X041957Y010922D01*
X041957Y010628D01*
X041790Y010775D02*
X041497Y010775D01*
X041330Y010775D02*
X041330Y010628D01*
X041256Y010555D01*
X041110Y010555D01*
X041036Y010628D01*
X041036Y010775D02*
X041183Y010849D01*
X041256Y010849D01*
X041330Y010775D01*
X041330Y010995D02*
X041036Y010995D01*
X041036Y010775D01*
X040869Y010555D02*
X040576Y010555D01*
X040723Y010555D02*
X040723Y010995D01*
X040576Y010849D01*
X040409Y010922D02*
X040115Y010628D01*
X040189Y010555D01*
X040336Y010555D01*
X040409Y010628D01*
X040409Y010922D01*
X040336Y010995D01*
X040189Y010995D01*
X040115Y010922D01*
X040115Y010628D01*
X039949Y010555D02*
X039655Y010555D01*
X039949Y010849D01*
X039949Y010922D01*
X039875Y010995D01*
X039728Y010995D01*
X039655Y010922D01*
X039728Y011305D02*
X039875Y011305D01*
X039949Y011378D01*
X039949Y011672D01*
X039875Y011745D01*
X039728Y011745D01*
X039655Y011672D01*
X039655Y011378D01*
X039728Y011305D01*
X040115Y011378D02*
X040189Y011305D01*
X040336Y011305D01*
X040409Y011378D01*
X040409Y011452D01*
X040336Y011525D01*
X040189Y011525D01*
X040115Y011599D01*
X040115Y011672D01*
X040189Y011745D01*
X040336Y011745D01*
X040409Y011672D01*
X040576Y011745D02*
X040796Y011745D01*
X040869Y011672D01*
X040869Y011525D01*
X040796Y011452D01*
X040576Y011452D01*
X040576Y011305D02*
X040576Y011745D01*
X041036Y011745D02*
X041036Y011305D01*
X041330Y011305D01*
X041957Y011452D02*
X041957Y011745D01*
X041957Y011452D02*
X042104Y011305D01*
X042251Y011452D01*
X042251Y011745D01*
X042878Y011672D02*
X042951Y011745D01*
X043098Y011745D01*
X043171Y011672D01*
X043171Y011599D01*
X042878Y011305D01*
X043171Y011305D01*
X043338Y011305D02*
X043412Y011305D01*
X043412Y011378D01*
X043338Y011378D01*
X043338Y011305D01*
X042711Y010849D02*
X042417Y010555D01*
X042711Y010555D01*
X042644Y010099D02*
X042571Y010025D01*
X042571Y009878D01*
X042644Y009805D01*
X042864Y009805D01*
X042864Y009732D02*
X042864Y010099D01*
X042644Y010099D01*
X042404Y010025D02*
X042404Y009805D01*
X042404Y010025D02*
X042331Y010099D01*
X042110Y010099D01*
X042110Y009805D01*
X041944Y009952D02*
X041650Y009952D01*
X041650Y010025D02*
X041723Y010099D01*
X041870Y010099D01*
X041944Y010025D01*
X041944Y009952D01*
X041870Y009805D02*
X041723Y009805D01*
X041650Y009878D01*
X041650Y010025D01*
X041483Y010172D02*
X041190Y009878D01*
X041190Y009805D01*
X041483Y009805D01*
X041487Y009495D02*
X041340Y009495D01*
X041266Y009422D01*
X041266Y009128D01*
X041340Y009055D01*
X041487Y009055D01*
X041560Y009128D01*
X041727Y009055D02*
X042020Y009055D01*
X042187Y009128D02*
X042261Y009055D01*
X042407Y009055D01*
X042481Y009128D01*
X042481Y009422D01*
X042407Y009495D01*
X042261Y009495D01*
X042187Y009422D01*
X042187Y009128D01*
X042648Y009128D02*
X042648Y009495D01*
X042718Y009658D02*
X042791Y009658D01*
X042864Y009732D01*
X043031Y009878D02*
X043105Y009805D01*
X043325Y009805D01*
X043325Y009658D02*
X043325Y010099D01*
X043105Y010099D01*
X043031Y010025D01*
X043031Y009878D01*
X043108Y009495D02*
X043328Y009495D01*
X043402Y009422D01*
X043402Y009128D01*
X043328Y009055D01*
X043108Y009055D01*
X043108Y009495D01*
X042941Y009495D02*
X042941Y009128D01*
X042868Y009055D01*
X042721Y009055D01*
X042648Y009128D01*
X042638Y008745D02*
X042491Y008745D01*
X042417Y008672D01*
X042417Y008599D01*
X042491Y008525D01*
X042638Y008525D01*
X042711Y008452D01*
X042711Y008378D01*
X042638Y008305D01*
X042491Y008305D01*
X042417Y008378D01*
X042251Y008525D02*
X041957Y008525D01*
X041790Y008672D02*
X041790Y008745D01*
X041790Y008672D02*
X041643Y008525D01*
X041643Y008305D01*
X041643Y008525D02*
X041497Y008672D01*
X041497Y008745D01*
X041330Y008672D02*
X041330Y008599D01*
X041256Y008525D01*
X041036Y008525D01*
X040869Y008525D02*
X040576Y008525D01*
X040409Y008378D02*
X040336Y008305D01*
X040189Y008305D01*
X040115Y008378D01*
X040115Y008672D01*
X040189Y008745D01*
X040336Y008745D01*
X040409Y008672D01*
X040262Y009055D02*
X040262Y009495D01*
X040115Y009495D02*
X040409Y009495D01*
X040499Y009805D02*
X040572Y009805D01*
X040572Y009878D01*
X040499Y009878D01*
X040499Y009805D01*
X040336Y010099D02*
X040262Y010099D01*
X040115Y009952D01*
X040115Y009805D02*
X040115Y010099D01*
X039949Y010172D02*
X039875Y010245D01*
X039655Y010245D01*
X039655Y009805D01*
X039875Y009805D01*
X039949Y009878D01*
X039949Y010172D01*
X039875Y009495D02*
X039728Y009495D01*
X039655Y009422D01*
X039655Y009349D01*
X039728Y009275D01*
X039875Y009275D01*
X039949Y009202D01*
X039949Y009128D01*
X039875Y009055D01*
X039728Y009055D01*
X039655Y009128D01*
X039728Y008745D02*
X039655Y008672D01*
X039655Y008378D01*
X039728Y008305D01*
X039875Y008305D01*
X039949Y008378D01*
X039949Y008672D02*
X039875Y008745D01*
X039728Y008745D01*
X039949Y009422D02*
X039875Y009495D01*
X040576Y009128D02*
X040649Y009128D01*
X040649Y009055D01*
X040576Y009055D01*
X040576Y009128D01*
X041036Y008745D02*
X041256Y008745D01*
X041330Y008672D01*
X041256Y008525D02*
X041330Y008452D01*
X041330Y008378D01*
X041256Y008305D01*
X041036Y008305D01*
X041036Y008745D01*
X041727Y009055D02*
X041727Y009495D01*
X041560Y009422D02*
X041487Y009495D01*
X041483Y010172D02*
X041483Y010245D01*
X041190Y010245D01*
X042638Y008745D02*
X042711Y008672D01*
X042878Y008599D02*
X043025Y008745D01*
X043171Y008599D01*
X043171Y008305D01*
X043171Y008525D02*
X042878Y008525D01*
X042878Y008599D02*
X042878Y008305D01*
X044029Y009055D02*
X044029Y009495D01*
X044176Y009349D01*
X044322Y009495D01*
X044322Y009055D01*
X044489Y009055D02*
X044489Y009495D01*
X044783Y009055D01*
X044783Y009495D01*
X044866Y009658D02*
X044940Y009658D01*
X045013Y009732D01*
X045013Y010099D01*
X044793Y010099D01*
X044719Y010025D01*
X044719Y009878D01*
X044793Y009805D01*
X045013Y009805D01*
X044553Y009805D02*
X044553Y010025D01*
X044479Y010099D01*
X044259Y010099D01*
X044259Y009805D01*
X044092Y009805D02*
X043872Y009805D01*
X043799Y009878D01*
X043872Y009952D01*
X044092Y009952D01*
X044092Y010025D02*
X044092Y009805D01*
X044092Y010025D02*
X044019Y010099D01*
X043872Y010099D01*
X043565Y010099D02*
X043565Y009805D01*
X043492Y009805D02*
X043638Y009805D01*
X043565Y010099D02*
X043492Y010099D01*
X043565Y010245D02*
X043565Y010319D01*
X045410Y009495D02*
X045410Y009128D01*
X045483Y009055D01*
X045630Y009055D01*
X045703Y009128D01*
X045703Y009495D01*
X045870Y009422D02*
X045870Y009349D01*
X045944Y009275D01*
X046090Y009275D01*
X046164Y009202D01*
X046164Y009128D01*
X046090Y009055D01*
X045944Y009055D01*
X045870Y009128D01*
X045870Y009422D02*
X045944Y009495D01*
X046090Y009495D01*
X046164Y009422D01*
X046331Y009349D02*
X046477Y009495D01*
X046624Y009349D01*
X046624Y009055D01*
X046624Y009275D02*
X046331Y009275D01*
X046331Y009349D02*
X046331Y009055D01*
X046247Y009805D02*
X046100Y009805D01*
X046174Y009805D02*
X046174Y010099D01*
X046100Y010099D01*
X046174Y010245D02*
X046174Y010319D01*
X046407Y010099D02*
X046407Y009878D01*
X046481Y009805D01*
X046701Y009805D01*
X046701Y010099D01*
X045934Y009805D02*
X045640Y009805D01*
X045640Y010245D01*
X029675Y016475D02*
X029675Y017075D01*
X029673Y017092D01*
X029669Y017109D01*
X029662Y017125D01*
X029652Y017139D01*
X029639Y017152D01*
X029625Y017162D01*
X029609Y017169D01*
X029592Y017173D01*
X029575Y017175D01*
X027425Y017175D01*
X027425Y017125D01*
X027425Y016425D01*
X027425Y016375D01*
X029575Y016375D01*
X029592Y016377D01*
X029609Y016381D01*
X029625Y016388D01*
X029639Y016398D01*
X029652Y016411D01*
X029662Y016425D01*
X029669Y016441D01*
X029673Y016458D01*
X029675Y016475D01*
X028925Y016775D02*
X028725Y016775D01*
X028725Y016575D01*
X028575Y016575D02*
X028575Y016975D01*
X028425Y016975D01*
X028425Y016575D01*
X028575Y016575D01*
X028725Y016775D02*
X028725Y016975D01*
X028275Y016975D02*
X028275Y016775D01*
X028275Y016575D01*
X028275Y016775D02*
X028075Y016775D01*
X027425Y016425D02*
X027275Y016425D01*
X027275Y017125D01*
X027425Y017125D01*
X020754Y017347D02*
X020754Y023575D01*
X018666Y023575D02*
X018666Y017347D01*
X012095Y024082D02*
X011801Y024082D01*
X011655Y024229D01*
X011801Y024376D01*
X012095Y024376D01*
X012095Y024543D02*
X012095Y024763D01*
X012022Y024836D01*
X011728Y024836D01*
X011655Y024763D01*
X011655Y024543D01*
X012095Y024543D01*
X011875Y024376D02*
X011875Y024082D01*
X011801Y025003D02*
X011875Y025076D01*
X011875Y025223D01*
X011948Y025297D01*
X012022Y025297D01*
X012095Y025223D01*
X012095Y025076D01*
X012022Y025003D01*
X011801Y025003D02*
X011728Y025003D01*
X011655Y025076D01*
X011655Y025223D01*
X011728Y025297D01*
X011801Y025463D02*
X011655Y025610D01*
X012095Y025610D01*
X012095Y025463D02*
X012095Y025757D01*
X012095Y025924D02*
X012095Y026217D01*
X012095Y026071D02*
X011655Y026071D01*
X011801Y025924D01*
X011801Y026384D02*
X011655Y026531D01*
X012095Y026531D01*
X012095Y026384D02*
X012095Y026678D01*
X012022Y026845D02*
X012095Y026918D01*
X012095Y027065D01*
X012022Y027138D01*
X011875Y027138D01*
X011801Y027065D01*
X011801Y026991D01*
X011875Y026845D01*
X011655Y026845D01*
X011655Y027138D01*
X011875Y035125D02*
X011375Y035125D01*
X011375Y035725D01*
X011375Y036025D01*
X010875Y036025D01*
X010875Y036775D01*
X011375Y036775D01*
X011375Y037525D01*
X012875Y037525D01*
X012875Y036725D01*
X013375Y036725D01*
X013375Y035975D01*
X012875Y035975D01*
X012875Y035725D01*
X012375Y035725D01*
X012375Y035125D01*
X011875Y035125D01*
X011875Y035725D01*
X011375Y035725D01*
X011375Y036025D02*
X011375Y036775D01*
X011375Y037525D02*
X009125Y037525D01*
X009125Y037975D01*
X009125Y037525D02*
X008275Y037525D01*
X008275Y039375D01*
X009125Y039375D01*
X009125Y039075D01*
X009125Y039375D02*
X009125Y040775D01*
X010675Y040775D01*
X011575Y040775D02*
X012675Y040775D01*
X013575Y040775D02*
X015075Y040775D01*
X015125Y040775D02*
X015125Y039375D01*
X015125Y039075D01*
X015125Y039375D02*
X015975Y039375D01*
X015975Y037525D01*
X015125Y037525D01*
X015125Y037975D01*
X015125Y037525D02*
X012875Y037525D01*
X012875Y036725D02*
X012875Y035975D01*
X012875Y035725D02*
X012875Y035125D01*
X012375Y035125D01*
X015575Y035975D02*
X015975Y037525D01*
X016275Y037525D02*
X017125Y037525D01*
X017125Y037975D01*
X017125Y037525D02*
X019375Y037525D01*
X019375Y036775D01*
X018875Y036775D01*
X018875Y036025D01*
X019375Y036025D01*
X019375Y035725D01*
X019875Y035725D01*
X019875Y035125D01*
X020375Y035125D01*
X020875Y035125D01*
X020875Y035725D01*
X020875Y035975D01*
X020875Y036725D01*
X020875Y037525D01*
X023125Y037525D01*
X023125Y037975D01*
X023125Y037525D02*
X023975Y037525D01*
X023575Y035975D01*
X024675Y036025D02*
X024275Y037525D01*
X025125Y037525D01*
X025125Y037975D01*
X025125Y037525D02*
X027375Y037525D01*
X027375Y036775D01*
X026875Y036775D01*
X026875Y036025D01*
X027375Y036025D01*
X027375Y035725D01*
X027875Y035725D01*
X027875Y035125D01*
X028375Y035125D01*
X028875Y035125D01*
X028875Y035725D01*
X028875Y035975D01*
X028875Y036725D01*
X028875Y037525D01*
X031125Y037525D01*
X031125Y037975D01*
X031125Y037525D02*
X031975Y037525D01*
X031575Y035975D01*
X031975Y037525D02*
X031975Y039375D01*
X031125Y039375D01*
X031125Y039075D01*
X031125Y039375D02*
X031125Y040775D01*
X032325Y040775D01*
X032325Y041025D01*
X031875Y041025D01*
X031875Y041225D01*
X032325Y041225D01*
X032325Y041525D01*
X024275Y041525D01*
X024275Y041225D01*
X023925Y041225D01*
X023925Y041025D01*
X024275Y041025D01*
X024275Y040775D01*
X025125Y040775D01*
X026675Y040775D01*
X027575Y040775D02*
X028675Y040775D01*
X029575Y040775D02*
X031075Y040775D01*
X028875Y037525D02*
X027375Y037525D01*
X027375Y036775D02*
X027375Y036025D01*
X027375Y035725D02*
X027375Y035125D01*
X027875Y035125D01*
X028375Y035125D02*
X028375Y035725D01*
X028875Y035725D01*
X028875Y035975D02*
X029375Y035975D01*
X029375Y036725D01*
X028875Y036725D01*
X025125Y039075D02*
X025125Y039375D01*
X024275Y039375D01*
X024275Y037525D01*
X023975Y037525D02*
X023975Y039375D01*
X023125Y039375D01*
X023125Y039075D01*
X023125Y039375D02*
X023125Y040775D01*
X024325Y040775D01*
X024325Y041025D01*
X023875Y041025D01*
X023875Y041225D01*
X024325Y041225D01*
X024325Y041525D01*
X016275Y041525D01*
X016275Y041225D01*
X015925Y041225D01*
X015925Y041025D01*
X016275Y041025D01*
X016275Y040775D01*
X017125Y040775D01*
X018675Y040775D01*
X019575Y040775D02*
X020675Y040775D01*
X021575Y040775D02*
X023075Y040775D01*
X025125Y040775D02*
X025125Y039375D01*
X021375Y036725D02*
X020875Y036725D01*
X021375Y036725D02*
X021375Y035975D01*
X020875Y035975D01*
X020875Y035725D02*
X020375Y035725D01*
X020375Y035125D01*
X019875Y035125D02*
X019375Y035125D01*
X019375Y035725D01*
X019375Y036025D02*
X019375Y036775D01*
X019375Y037525D02*
X020875Y037525D01*
X017125Y039075D02*
X017125Y039375D01*
X016275Y039375D01*
X016275Y037525D01*
X016675Y036025D01*
X017125Y039375D02*
X017125Y040775D01*
X016325Y040775D02*
X015125Y040775D01*
X015875Y041025D02*
X015875Y041225D01*
X016325Y041225D01*
X016325Y041525D01*
X008275Y041525D01*
X008275Y041225D01*
X007925Y041225D01*
X007925Y041025D01*
X008275Y041025D01*
X008275Y040775D01*
X009125Y040775D01*
X008275Y037525D02*
X008675Y036025D01*
X015875Y041025D02*
X016325Y041025D01*
X016325Y040775D01*
X042473Y030822D02*
X042473Y026728D01*
X044777Y026728D01*
X044777Y030822D01*
X042473Y030822D01*
X042676Y030438D02*
X042678Y030464D01*
X042684Y030490D01*
X042693Y030515D01*
X042706Y030538D01*
X042722Y030559D01*
X042741Y030577D01*
X042763Y030593D01*
X042786Y030605D01*
X042811Y030613D01*
X042837Y030618D01*
X042864Y030619D01*
X042890Y030616D01*
X042915Y030609D01*
X042940Y030599D01*
X042962Y030585D01*
X042983Y030568D01*
X043000Y030549D01*
X043015Y030527D01*
X043026Y030503D01*
X043034Y030477D01*
X043038Y030451D01*
X043038Y030425D01*
X043034Y030399D01*
X043026Y030373D01*
X043015Y030349D01*
X043000Y030327D01*
X042983Y030308D01*
X042962Y030291D01*
X042940Y030277D01*
X042915Y030267D01*
X042890Y030260D01*
X042864Y030257D01*
X042837Y030258D01*
X042811Y030263D01*
X042786Y030271D01*
X042763Y030283D01*
X042741Y030299D01*
X042722Y030317D01*
X042706Y030338D01*
X042693Y030361D01*
X042684Y030386D01*
X042678Y030412D01*
X042676Y030438D01*
D13*
X032525Y030775D02*
X032527Y030795D01*
X032533Y030813D01*
X032542Y030831D01*
X032554Y030846D01*
X032569Y030858D01*
X032587Y030867D01*
X032605Y030873D01*
X032625Y030875D01*
X032645Y030873D01*
X032663Y030867D01*
X032681Y030858D01*
X032696Y030846D01*
X032708Y030831D01*
X032717Y030813D01*
X032723Y030795D01*
X032725Y030775D01*
X032723Y030755D01*
X032717Y030737D01*
X032708Y030719D01*
X032696Y030704D01*
X032681Y030692D01*
X032663Y030683D01*
X032645Y030677D01*
X032625Y030675D01*
X032605Y030677D01*
X032587Y030683D01*
X032569Y030692D01*
X032554Y030704D01*
X032542Y030719D01*
X032533Y030737D01*
X032527Y030755D01*
X032525Y030775D01*
D14*
X011972Y019675D02*
X011385Y019675D01*
X011679Y019969D02*
X011679Y019382D01*
D15*
X010625Y020275D02*
X005625Y020275D01*
X005125Y021275D02*
X005127Y021319D01*
X005133Y021363D01*
X005143Y021406D01*
X005156Y021448D01*
X005173Y021489D01*
X005194Y021528D01*
X005218Y021565D01*
X005245Y021600D01*
X005275Y021632D01*
X005308Y021662D01*
X005344Y021688D01*
X005381Y021712D01*
X005421Y021731D01*
X005462Y021748D01*
X005505Y021760D01*
X005548Y021769D01*
X005592Y021774D01*
X005636Y021775D01*
X005680Y021772D01*
X005724Y021765D01*
X005767Y021754D01*
X005809Y021740D01*
X005849Y021722D01*
X005888Y021700D01*
X005924Y021676D01*
X005958Y021648D01*
X005990Y021617D01*
X006019Y021583D01*
X006045Y021547D01*
X006067Y021509D01*
X006086Y021469D01*
X006101Y021427D01*
X006113Y021385D01*
X006121Y021341D01*
X006125Y021297D01*
X006125Y021253D01*
X006121Y021209D01*
X006113Y021165D01*
X006101Y021123D01*
X006086Y021081D01*
X006067Y021041D01*
X006045Y021003D01*
X006019Y020967D01*
X005990Y020933D01*
X005958Y020902D01*
X005924Y020874D01*
X005888Y020850D01*
X005849Y020828D01*
X005809Y020810D01*
X005767Y020796D01*
X005724Y020785D01*
X005680Y020778D01*
X005636Y020775D01*
X005592Y020776D01*
X005548Y020781D01*
X005505Y020790D01*
X005462Y020802D01*
X005421Y020819D01*
X005381Y020838D01*
X005344Y020862D01*
X005308Y020888D01*
X005275Y020918D01*
X005245Y020950D01*
X005218Y020985D01*
X005194Y021022D01*
X005173Y021061D01*
X005156Y021102D01*
X005143Y021144D01*
X005133Y021187D01*
X005127Y021231D01*
X005125Y021275D01*
X004625Y021275D02*
X004625Y030275D01*
X005125Y030275D02*
X005127Y030319D01*
X005133Y030363D01*
X005143Y030406D01*
X005156Y030448D01*
X005173Y030489D01*
X005194Y030528D01*
X005218Y030565D01*
X005245Y030600D01*
X005275Y030632D01*
X005308Y030662D01*
X005344Y030688D01*
X005381Y030712D01*
X005421Y030731D01*
X005462Y030748D01*
X005505Y030760D01*
X005548Y030769D01*
X005592Y030774D01*
X005636Y030775D01*
X005680Y030772D01*
X005724Y030765D01*
X005767Y030754D01*
X005809Y030740D01*
X005849Y030722D01*
X005888Y030700D01*
X005924Y030676D01*
X005958Y030648D01*
X005990Y030617D01*
X006019Y030583D01*
X006045Y030547D01*
X006067Y030509D01*
X006086Y030469D01*
X006101Y030427D01*
X006113Y030385D01*
X006121Y030341D01*
X006125Y030297D01*
X006125Y030253D01*
X006121Y030209D01*
X006113Y030165D01*
X006101Y030123D01*
X006086Y030081D01*
X006067Y030041D01*
X006045Y030003D01*
X006019Y029967D01*
X005990Y029933D01*
X005958Y029902D01*
X005924Y029874D01*
X005888Y029850D01*
X005849Y029828D01*
X005809Y029810D01*
X005767Y029796D01*
X005724Y029785D01*
X005680Y029778D01*
X005636Y029775D01*
X005592Y029776D01*
X005548Y029781D01*
X005505Y029790D01*
X005462Y029802D01*
X005421Y029819D01*
X005381Y029838D01*
X005344Y029862D01*
X005308Y029888D01*
X005275Y029918D01*
X005245Y029950D01*
X005218Y029985D01*
X005194Y030022D01*
X005173Y030061D01*
X005156Y030102D01*
X005143Y030144D01*
X005133Y030187D01*
X005127Y030231D01*
X005125Y030275D01*
X004625Y030275D02*
X004627Y030335D01*
X004632Y030396D01*
X004641Y030455D01*
X004654Y030514D01*
X004670Y030573D01*
X004690Y030630D01*
X004713Y030685D01*
X004740Y030740D01*
X004769Y030792D01*
X004802Y030843D01*
X004838Y030892D01*
X004876Y030938D01*
X004918Y030982D01*
X004962Y031024D01*
X005008Y031062D01*
X005057Y031098D01*
X005108Y031131D01*
X005160Y031160D01*
X005215Y031187D01*
X005270Y031210D01*
X005327Y031230D01*
X005386Y031246D01*
X005445Y031259D01*
X005504Y031268D01*
X005565Y031273D01*
X005625Y031275D01*
X010625Y031275D01*
X010685Y031273D01*
X010746Y031268D01*
X010805Y031259D01*
X010864Y031246D01*
X010923Y031230D01*
X010980Y031210D01*
X011035Y031187D01*
X011090Y031160D01*
X011142Y031131D01*
X011193Y031098D01*
X011242Y031062D01*
X011288Y031024D01*
X011332Y030982D01*
X011374Y030938D01*
X011412Y030892D01*
X011448Y030843D01*
X011481Y030792D01*
X011510Y030740D01*
X011537Y030685D01*
X011560Y030630D01*
X011580Y030573D01*
X011596Y030514D01*
X011609Y030455D01*
X011618Y030396D01*
X011623Y030335D01*
X011625Y030275D01*
X011625Y021275D01*
X011623Y021215D01*
X011618Y021154D01*
X011609Y021095D01*
X011596Y021036D01*
X011580Y020977D01*
X011560Y020920D01*
X011537Y020865D01*
X011510Y020810D01*
X011481Y020758D01*
X011448Y020707D01*
X011412Y020658D01*
X011374Y020612D01*
X011332Y020568D01*
X011288Y020526D01*
X011242Y020488D01*
X011193Y020452D01*
X011142Y020419D01*
X011090Y020390D01*
X011035Y020363D01*
X010980Y020340D01*
X010923Y020320D01*
X010864Y020304D01*
X010805Y020291D01*
X010746Y020282D01*
X010685Y020277D01*
X010625Y020275D01*
X007763Y017275D02*
X007765Y017372D01*
X007771Y017469D01*
X007781Y017565D01*
X007795Y017661D01*
X007813Y017757D01*
X007834Y017851D01*
X007860Y017945D01*
X007889Y018037D01*
X007923Y018128D01*
X007959Y018218D01*
X008000Y018306D01*
X008044Y018392D01*
X008092Y018477D01*
X008143Y018559D01*
X008197Y018640D01*
X008255Y018718D01*
X008316Y018793D01*
X008379Y018866D01*
X008446Y018937D01*
X008516Y019004D01*
X008588Y019069D01*
X008663Y019130D01*
X008741Y019189D01*
X008820Y019244D01*
X008902Y019296D01*
X008986Y019344D01*
X009072Y019389D01*
X009160Y019431D01*
X009249Y019469D01*
X009340Y019503D01*
X009432Y019533D01*
X009525Y019560D01*
X009620Y019582D01*
X009715Y019601D01*
X009811Y019616D01*
X009907Y019627D01*
X010004Y019634D01*
X010101Y019637D01*
X010198Y019636D01*
X010295Y019631D01*
X010391Y019622D01*
X010487Y019609D01*
X010583Y019592D01*
X010678Y019571D01*
X010771Y019547D01*
X010864Y019518D01*
X010956Y019486D01*
X011046Y019450D01*
X011134Y019411D01*
X011221Y019367D01*
X011306Y019321D01*
X011389Y019270D01*
X011470Y019217D01*
X011548Y019160D01*
X011625Y019100D01*
X011698Y019037D01*
X011769Y018971D01*
X011837Y018902D01*
X011903Y018830D01*
X011965Y018756D01*
X012024Y018679D01*
X012080Y018600D01*
X012133Y018518D01*
X012183Y018435D01*
X012228Y018349D01*
X012271Y018262D01*
X012310Y018173D01*
X012345Y018083D01*
X012376Y017991D01*
X012403Y017898D01*
X012427Y017804D01*
X012447Y017709D01*
X012463Y017613D01*
X012475Y017517D01*
X012483Y017420D01*
X012487Y017323D01*
X012487Y017227D01*
X012483Y017130D01*
X012475Y017033D01*
X012463Y016937D01*
X012447Y016841D01*
X012427Y016746D01*
X012403Y016652D01*
X012376Y016559D01*
X012345Y016467D01*
X012310Y016377D01*
X012271Y016288D01*
X012228Y016201D01*
X012183Y016115D01*
X012133Y016032D01*
X012080Y015950D01*
X012024Y015871D01*
X011965Y015794D01*
X011903Y015720D01*
X011837Y015648D01*
X011769Y015579D01*
X011698Y015513D01*
X011625Y015450D01*
X011548Y015390D01*
X011470Y015333D01*
X011389Y015280D01*
X011306Y015229D01*
X011221Y015183D01*
X011134Y015139D01*
X011046Y015100D01*
X010956Y015064D01*
X010864Y015032D01*
X010771Y015003D01*
X010678Y014979D01*
X010583Y014958D01*
X010487Y014941D01*
X010391Y014928D01*
X010295Y014919D01*
X010198Y014914D01*
X010101Y014913D01*
X010004Y014916D01*
X009907Y014923D01*
X009811Y014934D01*
X009715Y014949D01*
X009620Y014968D01*
X009525Y014990D01*
X009432Y015017D01*
X009340Y015047D01*
X009249Y015081D01*
X009160Y015119D01*
X009072Y015161D01*
X008986Y015206D01*
X008902Y015254D01*
X008820Y015306D01*
X008741Y015361D01*
X008663Y015420D01*
X008588Y015481D01*
X008516Y015546D01*
X008446Y015613D01*
X008379Y015684D01*
X008316Y015757D01*
X008255Y015832D01*
X008197Y015910D01*
X008143Y015991D01*
X008092Y016073D01*
X008044Y016158D01*
X008000Y016244D01*
X007959Y016332D01*
X007923Y016422D01*
X007889Y016513D01*
X007860Y016605D01*
X007834Y016699D01*
X007813Y016793D01*
X007795Y016889D01*
X007781Y016985D01*
X007771Y017081D01*
X007765Y017178D01*
X007763Y017275D01*
X005625Y020275D02*
X005565Y020277D01*
X005504Y020282D01*
X005445Y020291D01*
X005386Y020304D01*
X005327Y020320D01*
X005270Y020340D01*
X005215Y020363D01*
X005160Y020390D01*
X005108Y020419D01*
X005057Y020452D01*
X005008Y020488D01*
X004962Y020526D01*
X004918Y020568D01*
X004876Y020612D01*
X004838Y020658D01*
X004802Y020707D01*
X004769Y020758D01*
X004740Y020810D01*
X004713Y020865D01*
X004690Y020920D01*
X004670Y020977D01*
X004654Y021036D01*
X004641Y021095D01*
X004632Y021154D01*
X004627Y021215D01*
X004625Y021275D01*
X016875Y014525D02*
X016875Y013245D01*
X016875Y012655D02*
X016875Y011375D01*
X016875Y010785D02*
X016875Y009505D01*
X016875Y008915D02*
X016875Y007635D01*
X016875Y007045D02*
X016875Y005765D01*
X016875Y005175D02*
X016875Y003895D01*
X016875Y003305D02*
X016875Y002025D01*
X018061Y002025D01*
X018651Y002025D02*
X019837Y002025D01*
X020427Y002025D02*
X021613Y002025D01*
X022204Y002025D02*
X023389Y002025D01*
X023980Y002025D02*
X025165Y002025D01*
X025756Y002025D02*
X026942Y002025D01*
X027532Y002025D02*
X028718Y002025D01*
X029308Y002025D02*
X030494Y002025D01*
X031085Y002025D02*
X032270Y002025D01*
X032861Y002025D02*
X034046Y002025D01*
X034637Y002025D02*
X035823Y002025D01*
X036413Y002025D02*
X037599Y002025D01*
X038189Y002025D02*
X039375Y002025D01*
X039375Y003305D01*
X039375Y003895D02*
X039375Y005175D01*
X039375Y005765D02*
X039375Y007045D01*
X039375Y007635D02*
X039375Y008915D01*
X039375Y009505D02*
X039375Y010785D01*
X039375Y011375D02*
X039375Y012655D01*
X039375Y013245D02*
X039375Y014525D01*
X038189Y014525D01*
X037599Y014525D02*
X036413Y014525D01*
X035823Y014525D02*
X034637Y014525D01*
X034046Y014525D02*
X032861Y014525D01*
X032270Y014525D02*
X031085Y014525D01*
X030494Y014525D02*
X029308Y014525D01*
X028718Y014525D02*
X027532Y014525D01*
X026942Y014525D02*
X025756Y014525D01*
X025165Y014525D02*
X023980Y014525D01*
X023389Y014525D02*
X022204Y014525D01*
X021613Y014525D02*
X020427Y014525D01*
X019837Y014525D02*
X018651Y014525D01*
X018061Y014525D02*
X016875Y014525D01*
X027450Y017425D02*
X027525Y017350D01*
X027675Y017350D01*
X027750Y017425D01*
X027750Y017725D01*
X027675Y017800D01*
X027525Y017800D01*
X027450Y017725D01*
X027450Y017425D01*
X027600Y017500D02*
X027750Y017350D01*
X027910Y017350D02*
X028211Y017650D01*
X028211Y017725D01*
X028136Y017800D01*
X027985Y017800D01*
X027910Y017725D01*
X027910Y017350D02*
X028211Y017350D01*
X032125Y017275D02*
X033125Y017275D01*
X032125Y017275D02*
X032125Y023775D01*
X037125Y023775D01*
X037125Y017275D01*
X036125Y017275D01*
X038763Y015677D02*
X043487Y015677D01*
X043487Y020873D01*
X038763Y020873D01*
X038763Y015677D01*
X040101Y017684D02*
X042149Y017684D01*
X039944Y018275D02*
X039946Y018344D01*
X039952Y018412D01*
X039962Y018480D01*
X039976Y018547D01*
X039994Y018614D01*
X040015Y018679D01*
X040041Y018743D01*
X040070Y018805D01*
X040102Y018865D01*
X040138Y018924D01*
X040178Y018980D01*
X040220Y019034D01*
X040266Y019085D01*
X040315Y019134D01*
X040366Y019180D01*
X040420Y019222D01*
X040476Y019262D01*
X040534Y019298D01*
X040595Y019330D01*
X040657Y019359D01*
X040721Y019385D01*
X040786Y019406D01*
X040853Y019424D01*
X040920Y019438D01*
X040988Y019448D01*
X041056Y019454D01*
X041125Y019456D01*
X041194Y019454D01*
X041262Y019448D01*
X041330Y019438D01*
X041397Y019424D01*
X041464Y019406D01*
X041529Y019385D01*
X041593Y019359D01*
X041655Y019330D01*
X041715Y019298D01*
X041774Y019262D01*
X041830Y019222D01*
X041884Y019180D01*
X041935Y019134D01*
X041984Y019085D01*
X042030Y019034D01*
X042072Y018980D01*
X042112Y018924D01*
X042148Y018865D01*
X042180Y018805D01*
X042209Y018743D01*
X042235Y018679D01*
X042256Y018614D01*
X042274Y018547D01*
X042288Y018480D01*
X042298Y018412D01*
X042304Y018344D01*
X042306Y018275D01*
X042304Y018206D01*
X042298Y018138D01*
X042288Y018070D01*
X042274Y018003D01*
X042256Y017936D01*
X042235Y017871D01*
X042209Y017807D01*
X042180Y017745D01*
X042148Y017684D01*
X042112Y017626D01*
X042072Y017570D01*
X042030Y017516D01*
X041984Y017465D01*
X041935Y017416D01*
X041884Y017370D01*
X041830Y017328D01*
X041774Y017288D01*
X041716Y017252D01*
X041655Y017220D01*
X041593Y017191D01*
X041529Y017165D01*
X041464Y017144D01*
X041397Y017126D01*
X041330Y017112D01*
X041262Y017102D01*
X041194Y017096D01*
X041125Y017094D01*
X041056Y017096D01*
X040988Y017102D01*
X040920Y017112D01*
X040853Y017126D01*
X040786Y017144D01*
X040721Y017165D01*
X040657Y017191D01*
X040595Y017220D01*
X040534Y017252D01*
X040476Y017288D01*
X040420Y017328D01*
X040366Y017370D01*
X040315Y017416D01*
X040266Y017465D01*
X040220Y017516D01*
X040178Y017570D01*
X040138Y017626D01*
X040102Y017684D01*
X040070Y017745D01*
X040041Y017807D01*
X040015Y017871D01*
X039994Y017936D01*
X039976Y018003D01*
X039962Y018070D01*
X039952Y018138D01*
X039946Y018206D01*
X039944Y018275D01*
X046370Y018134D02*
X046445Y018209D01*
X046595Y018209D01*
X046670Y018134D01*
X046670Y017909D01*
X046820Y017909D02*
X046370Y017909D01*
X046370Y018134D01*
X046445Y018370D02*
X046370Y018445D01*
X046370Y018595D01*
X046445Y018670D01*
X046520Y018670D01*
X046595Y018595D01*
X046670Y018670D01*
X046745Y018670D01*
X046820Y018595D01*
X046820Y018445D01*
X046745Y018370D01*
X046595Y018520D02*
X046595Y018595D01*
X046370Y017749D02*
X046370Y017599D01*
X046370Y017674D02*
X046745Y017674D01*
X046820Y017599D01*
X046820Y017524D01*
X046745Y017449D01*
X035775Y029919D02*
X035850Y029994D01*
X035850Y030069D01*
X035775Y030144D01*
X035400Y030144D01*
X035400Y030069D02*
X035400Y030219D01*
X035400Y030379D02*
X035400Y030604D01*
X035475Y030679D01*
X035625Y030679D01*
X035700Y030604D01*
X035700Y030379D01*
X035850Y030379D02*
X035400Y030379D01*
X035475Y030840D02*
X035400Y030915D01*
X035400Y031065D01*
X035475Y031140D01*
X035550Y031140D01*
X035850Y030840D01*
X035850Y031140D01*
X031240Y035375D02*
X031165Y035300D01*
X031015Y035300D01*
X030940Y035375D01*
X030940Y035525D02*
X031090Y035600D01*
X031165Y035600D01*
X031240Y035525D01*
X031240Y035375D01*
X030940Y035525D02*
X030940Y035750D01*
X031240Y035750D01*
X030365Y036950D02*
X030215Y036950D01*
X030140Y037025D01*
X030290Y037175D02*
X030365Y037175D01*
X030440Y037100D01*
X030440Y037025D01*
X030365Y036950D01*
X030365Y037175D02*
X030440Y037250D01*
X030440Y037325D01*
X030365Y037400D01*
X030215Y037400D01*
X030140Y037325D01*
X028640Y037325D02*
X028565Y037400D01*
X028415Y037400D01*
X028340Y037325D01*
X028640Y037325D02*
X028640Y037250D01*
X028340Y036950D01*
X028640Y036950D01*
X025990Y036950D02*
X025690Y036950D01*
X025840Y036950D02*
X025840Y037400D01*
X025690Y037250D01*
X025065Y035750D02*
X024840Y035525D01*
X025140Y035525D01*
X025065Y035300D02*
X025065Y035750D01*
X023240Y035750D02*
X022940Y035750D01*
X022940Y035525D01*
X023090Y035600D01*
X023165Y035600D01*
X023240Y035525D01*
X023240Y035375D01*
X023165Y035300D01*
X023015Y035300D01*
X022940Y035375D01*
X022365Y036950D02*
X022215Y036950D01*
X022140Y037025D01*
X022290Y037175D02*
X022365Y037175D01*
X022440Y037100D01*
X022440Y037025D01*
X022365Y036950D01*
X022365Y037175D02*
X022440Y037250D01*
X022440Y037325D01*
X022365Y037400D01*
X022215Y037400D01*
X022140Y037325D01*
X020640Y037325D02*
X020565Y037400D01*
X020415Y037400D01*
X020340Y037325D01*
X020640Y037325D02*
X020640Y037250D01*
X020340Y036950D01*
X020640Y036950D01*
X017990Y036950D02*
X017690Y036950D01*
X017840Y036950D02*
X017840Y037400D01*
X017690Y037250D01*
X017065Y035750D02*
X016840Y035525D01*
X017140Y035525D01*
X017065Y035300D02*
X017065Y035750D01*
X015240Y035750D02*
X014940Y035750D01*
X014940Y035525D01*
X015090Y035600D01*
X015165Y035600D01*
X015240Y035525D01*
X015240Y035375D01*
X015165Y035300D01*
X015015Y035300D01*
X014940Y035375D01*
X014365Y036950D02*
X014215Y036950D01*
X014140Y037025D01*
X014290Y037175D02*
X014365Y037175D01*
X014440Y037100D01*
X014440Y037025D01*
X014365Y036950D01*
X014365Y037175D02*
X014440Y037250D01*
X014440Y037325D01*
X014365Y037400D01*
X014215Y037400D01*
X014140Y037325D01*
X012640Y037325D02*
X012565Y037400D01*
X012415Y037400D01*
X012340Y037325D01*
X012640Y037325D02*
X012640Y037250D01*
X012340Y036950D01*
X012640Y036950D01*
X009990Y036950D02*
X009690Y036950D01*
X009840Y036950D02*
X009840Y037400D01*
X009690Y037250D01*
X009065Y035750D02*
X008840Y035525D01*
X009140Y035525D01*
X009065Y035300D02*
X009065Y035750D01*
X016625Y031775D02*
X016625Y029775D01*
X017625Y029775D01*
X017625Y031775D01*
X016625Y031775D01*
X018625Y031775D02*
X019625Y031775D01*
X019625Y029775D01*
X018625Y029775D01*
X018625Y031775D01*
X018930Y029491D02*
X018930Y029191D01*
X019155Y029191D01*
X019080Y029341D01*
X019080Y029416D01*
X019155Y029491D01*
X019305Y029491D01*
X019380Y029416D01*
X019380Y029266D01*
X019305Y029191D01*
X019155Y029031D02*
X019230Y028956D01*
X019230Y028730D01*
X019380Y028730D02*
X018930Y028730D01*
X018930Y028956D01*
X019005Y029031D01*
X019155Y029031D01*
X018930Y028570D02*
X018930Y028420D01*
X018930Y028495D02*
X019305Y028495D01*
X019380Y028420D01*
X019380Y028345D01*
X019305Y028270D01*
X017380Y028345D02*
X017380Y028420D01*
X017305Y028495D01*
X016930Y028495D01*
X016930Y028420D02*
X016930Y028570D01*
X016930Y028730D02*
X016930Y028956D01*
X017005Y029031D01*
X017155Y029031D01*
X017230Y028956D01*
X017230Y028730D01*
X017380Y028730D02*
X016930Y028730D01*
X017155Y029191D02*
X017155Y029416D01*
X017230Y029491D01*
X017305Y029491D01*
X017380Y029416D01*
X017380Y029266D01*
X017305Y029191D01*
X017155Y029191D01*
X017005Y029341D01*
X016930Y029491D01*
X017380Y028345D02*
X017305Y028270D01*
X033625Y037775D02*
X033625Y038775D01*
X035625Y038775D01*
X035625Y037775D01*
X033625Y037775D01*
X033695Y039020D02*
X033770Y039020D01*
X033845Y039095D01*
X033845Y039470D01*
X033770Y039470D02*
X033920Y039470D01*
X034080Y039470D02*
X034306Y039470D01*
X034381Y039395D01*
X034381Y039245D01*
X034306Y039170D01*
X034080Y039170D01*
X034080Y039020D02*
X034080Y039470D01*
X034541Y039320D02*
X034691Y039470D01*
X034691Y039020D01*
X034541Y039020D02*
X034841Y039020D01*
X033695Y039020D02*
X033620Y039095D01*
X044625Y033247D02*
X044625Y032263D01*
D16*
X028969Y038265D02*
X028864Y038160D01*
X028654Y038160D01*
X028549Y038265D01*
X028325Y038160D02*
X028325Y038791D01*
X028549Y038685D02*
X028654Y038791D01*
X028864Y038791D01*
X028969Y038685D01*
X028969Y038580D01*
X028864Y038475D01*
X028969Y038370D01*
X028969Y038265D01*
X028864Y038475D02*
X028759Y038475D01*
X028325Y038475D02*
X027905Y038475D01*
X027680Y038265D02*
X027575Y038160D01*
X027365Y038160D01*
X027260Y038265D01*
X027260Y038685D01*
X027365Y038791D01*
X027575Y038791D01*
X027680Y038685D01*
X027905Y038791D02*
X027905Y038160D01*
X020969Y038160D02*
X020549Y038160D01*
X020969Y038580D01*
X020969Y038685D01*
X020864Y038791D01*
X020654Y038791D01*
X020549Y038685D01*
X020325Y038791D02*
X020325Y038160D01*
X020325Y038475D02*
X019905Y038475D01*
X019680Y038265D02*
X019575Y038160D01*
X019365Y038160D01*
X019260Y038265D01*
X019260Y038685D01*
X019365Y038791D01*
X019575Y038791D01*
X019680Y038685D01*
X019905Y038791D02*
X019905Y038160D01*
X012969Y038160D02*
X012549Y038160D01*
X012759Y038160D02*
X012759Y038791D01*
X012549Y038580D01*
X012325Y038475D02*
X011905Y038475D01*
X011680Y038265D02*
X011575Y038160D01*
X011365Y038160D01*
X011260Y038265D01*
X011260Y038685D01*
X011365Y038791D01*
X011575Y038791D01*
X011680Y038685D01*
X011905Y038791D02*
X011905Y038160D01*
X012325Y038160D02*
X012325Y038791D01*
D17*
X016875Y033075D02*
X017375Y033075D01*
X017375Y032475D02*
X016875Y032475D01*
X012812Y025039D02*
X012812Y015511D01*
X023208Y015511D01*
X025698Y018001D01*
X025698Y022549D01*
X023208Y025039D01*
X012812Y025039D01*
X033125Y028525D02*
X033125Y029025D01*
X033375Y029275D01*
X034875Y029275D01*
X035125Y029025D01*
X035125Y028525D01*
X034875Y028275D01*
X033375Y028275D01*
X033125Y028525D01*
X033375Y029275D02*
X033125Y029525D01*
X033125Y030025D01*
X033375Y030275D01*
X034875Y030275D01*
X035125Y030025D01*
X035125Y029525D01*
X034875Y029275D01*
X034875Y030275D02*
X035125Y030525D01*
X035125Y031025D01*
X034875Y031275D01*
X033375Y031275D01*
X033125Y031025D01*
X033125Y030525D01*
X033375Y030275D01*
X032993Y030525D02*
X032993Y031025D01*
X043310Y024669D02*
X043940Y024669D01*
X043940Y024668D02*
X043956Y024663D01*
X043972Y024655D01*
X043986Y024645D01*
X043998Y024633D01*
X044008Y024618D01*
X044015Y024602D01*
X044019Y024585D01*
X044020Y024568D01*
X044018Y024550D01*
X044018Y024000D02*
X044020Y023982D01*
X044019Y023965D01*
X044015Y023948D01*
X044008Y023932D01*
X043998Y023917D01*
X043986Y023905D01*
X043972Y023895D01*
X043956Y023887D01*
X043940Y023882D01*
X043940Y023881D02*
X043310Y023881D01*
X043310Y023882D02*
X043294Y023887D01*
X043278Y023895D01*
X043264Y023905D01*
X043252Y023917D01*
X043242Y023932D01*
X043235Y023948D01*
X043231Y023965D01*
X043230Y023982D01*
X043232Y024000D01*
X043232Y024550D02*
X043230Y024568D01*
X043231Y024585D01*
X043235Y024602D01*
X043242Y024618D01*
X043252Y024633D01*
X043264Y024645D01*
X043278Y024655D01*
X043294Y024663D01*
X043310Y024668D01*
X045731Y034460D02*
X045731Y035090D01*
X045732Y035090D02*
X045738Y035108D01*
X045747Y035126D01*
X045759Y035141D01*
X045775Y035153D01*
X045792Y035162D01*
X045811Y035168D01*
X045830Y035170D01*
X045850Y035168D01*
X045732Y034460D02*
X045738Y034442D01*
X045747Y034424D01*
X045759Y034409D01*
X045775Y034397D01*
X045792Y034388D01*
X045811Y034382D01*
X045830Y034380D01*
X045850Y034382D01*
X044925Y035025D02*
X044925Y035525D01*
X044325Y035525D02*
X044325Y035025D01*
X046400Y035168D02*
X046418Y035170D01*
X046435Y035169D01*
X046452Y035165D01*
X046468Y035158D01*
X046483Y035148D01*
X046495Y035136D01*
X046505Y035122D01*
X046513Y035106D01*
X046518Y035090D01*
X046519Y035090D02*
X046519Y034460D01*
X046518Y034460D02*
X046513Y034444D01*
X046505Y034428D01*
X046495Y034414D01*
X046483Y034402D01*
X046468Y034392D01*
X046452Y034385D01*
X046435Y034381D01*
X046418Y034380D01*
X046400Y034382D01*
D18*
X044713Y030758D02*
X042537Y030758D01*
X042537Y026792D01*
X044713Y026792D01*
X044713Y030758D01*
D19*
X043833Y030140D02*
X043833Y029995D01*
X043930Y029995D02*
X043640Y029995D01*
X043640Y030140D01*
X043688Y030189D01*
X043785Y030189D01*
X043833Y030140D01*
X043882Y029894D02*
X043688Y029894D01*
X043640Y029846D01*
X043640Y029749D01*
X043688Y029701D01*
X043882Y029701D01*
X043930Y029749D01*
X043930Y029846D01*
X043882Y029894D01*
X043882Y029600D02*
X043930Y029551D01*
X043930Y029454D01*
X043882Y029406D01*
X043882Y029305D02*
X043930Y029257D01*
X043930Y029160D01*
X043882Y029111D01*
X043785Y029160D02*
X043785Y029257D01*
X043833Y029305D01*
X043882Y029305D01*
X043785Y029160D02*
X043737Y029111D01*
X043688Y029111D01*
X043640Y029160D01*
X043640Y029257D01*
X043688Y029305D01*
X043688Y029406D02*
X043737Y029406D01*
X043785Y029454D01*
X043785Y029551D01*
X043833Y029600D01*
X043882Y029600D01*
X043688Y029600D02*
X043640Y029551D01*
X043640Y029454D01*
X043688Y029406D01*
X043930Y029010D02*
X043930Y028817D01*
X043640Y028817D01*
X043688Y028716D02*
X043640Y028667D01*
X043640Y028522D01*
X043930Y028522D01*
X043833Y028522D02*
X043833Y028667D01*
X043785Y028716D01*
X043688Y028716D01*
X043833Y028619D02*
X043930Y028716D01*
X043930Y028421D02*
X043930Y028227D01*
X043737Y028421D01*
X043688Y028421D01*
X043640Y028373D01*
X043640Y028276D01*
X043688Y028227D01*
X043688Y028126D02*
X043737Y028126D01*
X043785Y028078D01*
X043833Y028126D01*
X043882Y028126D01*
X043930Y028078D01*
X043930Y027981D01*
X043882Y027933D01*
X043930Y027832D02*
X043930Y027638D01*
X043737Y027832D01*
X043688Y027832D01*
X043640Y027783D01*
X043640Y027687D01*
X043688Y027638D01*
X043640Y027537D02*
X043640Y027343D01*
X043640Y027440D02*
X043930Y027440D01*
X043785Y027146D02*
X043785Y027049D01*
X043930Y027049D02*
X043640Y027049D01*
X043640Y027242D01*
X043688Y027933D02*
X043640Y027981D01*
X043640Y028078D01*
X043688Y028126D01*
X043785Y028078D02*
X043785Y028030D01*
D20*
X046613Y028275D02*
X046637Y028275D01*
X046637Y030275D02*
X046613Y030275D01*
X040637Y030275D02*
X040613Y030275D01*
X040613Y032275D02*
X040637Y032275D01*
X046113Y022775D02*
X046137Y022775D01*
X023125Y021287D02*
X023125Y021263D01*
D21*
X026925Y016975D02*
X027125Y016975D01*
X027075Y016575D02*
X026925Y016575D01*
D22*
X027140Y016575D03*
X027140Y016975D03*
D23*
X044379Y032381D02*
X044379Y033169D01*
X044871Y033169D02*
X044871Y032381D01*
D24*
X044625Y032775D03*
D25*
X046125Y020275D03*
D26*
X045263Y023630D02*
X045288Y023655D01*
X045288Y023755D01*
X045263Y023780D01*
X045213Y023780D01*
X045188Y023755D01*
X045188Y023655D01*
X045213Y023630D01*
X045263Y023630D01*
X045141Y023630D02*
X045141Y023780D01*
X045040Y023780D02*
X045141Y023630D01*
X045040Y023630D02*
X045040Y023780D01*
X044993Y023755D02*
X044968Y023780D01*
X044893Y023780D01*
X044893Y023630D01*
X044846Y023630D02*
X044746Y023630D01*
X044746Y023780D01*
X044846Y023780D01*
X044796Y023705D02*
X044746Y023705D01*
X044699Y023705D02*
X044674Y023680D01*
X044598Y023680D01*
X044598Y023630D02*
X044598Y023780D01*
X044674Y023780D01*
X044699Y023755D01*
X044699Y023705D01*
X044551Y023780D02*
X044551Y023630D01*
X044451Y023630D02*
X044451Y023780D01*
X044501Y023730D01*
X044551Y023780D01*
X044404Y023780D02*
X044404Y023655D01*
X044379Y023630D01*
X044329Y023630D01*
X044304Y023655D01*
X044304Y023780D01*
X044257Y023780D02*
X044207Y023780D01*
X044232Y023780D02*
X044232Y023655D01*
X044207Y023630D01*
X044181Y023630D01*
X044156Y023655D01*
X044109Y023630D02*
X044059Y023680D01*
X044084Y023680D02*
X044009Y023680D01*
X044009Y023630D02*
X044009Y023780D01*
X044084Y023780D01*
X044109Y023755D01*
X044109Y023705D01*
X044084Y023680D01*
X043962Y023630D02*
X043862Y023630D01*
X043862Y023780D01*
X043962Y023780D01*
X043912Y023705D02*
X043862Y023705D01*
X043815Y023655D02*
X043815Y023755D01*
X043790Y023780D01*
X043714Y023780D01*
X043714Y023630D01*
X043790Y023630D01*
X043815Y023655D01*
X043667Y023630D02*
X043567Y023630D01*
X043567Y023780D01*
X043520Y023755D02*
X043495Y023780D01*
X043445Y023780D01*
X043420Y023755D01*
X043420Y023655D01*
X043445Y023630D01*
X043495Y023630D01*
X043520Y023655D01*
X043520Y023755D01*
X043373Y023755D02*
X043348Y023780D01*
X043298Y023780D01*
X043273Y023755D01*
X043273Y023730D01*
X043298Y023705D01*
X043348Y023705D01*
X043373Y023680D01*
X043373Y023655D01*
X043348Y023630D01*
X043298Y023630D01*
X043273Y023655D01*
X043298Y024780D02*
X043273Y024805D01*
X043298Y024780D02*
X043348Y024780D01*
X043373Y024805D01*
X043373Y024830D01*
X043348Y024855D01*
X043298Y024855D01*
X043273Y024880D01*
X043273Y024905D01*
X043298Y024930D01*
X043348Y024930D01*
X043373Y024905D01*
X043470Y024930D02*
X043520Y024930D01*
X043495Y024930D02*
X043495Y024805D01*
X043470Y024780D01*
X043445Y024780D01*
X043420Y024805D01*
X043567Y024780D02*
X043667Y024880D01*
X043667Y024905D01*
X043642Y024930D01*
X043592Y024930D01*
X043567Y024905D01*
X043567Y024780D02*
X043667Y024780D01*
X044893Y023680D02*
X044968Y023680D01*
X044993Y023705D01*
X044993Y023755D01*
X044943Y023680D02*
X044993Y023630D01*
X045495Y034423D02*
X045520Y034423D01*
X045545Y034448D01*
X045545Y034498D01*
X045570Y034523D01*
X045595Y034523D01*
X045620Y034498D01*
X045620Y034448D01*
X045595Y034423D01*
X045495Y034423D02*
X045470Y034448D01*
X045470Y034498D01*
X045495Y034523D01*
X045470Y034620D02*
X045470Y034670D01*
X045470Y034645D02*
X045595Y034645D01*
X045620Y034620D01*
X045620Y034595D01*
X045595Y034570D01*
X045620Y034717D02*
X045620Y034817D01*
X045620Y034767D02*
X045470Y034767D01*
X045520Y034717D01*
X046620Y034717D02*
X046770Y034717D01*
X046770Y034817D01*
X046770Y034864D02*
X046770Y034940D01*
X046745Y034965D01*
X046645Y034965D01*
X046620Y034940D01*
X046620Y034864D01*
X046770Y034864D01*
X046770Y035012D02*
X046770Y035112D01*
X046770Y035159D02*
X046620Y035159D01*
X046620Y035234D01*
X046645Y035259D01*
X046695Y035259D01*
X046720Y035234D01*
X046720Y035159D01*
X046720Y035209D02*
X046770Y035259D01*
X046745Y035306D02*
X046770Y035331D01*
X046770Y035357D01*
X046745Y035382D01*
X046620Y035382D01*
X046620Y035357D02*
X046620Y035407D01*
X046620Y035454D02*
X046745Y035454D01*
X046770Y035479D01*
X046770Y035529D01*
X046745Y035554D01*
X046620Y035554D01*
X046620Y035601D02*
X046670Y035651D01*
X046620Y035701D01*
X046770Y035701D01*
X046770Y035748D02*
X046620Y035748D01*
X046620Y035824D01*
X046645Y035849D01*
X046695Y035849D01*
X046720Y035824D01*
X046720Y035748D01*
X046695Y035896D02*
X046695Y035946D01*
X046770Y035896D02*
X046770Y035996D01*
X046770Y036043D02*
X046620Y036043D01*
X046620Y036118D01*
X046645Y036143D01*
X046695Y036143D01*
X046720Y036118D01*
X046720Y036043D01*
X046720Y036093D02*
X046770Y036143D01*
X046770Y036190D02*
X046620Y036190D01*
X046770Y036291D01*
X046620Y036291D01*
X046645Y036338D02*
X046745Y036338D01*
X046770Y036363D01*
X046770Y036413D01*
X046745Y036438D01*
X046645Y036438D01*
X046620Y036413D01*
X046620Y036363D01*
X046645Y036338D01*
X046620Y035996D02*
X046620Y035896D01*
X046770Y035896D01*
X046770Y035601D02*
X046620Y035601D01*
X046620Y035112D02*
X046620Y035012D01*
X046770Y035012D01*
X046695Y035012D02*
X046695Y035062D01*
X046745Y034670D02*
X046645Y034670D01*
X046620Y034645D01*
X046620Y034595D01*
X046645Y034570D01*
X046745Y034570D01*
X046770Y034595D01*
X046770Y034645D01*
X046745Y034670D01*
X046745Y034523D02*
X046770Y034498D01*
X046770Y034448D01*
X046745Y034423D01*
X046695Y034448D02*
X046695Y034498D01*
X046720Y034523D01*
X046745Y034523D01*
X046695Y034448D02*
X046670Y034423D01*
X046645Y034423D01*
X046620Y034448D01*
X046620Y034498D01*
X046645Y034523D01*
M02*
